<svg id="Layer_1" data-name="Layer 1" xmlns="http://www.w3.org/2000/svg" xmlns:xlink="http://www.w3.org/1999/xlink" viewBox="0 0 306.01 315.76"><defs><style>.cls-1{fill:none;}.cls-2{clip-path:url(#clip-path);}.cls-3{fill:#fff;opacity:0.4;}.cls-4{fill:#d49b74;}</style><clipPath id="clip-path" transform="translate(-46.78 -84.09)"><circle class="cls-1" cx="199.78" cy="199.85" r="200"/></clipPath></defs><title>default</title><g class="cls-2"><path class="cls-3" d="M349.6,388.92c-1.6-4.69-3.78-9.39-7.43-12.85-3.84-3.64-8.88-5.34-14-6.05-5.75-.8-63.52-12.74-72.75-15.92a174.59,174.59,0,0,0-18.73-4.87c-3.1-.69-6.2-1.4-9.28-2.2-.72-.19-1.44-.38-2.15-.59l-.83-.26-.47-.17-.32-.13a8.14,8.14,0,0,1-.77-.41l-.39-.25c.09.07.21.21-.1-.09a3.14,3.14,0,0,1-.94-1.24,3.59,3.59,0,0,1-.17-.34s-.15-.44-.15-.44c-.1-.31-.18-.63-.26-.95-.18-.74-.3-1.49-.42-2.25-.28-1.8-.51-3.53-.71-5.36q-.5-4.74-.62-9.5a6.28,6.28,0,0,0,.83-.39,5.82,5.82,0,0,0,1-.14,6.54,6.54,0,0,0,1.61-.57,5.05,5.05,0,0,0,.68.06,6.4,6.4,0,0,0,3.7-1.05,6.2,6.2,0,0,0,2.71-.86h-1l.3-.09a6,6,0,0,0,.73.08,7.7,7.7,0,0,0,1.21-.89l1.23-.41a4.54,4.54,0,0,0,.82.07,6.73,6.73,0,0,0,4.9-2.12l1.18-.48h.37a6.76,6.76,0,0,0,2.76-.58,6.63,6.63,0,0,0,2.46-1.9l1.13-.55a7,7,0,0,0,3.09-.78,6.63,6.63,0,0,0,2.31-2.08l1.1-.63a6.7,6.7,0,0,0,3-1,6.57,6.57,0,0,0,2.21-2.27l1-.68a6.55,6.55,0,0,0,5-3.62l.95-.73a6.77,6.77,0,0,0,2.87-1.37,6.56,6.56,0,0,0,1.85-2.57l.86-.76a6.57,6.57,0,0,0,4.51-4.33c.26-.28.53-.54.78-.81a6.47,6.47,0,0,0,4.18-4.61l.72-.83a6.82,6.82,0,0,0,2.57-2,6.64,6.64,0,0,0,1.29-2.94c.23-.3.45-.6.67-.91a6.5,6.5,0,0,0,2.41-2.13,6.76,6.76,0,0,0,1.09-3l.6-1a6.46,6.46,0,0,0,3.12-5.35l.52-1a6.63,6.63,0,0,0,2.1-2.47,6.53,6.53,0,0,0,.65-3.1c.16-.35.32-.7.47-1.05a6.53,6.53,0,0,0,2.34-5.74c.14-.35.27-.72.4-1.09a6.67,6.67,0,0,0,1.71-2.69,6.56,6.56,0,0,0,.21-3.19c.11-.36.22-.73.32-1.09a6.7,6.7,0,0,0,1.52-2.81,6.57,6.57,0,0,0,0-3.21c.08-.36.16-.71.23-1.08a6.4,6.4,0,0,0,1.33-2.92,6.56,6.56,0,0,0-.25-3.23c.05-.33.1-.67.14-1a6.45,6.45,0,0,0,.66-6.27c0-.34.05-.68.07-1a6.66,6.66,0,0,0,.94-3.14,6.81,6.81,0,0,0-.72-3.19c0-.16,0-.33,0-.5s0-.33,0-.5a6.57,6.57,0,0,0,.72-3.19,6.74,6.74,0,0,0-.94-3.13c0-.34,0-.67-.07-1a6.33,6.33,0,0,0-.46-5.93,6.91,6.91,0,0,0-.18-1.92,6.77,6.77,0,0,0,.18-1.91,6.44,6.44,0,0,0,.47-5.95l.06-1a6.59,6.59,0,0,0,.94-3.14,6.74,6.74,0,0,0-.72-3.18c0-.17,0-.34,0-.5s0-.34,0-.51a6.52,6.52,0,0,0,.72-3.19,6.62,6.62,0,0,0-.94-3.13l-.06-1a6.43,6.43,0,0,0-.66-6.24l-.15-1a6.46,6.46,0,0,0-1.08-6.15c-.07-.36-.15-.72-.23-1.08a6.43,6.43,0,0,0-1.5-6c-.1-.36-.21-.73-.32-1.09a6.67,6.67,0,0,0-.21-3.2,6.53,6.53,0,0,0-1.71-2.67c-.13-.37-.26-.74-.4-1.1a6.52,6.52,0,0,0-.44-3.17,6.75,6.75,0,0,0-1.9-2.57l-.46-1a6.55,6.55,0,0,0-2.76-5.57l-.52-1a6.56,6.56,0,0,0-.88-3.07,6.67,6.67,0,0,0-2.25-2.29l-.6-.95a6.65,6.65,0,0,0-1.09-3,6.86,6.86,0,0,0-2.4-2.11c-.21-.3-.45-.61-.67-.91a6.65,6.65,0,0,0-1.3-3,6.9,6.9,0,0,0-2.57-2c-.23-.28-.47-.55-.71-.83a6.56,6.56,0,0,0-1.5-2.84,6.8,6.8,0,0,0-2.67-1.77l-.79-.8a6.87,6.87,0,0,0-1.71-2.75,7,7,0,0,0-2.79-1.58l-.85-.75a6.47,6.47,0,0,0-4.75-4l-.94-.73a6.67,6.67,0,0,0-2.06-2.45,6.75,6.75,0,0,0-2.93-1.16l-1-.71a6.65,6.65,0,0,0-2.19-2.26,6.9,6.9,0,0,0-3-1l-1.07-.61a6.63,6.63,0,0,0-2.36-2.1,6.91,6.91,0,0,0-3.07-.77c-.38-.19-.75-.38-1.14-.56a6.62,6.62,0,0,0-2.47-1.9,6.77,6.77,0,0,0-2.74-.58l-.37,0-1.19-.49a6.66,6.66,0,0,0-4.89-2.11,5.52,5.52,0,0,0-.81.06l-1.25-.41a6.92,6.92,0,0,0-2.72-1.53,6.76,6.76,0,0,0-1.84-.26,6,6,0,0,0-1.27.14l-1.28-.31a6.66,6.66,0,0,0-2.83-1.36,7.1,7.1,0,0,0-1.38-.14,6.91,6.91,0,0,0-1.76.23l-1.26-.21a6.77,6.77,0,0,0-2.91-1.15,6.61,6.61,0,0,0-3.13.32l-1.28-.14a6.76,6.76,0,0,0-3-1,6.66,6.66,0,0,0-3.08.55l-1.28,0a6.64,6.64,0,0,0-6.13,0l-1.29,0a6.52,6.52,0,0,0-2.6-.56l-.48,0a6.74,6.74,0,0,0-3,1l-1.27.14a6.43,6.43,0,0,0-2.19-.39,5.82,5.82,0,0,0-.95.07A6.77,6.77,0,0,0,181,86.27l-1.25.22a6.84,6.84,0,0,0-1.75-.24,6.48,6.48,0,0,0-1.41.15,6.68,6.68,0,0,0-2.81,1.35l-1.29.31a5.86,5.86,0,0,0-1.26-.14,6.44,6.44,0,0,0-1.86.27,6.58,6.58,0,0,0-2.7,1.53l-1.25.4a5.32,5.32,0,0,0-.81-.06,6.69,6.69,0,0,0-4.89,2.12c-.4.15-.8.33-1.2.48h-.35A6.58,6.58,0,0,0,153,95.1l-1.18.58a6.63,6.63,0,0,0-5.42,2.87l-1.08.62a6.7,6.7,0,0,0-3,1,6.63,6.63,0,0,0-2.19,2.25l-1,.7a6.6,6.6,0,0,0-2.94,1.18,6.69,6.69,0,0,0-2.05,2.43l-.94.73a6.58,6.58,0,0,0-4.75,4l-.84.76a6.59,6.59,0,0,0-4.5,4.32c-.27.27-.54.53-.8.81a6.49,6.49,0,0,0-4.17,4.61c-.24.28-.48.55-.71.83a6.49,6.49,0,0,0-3.85,4.89l-.68.93a6.54,6.54,0,0,0-2.4,2.12,6.74,6.74,0,0,0-1.1,3c-.2.32-.4.65-.61,1a6.49,6.49,0,0,0-3.11,5.35c-.18.32-.35.65-.53,1a6.59,6.59,0,0,0-2.09,2.47,6.76,6.76,0,0,0-.66,3.1c-.16.35-.31.71-.46,1a6.49,6.49,0,0,0-1.9,2.58,6.58,6.58,0,0,0-.44,3.16c-.14.37-.27.73-.4,1.09a6.53,6.53,0,0,0-1.71,2.68,6.7,6.7,0,0,0-.21,3.2c-.11.37-.22.73-.32,1.09a6.59,6.59,0,0,0-1.51,2.8,6.5,6.5,0,0,0,0,3.22l-.24,1.08a6.48,6.48,0,0,0-1.07,6.15l-.15,1a6.61,6.61,0,0,0-1.14,3,6.77,6.77,0,0,0,.48,3.21l-.06,1a6.63,6.63,0,0,0-.94,3.15,6.48,6.48,0,0,0,.72,3.17c0,.17,0,.34,0,.51s0,.33,0,.5a6.43,6.43,0,0,0,.22,6.32l.06,1a6.51,6.51,0,0,0-.48,3.2,6.73,6.73,0,0,0,1,2.75,6.78,6.78,0,0,0,.19,1.9,6.64,6.64,0,0,0-.19,1.88,6.58,6.58,0,0,0-1,2.76,6.79,6.79,0,0,0,.48,3.21l-.06,1a6.67,6.67,0,0,0-.94,3.16,6.48,6.48,0,0,0,.72,3.17c0,.17,0,.33,0,.5s0,.34,0,.51a6.55,6.55,0,0,0-.72,3.19,6.62,6.62,0,0,0,.94,3.13l.06,1a6.67,6.67,0,0,0-.48,3.21A6.55,6.55,0,0,0,94,235.26c0,.34.09.68.14,1a6.44,6.44,0,0,0-.25,3.23,6.62,6.62,0,0,0,1.32,2.91l.24,1.08a6.5,6.5,0,0,0,0,3.22,6.6,6.6,0,0,0,1.52,2.8c.1.37.21.73.32,1.09a6.54,6.54,0,0,0,.21,3.2,6.63,6.63,0,0,0,1.71,2.69c.13.36.26.73.4,1.08a6.6,6.6,0,0,0,.43,3.17,6.7,6.7,0,0,0,1.91,2.57c.15.35.3.7.46,1.05a6.53,6.53,0,0,0,.66,3.11,6.77,6.77,0,0,0,2.09,2.47l.52,1a6.55,6.55,0,0,0,3.14,5.37l.59.94a6.47,6.47,0,0,0,1.1,3,6.7,6.7,0,0,0,2.4,2.12l.66.9a6.62,6.62,0,0,0,1.3,2.94,6.7,6.7,0,0,0,2.58,2l.7.83a6.47,6.47,0,0,0,1.5,2.83,6.77,6.77,0,0,0,2.68,1.79l.79.8a6.62,6.62,0,0,0,1.71,2.74,6.69,6.69,0,0,0,2.79,1.58l.84.75a6.6,6.6,0,0,0,1.89,2.6,6.85,6.85,0,0,0,2.86,1.37l.94.72a6.51,6.51,0,0,0,2.06,2.45,6.68,6.68,0,0,0,2.94,1.17l1,.67a6.41,6.41,0,0,0,2.21,2.27,6.75,6.75,0,0,0,3,1l1.06.62a6.73,6.73,0,0,0,2.35,2.09,6.87,6.87,0,0,0,3.09.78l1.12.55a6.57,6.57,0,0,0,2.47,1.9,6.7,6.7,0,0,0,2.76.58h.37l1.17.47a6.48,6.48,0,0,0,2.6,1.72,6.75,6.75,0,0,0,2.32.41,5.52,5.52,0,0,0,.81-.06l1.23.4a6.55,6.55,0,0,0,1.44,1H168l.26.07a6.29,6.29,0,0,0,1.14.45,7.55,7.55,0,0,0,1.17.22,22.53,22.53,0,0,1,.69,2.15c.17.66.31,1.32.43,2a17.5,17.5,0,0,1,.24,1.77,32.07,32.07,0,0,1,.1,3.92q0,1-.12,1.92l-.09.88-.06.46,0,.27a44.7,44.7,0,0,1-1.54,6.76c-.29.93-.59,1.86-.93,2.78-.14.38-.28.76-.43,1.14s-.16.38-.24.6l-.1.23-.1.24c-.07.15-.13.3-.2.44s-.17.39-.27.59c-6.73,2.39-76.67,20-84.43,21.35q-5.64,1-11.2,2.4c-3.19.82-6.42,1.91-8.91,4.15-2.13,1.93-12.58,16.39-13.66,17.69A17.16,17.16,0,0,0,47.13,399c-.12.29-.24.57-.35.86h306C351.84,396.18,350.82,392.51,349.6,388.92ZM110,248.13a5.66,5.66,0,0,0,.44.75,6.52,6.52,0,0,0,2.4,2.12c.22.3.44.61.66.9a6.48,6.48,0,0,0,1.31,2.94,6.65,6.65,0,0,0,2.57,2l.7.83a6.61,6.61,0,0,0,1.5,2.84,6.75,6.75,0,0,0,2.68,1.78l.79.8a6.56,6.56,0,0,0,1.71,2.74,6.89,6.89,0,0,0,2.79,1.59l.84.74a6.53,6.53,0,0,0,1.89,2.6,6.73,6.73,0,0,0,2.86,1.37l.94.72a6.51,6.51,0,0,0,2.06,2.45,6.68,6.68,0,0,0,2.94,1.17l1,.68a6.49,6.49,0,0,0,2.21,2.27,6.74,6.74,0,0,0,3,1l1.07.62a6.61,6.61,0,0,0,2.34,2.09,6.74,6.74,0,0,0,3.09.78l1.12.55a6.65,6.65,0,0,0,2.48,1.91,6.77,6.77,0,0,0,2.75.57h.37l1.17.48a6.69,6.69,0,0,0,2.6,1.72,7,7,0,0,0,2.32.4,7.34,7.34,0,0,0,.81-.05l1.23.39a6.73,6.73,0,0,0,2.71,1.54,7,7,0,0,0,1.87.26,6.56,6.56,0,0,0,1.25-.14l1.27.31a6.76,6.76,0,0,0,4.23,1.5,6.8,6.8,0,0,0,1.76-.24l1.24.21a6.68,6.68,0,0,0,2.92,1.16,6.16,6.16,0,0,0,1,.07,6.47,6.47,0,0,0,2.19-.39l1.25.14a6.84,6.84,0,0,0,3,1h.46a6.8,6.8,0,0,0,2.62-.56l1.28,0a6.68,6.68,0,0,0,3.05.75h0a6.75,6.75,0,0,0,3.06-.75l1.28-.06a6.52,6.52,0,0,0,2.6.56h.48a6.74,6.74,0,0,0,3-.95l1.26-.14a6.47,6.47,0,0,0,2.19.39,5.9,5.9,0,0,0,1-.07,6.74,6.74,0,0,0,2.91-1.16l1.24-.21a6.93,6.93,0,0,0,1.77.24,6.55,6.55,0,0,0,1.41-.15,6.81,6.81,0,0,0,2.81-1.35l1.28-.31a6.57,6.57,0,0,0,1.26.14,6.92,6.92,0,0,0,1.87-.26,6.83,6.83,0,0,0,2.7-1.54l1.23-.4a5.66,5.66,0,0,0,.82.06,6.88,6.88,0,0,0,2.31-.4,6.77,6.77,0,0,0,2.59-1.72l1.18-.48h.37a6.76,6.76,0,0,0,2.76-.58,6.63,6.63,0,0,0,2.46-1.9l1.13-.55a6.84,6.84,0,0,0,3.09-.78,6.63,6.63,0,0,0,2.32-2.07l1.09-.64a6.64,6.64,0,0,0,5.24-3.25c.34-.23.67-.46,1-.68a6.49,6.49,0,0,0,2.93-1.18,6.68,6.68,0,0,0,2.05-2.43l.95-.73a6.79,6.79,0,0,0,2.87-1.38,6.6,6.6,0,0,0,1.85-2.56l.87-.77a6.71,6.71,0,0,0,2.8-1.6,6.6,6.6,0,0,0,1.7-2.73c.26-.27.53-.53.78-.81a6.59,6.59,0,0,0,2.69-1.77,6.72,6.72,0,0,0,1.5-2.84c.23-.28.47-.55.71-.83a6.74,6.74,0,0,0,2.57-2A6.59,6.59,0,0,0,284,251.9c.23-.29.46-.6.67-.9a6.51,6.51,0,0,0,2.41-2.13,5.55,5.55,0,0,0,.41-.7,93,93,0,0,1-177.5,0Z" transform="translate(-46.78 -84.09)"/><polygon class="cls-4" points="187 315.76 239.11 315.76 239.11 315.76 187 315.76"/><polygon class="cls-4" points="239.11 315.76 240.12 315.76 239.11 315.76 239.11 315.76"/><polygon class="cls-4" points="187 315.76 186.05 315.76 186.05 315.76 187 315.76"/><polygon class="cls-4" points="186.05 315.76 186.05 315.76 181.5 315.76 186.05 315.76"/><path class="cls-4" d="M229.71,322.1h0Z" transform="translate(-46.78 -84.09)"/></g></svg>