<svg width="180" height="90" viewBox="0 0 180 90" fill="none" xmlns="http://www.w3.org/2000/svg">
<rect width="180" height="90" fill="#005A28"/>
<path d="M133.809 52.1554H127.878V53.8028H129.99V58.7709H131.711V53.8028H133.809V52.1554Z" fill="white"/>
<path d="M51.8223 55.4633C51.8223 53.4941 53.3214 51.9753 55.3549 51.9753C56.6715 51.9753 57.8056 52.6575 58.3531 53.6871L56.867 54.5495C56.5933 54.0089 56.0197 53.6614 55.3419 53.6614C54.3121 53.6614 53.543 54.4208 53.543 55.4762C53.543 56.5187 54.3121 57.278 55.3419 57.278C56.0328 57.278 56.6194 56.9434 56.8801 56.4028L58.3792 57.2523C57.8056 58.282 56.6715 58.9641 55.3549 58.9641C53.3214 58.9512 51.8223 57.4325 51.8223 55.4633Z" fill="white"/>
<path d="M65.562 52.1555L63.1243 58.771C62.4334 60.6759 61.195 61.5125 59.5917 61.4095V59.8264C60.5041 59.8393 60.9865 59.5175 61.2993 58.6938L58.601 52.1684H60.439L62.2379 56.6088L63.7239 52.1684H65.562V52.1555Z" fill="white"/>
<path d="M72.4951 58.7709H70.7614V53.7514H68.1021V58.7709H66.3684V52.1554H72.4951V58.7709Z" fill="white"/>
<path d="M77.1485 57.4068C77.8134 57.4068 78.3478 57.1237 78.6476 56.7504L80.0424 57.5484C79.4167 58.4493 78.413 58.9642 77.1225 58.9642C74.8673 58.9642 73.4595 57.4454 73.4595 55.4762C73.4595 53.507 74.8934 51.9883 76.9921 51.9883C78.9735 51.9883 80.3814 53.5328 80.3814 55.4762C80.3814 55.7336 80.3553 55.9524 80.3162 56.1712H75.2714C75.5061 57.0336 76.2361 57.4068 77.1485 57.4068ZM78.6476 54.8456C78.4391 53.8931 77.7091 53.507 76.9921 53.507C76.0666 53.507 75.4409 53.9961 75.2323 54.8456H78.6476Z" fill="white"/>
<path d="M88.4756 55.4632C88.4756 57.4324 87.0026 58.9511 85.2037 58.9511C84.226 58.9511 83.5221 58.5907 83.0398 57.9858V61.4094H81.3191V52.1554H83.0398V52.9405C83.5221 52.3356 84.2391 51.9752 85.2037 51.9752C87.0026 51.9752 88.4756 53.494 88.4756 55.4632ZM86.7549 55.4632C86.7549 54.3563 85.9598 53.5969 84.8908 53.5969C83.835 53.5969 83.0398 54.3563 83.0398 55.4632C83.0398 56.57 83.835 57.3294 84.8908 57.3294C85.9598 57.3294 86.7549 56.57 86.7549 55.4632Z" fill="white"/>
<path d="M96.3875 58.7709H94.719V54.9097L93.0113 57.5482H92.8027L91.082 54.884V58.7709H89.4265V52.1554H91.1211L92.907 54.9355L94.6929 52.1554H96.3875V58.7709Z" fill="white"/>
<path d="M104.521 52.1554V58.7709H102.787V57.9858C102.305 58.5779 101.588 58.9511 100.61 58.9511C98.8246 58.9511 97.3516 57.4324 97.3516 55.4632C97.3516 53.494 98.8246 51.9752 100.61 51.9752C101.588 51.9752 102.305 52.3485 102.787 52.9405V52.1554H104.521ZM102.787 55.4632C102.787 54.3563 101.992 53.5969 100.923 53.5969C99.8674 53.5969 99.0723 54.3563 99.0723 55.4632C99.0723 56.57 99.8674 57.3294 100.923 57.3294C101.992 57.3294 102.787 56.57 102.787 55.4632Z" fill="white"/>
<path d="M112.981 55.4632C112.981 57.4324 111.507 58.9511 109.709 58.9511C108.731 58.9511 108.027 58.5907 107.545 57.9858V61.4094H105.824V52.1554H107.545V52.9405C108.027 52.3356 108.744 51.9752 109.709 51.9752C111.507 51.9752 112.981 53.494 112.981 55.4632ZM111.247 55.4632C111.247 54.3563 110.452 53.5969 109.383 53.5969C108.327 53.5969 107.532 54.3563 107.532 55.4632C107.532 56.57 108.327 57.3294 109.383 57.3294C110.452 57.3294 111.247 56.57 111.247 55.4632Z" fill="white"/>
<path d="M124.111 57.4068C124.776 57.4068 125.311 57.1237 125.61 56.7504L127.005 57.5484C126.38 58.4493 125.376 58.9642 124.085 58.9642C121.83 58.9642 120.422 57.4454 120.422 55.4762C120.422 53.507 121.856 51.9883 123.955 51.9883C125.936 51.9883 127.344 53.5328 127.344 55.4762C127.344 55.7336 127.318 55.9524 127.279 56.1712H122.234C122.456 57.0336 123.199 57.4068 124.111 57.4068ZM125.61 54.8456C125.402 53.8931 124.672 53.507 123.955 53.507C123.029 53.507 122.404 53.9961 122.195 54.8456H125.61Z" fill="white"/>
<path d="M118.311 58.7709H120.319L117.751 55.4245L120.241 52.1554H118.181L116.239 54.8454H115.652V52.1554H113.931V58.7709H115.652V56.1582H116.369L118.311 58.7709Z" fill="white"/>
<path d="M144.758 36.415H136.794V38.6159H139.609V45.2958H141.929V38.6159H144.758V36.415Z" fill="white"/>
<path d="M67.9719 43.4678C68.8713 43.4678 69.5882 43.0945 69.9922 42.5797L71.8692 43.648C71.022 44.8578 69.6794 45.5528 67.9458 45.5528C64.9218 45.5528 63.0188 43.5064 63.0188 40.8679C63.0188 38.2165 64.9479 36.183 67.7634 36.183C70.4224 36.183 72.3124 38.268 72.3124 40.8679C72.3124 41.2025 72.2733 41.5114 72.2211 41.8075H65.4432C65.756 42.9658 66.7467 43.4678 67.9719 43.4678ZM69.9922 40.0184C69.7055 38.7442 68.7279 38.2294 67.7634 38.2294C66.5251 38.2294 65.6778 38.8858 65.4041 40.0184H69.9922Z" fill="white"/>
<path d="M83.5612 40.8554C83.5612 43.5067 81.5799 45.5403 79.1686 45.5403C77.8521 45.5403 76.9006 45.0641 76.2488 44.2404V48.8352H73.9287V36.415H76.2488V37.4575C76.9006 36.6338 77.8521 36.1576 79.1686 36.1576C81.5799 36.1705 83.5612 38.204 83.5612 40.8554ZM81.241 40.8554C81.241 39.3624 80.1722 38.3456 78.7384 38.3456C77.3177 38.3456 76.2619 39.3624 76.2619 40.8554C76.2619 42.3484 77.3177 43.3652 78.7384 43.3652C80.1722 43.3652 81.241 42.3484 81.241 40.8554Z" fill="white"/>
<path d="M89.7002 43.4678C90.5996 43.4678 91.3165 43.0945 91.7205 42.5797L93.5975 43.648C92.7502 44.8578 91.4077 45.5528 89.6741 45.5528C86.6501 45.5528 84.7471 43.5064 84.7471 40.8679C84.7471 38.2165 86.6762 36.183 89.4916 36.183C92.1507 36.183 94.0407 38.268 94.0407 40.8679C94.0407 41.2025 94.0016 41.5114 93.9494 41.8075H87.1715C87.4843 42.9658 88.4749 43.4678 89.7002 43.4678ZM91.7075 40.0184C91.4207 38.7442 90.4431 38.2294 89.4786 38.2294C88.2403 38.2294 87.3931 38.8858 87.1193 40.0184H91.7075Z" fill="white"/>
<path d="M115.391 40.8554C115.391 43.5067 113.41 45.5403 110.999 45.5403C109.682 45.5403 108.731 45.0641 108.079 44.2404V48.8352H105.759V36.415H108.079V37.4575C108.731 36.6338 109.682 36.1576 110.999 36.1576C113.41 36.1705 115.391 38.204 115.391 40.8554ZM113.071 40.8554C113.071 39.3624 112.002 38.3456 110.568 38.3456C109.148 38.3456 108.092 39.3624 108.092 40.8554C108.092 42.3484 109.148 43.3652 110.568 43.3652C112.002 43.3652 113.071 42.3484 113.071 40.8554Z" fill="white"/>
<path d="M121.531 43.4683C122.43 43.4683 123.147 43.0951 123.551 42.5802L125.428 43.6485C124.581 44.8584 123.238 45.5534 121.505 45.5534C118.481 45.5534 116.578 43.5069 116.578 40.8685C116.578 38.2171 118.507 36.1835 121.322 36.1835C123.981 36.1835 125.871 38.2686 125.871 40.8685C125.871 41.2031 125.832 41.512 125.78 41.808H119.002C119.315 42.9664 120.305 43.4683 121.531 43.4683ZM118.272 34.2787C118.272 33.6223 118.832 33.0688 119.497 33.0688C120.162 33.0688 120.696 33.6223 120.696 34.2787C120.696 34.9351 120.162 35.4757 119.497 35.4757C118.832 35.4757 118.272 34.9351 118.272 34.2787ZM123.538 40.019C123.251 38.7448 122.274 38.23 121.309 38.23C120.071 38.23 119.224 38.8864 118.95 40.019H123.538ZM121.687 34.2787C121.687 33.6223 122.248 33.0688 122.912 33.0688C123.577 33.0688 124.124 33.6223 124.124 34.2787C124.124 34.9351 123.59 35.4757 122.912 35.4757C122.248 35.4757 121.687 34.9351 121.687 34.2787Z" fill="white"/>
<path d="M126.953 40.8554C126.953 38.2041 128.973 36.1705 131.697 36.1705C133.457 36.1705 134.995 37.0972 135.725 38.4615L133.731 39.6199C133.366 38.8862 132.597 38.4358 131.684 38.4358C130.303 38.4358 129.273 39.4525 129.273 40.8683C129.273 42.2712 130.303 43.288 131.684 43.288C132.623 43.288 133.392 42.8375 133.757 42.1168L135.777 43.2494C135.008 44.6394 133.47 45.5532 131.71 45.5532C128.96 45.5404 126.953 43.5068 126.953 40.8554Z" fill="white"/>
<path d="M145.514 40.8554C145.514 38.2041 147.612 36.1705 150.258 36.1705C152.904 36.1705 155.029 38.217 155.029 40.8554C155.029 43.5068 152.904 45.5404 150.258 45.5404C147.625 45.5404 145.514 43.5068 145.514 40.8554ZM152.709 40.8554C152.709 39.4139 151.653 38.41 150.258 38.41C148.889 38.41 147.834 39.4268 147.834 40.8554C147.834 42.297 148.889 43.3137 150.258 43.3137C151.653 43.3137 152.709 42.297 152.709 40.8554Z" fill="white"/>
<path d="M101.549 45.2958H104.247L100.793 40.8039L104.129 36.415H101.366L98.7722 40.0188H97.9771V36.415H95.657V45.2958H97.9771V41.795H98.9417L101.549 45.2958Z" fill="white"/>
<path d="M162.119 36.415L159.526 40.0188H158.731V36.415H156.41V45.2958H158.731V41.795H159.708L162.302 45.2958H165L161.559 40.8039L164.896 36.415H162.119Z" fill="white"/>
<path d="M61.481 45.296H59.0044V35.3727H54.5597V45.296H52.0701V33.0688H61.481V45.296Z" fill="white"/>
<path d="M34.0955 41.4342L30.133 45.3469L26.1705 41.4342C23.9808 39.2719 23.9808 35.7711 26.1705 33.6217C28.3603 31.4594 31.9057 31.4594 34.0955 33.6217C36.2853 35.784 36.2853 39.2848 34.0955 41.4342Z" fill="white"/>
<path d="M26.1705 52.4259L30.133 48.5132L34.0954 52.4259C36.2852 54.5881 36.2852 58.0889 34.0954 60.2512C31.9057 62.4135 28.3603 62.4135 26.1835 60.2512C23.9937 58.0889 23.9937 54.5881 26.1705 52.4259Z" fill="white"/>
<path d="M35.6986 50.8428L31.7361 46.9301L35.6986 43.0175C37.8883 40.8552 41.4337 40.8552 43.6235 43.0175C45.8133 45.1797 45.8133 48.6805 43.6235 50.8428C41.4337 53.0051 37.8883 53.0051 35.6986 50.8428Z" fill="white"/>
<path d="M24.5673 43.0171L28.5298 46.9298L24.5673 50.8424C22.3775 53.0047 18.8321 53.0047 16.6423 50.8424C14.4526 48.6802 14.4526 45.1793 16.6423 43.0171C18.8452 40.8677 22.3905 40.8677 24.5673 43.0171Z" fill="white"/>
</svg>
