<svg width="180" height="88" viewBox="0 0 180 88" fill="none" xmlns="http://www.w3.org/2000/svg">
<rect y="-2" width="180" height="90" fill="#005A28"/>
<path d="M32.3848 38.674L30.4425 40.5967L28.5002 38.674C27.4286 37.6133 27.4286 35.8895 28.5002 34.7956C29.5718 33.7348 31.3132 33.7348 32.3848 34.7956C33.4564 35.8895 33.4564 37.6133 32.3848 38.674Z" fill="white"/>
<path d="M28.5002 44.1104L30.4425 42.1877L32.3848 44.1104C33.4564 45.1712 33.4564 46.8949 32.3848 47.9888C31.3132 49.0496 29.5718 49.0496 28.5002 47.9888C27.4286 46.9281 27.4286 45.1712 28.5002 44.1104Z" fill="white"/>
<path d="M33.1886 43.3149L31.2463 41.3923L33.1886 39.4697C34.2602 38.4089 36.0016 38.4089 37.0732 39.4697C38.1448 40.5304 38.1448 42.2542 37.0732 43.3481C36.0016 44.4089 34.2602 44.4089 33.1886 43.3149Z" fill="white"/>
<path d="M27.7295 39.4696L29.6718 41.3922L27.7295 43.3149C26.6579 44.3756 24.9166 44.3756 23.845 43.3149C22.7734 42.2541 22.7734 40.5303 23.845 39.4364C24.9166 38.4088 26.6244 38.4088 27.7295 39.4696Z" fill="white"/>
<path d="M136.531 38.5746H128.494V40.7956H131.341V47.5911H133.685V40.7956H136.531V38.5746Z" fill="white"/>
<path d="M59.1412 45.7349C60.0453 45.7349 60.7821 45.3702 61.1839 44.8398L63.0592 45.9337C62.222 47.1603 60.849 47.8564 59.1077 47.8564C56.0603 47.8564 54.1515 45.768 54.1515 43.0829C54.1515 40.3978 56.0938 38.3094 58.9402 38.3094C61.6193 38.3094 63.5281 40.431 63.5281 43.0829C63.5281 43.4144 63.4946 43.7459 63.4276 44.0442H56.5961C56.8975 45.2045 57.9021 45.7349 59.1412 45.7349ZM61.1504 42.221C60.849 40.9282 59.8779 40.3978 58.9068 40.3978C57.6677 40.3978 56.797 41.0608 56.5291 42.221H61.1504Z" fill="white"/>
<path d="M74.8464 43.0829C74.8464 45.768 72.8372 47.8564 70.4261 47.8564C69.0866 47.8564 68.1489 47.3592 67.4792 46.5304V51.2045H65.135V38.5746H67.4792V39.6354C68.1154 38.8067 69.0866 38.3094 70.4261 38.3094C72.8372 38.3094 74.8464 40.3978 74.8464 43.0829ZM72.5023 43.0829C72.5023 41.5581 71.4307 40.5304 69.9907 40.5304C68.5508 40.5304 67.4792 41.5581 67.4792 43.0829C67.4792 44.6078 68.5508 45.6354 69.9907 45.6354C71.4307 45.6023 72.5023 44.5746 72.5023 43.0829Z" fill="white"/>
<path d="M81.0084 45.7349C81.9125 45.7349 82.6493 45.3702 83.0511 44.8398L84.9264 45.9337C84.0892 47.1603 82.7162 47.8564 80.9749 47.8564C77.9275 47.8564 76.0187 45.768 76.0187 43.0829C76.0187 40.3978 77.961 38.3094 80.8074 38.3094C83.4864 38.3094 85.3952 40.431 85.3952 43.0829C85.3952 43.4144 85.3618 43.7459 85.2948 44.0442H78.4633C78.7982 45.2045 79.8028 45.7349 81.0084 45.7349ZM83.0511 42.221C82.7497 40.9282 81.7786 40.3978 80.8074 40.3978C79.5684 40.3978 78.6977 41.0608 78.4298 42.221H83.0511Z" fill="white"/>
<path d="M106.928 43.0829C106.928 45.768 104.919 47.8564 102.508 47.8564C101.168 47.8564 100.231 47.3592 99.5611 46.5304V51.2045H97.2169V38.5746H99.5611V39.6354C100.197 38.8067 101.168 38.3094 102.508 38.3094C104.919 38.3094 106.928 40.3978 106.928 43.0829ZM104.584 43.0829C104.584 41.5581 103.513 40.5304 102.073 40.5304C100.633 40.5304 99.5611 41.5581 99.5611 43.0829C99.5611 44.6078 100.633 45.6354 102.073 45.6354C103.513 45.6023 104.584 44.5746 104.584 43.0829Z" fill="white"/>
<path d="M113.124 45.7348C114.028 45.7348 114.764 45.3702 115.166 44.8398L117.042 45.9337C116.204 47.1603 114.831 47.8564 113.09 47.8564C110.043 47.8564 108.134 45.768 108.134 43.0829C108.134 40.3978 110.076 38.3094 112.923 38.3094C115.602 38.3094 117.51 40.431 117.51 43.0829C117.51 43.4144 117.477 43.7459 117.41 44.0442H110.579C110.88 45.2045 111.885 45.7348 113.124 45.7348ZM109.842 36.3868C109.842 35.7238 110.411 35.1603 111.081 35.1603C111.751 35.1603 112.286 35.7238 112.286 36.3868C112.286 37.0498 111.751 37.5802 111.081 37.5802C110.411 37.6133 109.842 37.0498 109.842 36.3868ZM115.166 42.221C114.865 40.9282 113.894 40.3978 112.923 40.3978C111.684 40.3978 110.813 41.0608 110.545 42.221H115.166ZM113.291 36.3868C113.291 35.7238 113.86 35.1603 114.53 35.1603C115.2 35.1603 115.736 35.7238 115.736 36.3868C115.736 37.0498 115.2 37.5802 114.53 37.5802C113.86 37.6133 113.291 37.0498 113.291 36.3868Z" fill="white"/>
<path d="M118.581 43.0829C118.581 40.3978 120.624 38.3094 123.37 38.3094C125.145 38.3094 126.685 39.2376 127.422 40.6299L125.413 41.7901C125.044 41.0608 124.274 40.5967 123.336 40.5967C121.93 40.5967 120.892 41.6244 120.892 43.0829C120.892 44.5083 121.93 45.536 123.336 45.536C124.274 45.536 125.044 45.0719 125.413 44.3426L127.455 45.5028C126.685 46.8951 125.145 47.8564 123.37 47.8564C120.624 47.8232 118.581 45.768 118.581 43.0829Z" fill="white"/>
<path d="M137.301 43.0829C137.301 40.3978 139.411 38.3094 142.09 38.3094C144.769 38.3094 146.912 40.3978 146.912 43.0829C146.912 45.768 144.769 47.8564 142.09 47.8564C139.411 47.8232 137.301 45.768 137.301 43.0829ZM144.568 43.0829C144.568 41.6244 143.496 40.5967 142.09 40.5967C140.717 40.5967 139.645 41.6244 139.645 43.0829C139.645 44.5415 140.717 45.5691 142.09 45.5691C143.496 45.5691 144.568 44.5415 144.568 43.0829Z" fill="white"/>
<path d="M92.9636 47.5911H95.6761L92.2269 43.0166L95.5756 38.5746H92.7961L90.1841 42.221H89.3804V38.5746H87.0363V47.5911H89.3804V44.0442H90.3515L92.9636 47.5911Z" fill="white"/>
<path d="M154.212 47.5911H156.958L153.476 43.0166L156.825 38.5746H154.045L151.433 42.221H150.629V38.5746H148.285V47.5911H150.629V44.0442H151.6L154.212 47.5911Z" fill="white"/>
<path d="M52.5769 47.5912H50.0653V37.5139H45.6114V47.5912H43.0999V35.1603H52.5769V47.5912Z" fill="white"/>
</svg>
