<svg width="180" height="90" viewBox="0 0 180 90" fill="none" xmlns="http://www.w3.org/2000/svg">
<rect width="180" height="90" fill="#EB2316"/>
<path fill-rule="evenodd" clip-rule="evenodd" d="M54.9436 53.0581V38.9666H66.3819V53.0581H63.5887V41.6566H57.7368V53.0581H54.9436ZM74.5626 44.9363H72.9781C71.6589 44.9363 70.9956 45.408 70.9956 46.3292C70.9956 47.2357 71.6367 47.6853 72.9191 47.6853C73.4866 47.6853 74.032 47.6485 74.5626 47.5526V44.9363ZM77.1495 42.7842V53.0581H74.5626V49.4983C74.0615 49.5868 73.5308 49.7121 72.8897 49.7268L70.745 53.0581H67.8412L70.3986 49.3657C69.0572 48.7982 68.3497 47.8253 68.3497 46.2997C68.3497 44.2067 69.8753 42.799 72.897 42.799C72.897 42.7842 77.1495 42.7842 77.1495 42.7842ZM94.6313 43.6539C95.4199 44.4278 95.8178 45.4817 95.8178 46.8599V53.0581H93.1573V47.3463C93.1573 45.7838 92.3244 44.951 91.101 44.951C89.7597 44.951 88.8384 45.9091 88.8384 47.42V53.0581H86.1778V47.3684C86.1778 45.8428 85.3671 44.9584 84.0995 44.9584C82.795 44.9584 81.8516 45.9165 81.8516 47.4495V53.0581H79.191V42.7842H81.8V44.2509C82.3823 43.1748 83.5909 42.4821 84.9323 42.4968C86.2147 42.4968 87.4086 43.1159 87.954 44.3025C88.7131 43.1748 90.1061 42.4968 91.639 42.4968C92.8551 42.5042 93.8574 42.88 94.6313 43.6539ZM116.668 50.0216C117.198 49.4541 117.464 48.7613 117.464 47.9285C117.464 47.0957 117.198 46.4029 116.668 45.8354C116.137 45.2679 115.459 44.9879 114.611 44.9879C113.779 44.9879 113.101 45.2679 112.57 45.8354C112.039 46.4029 111.774 47.0957 111.774 47.9285C111.774 48.754 112.039 49.4541 112.57 50.0216C113.101 50.5891 113.779 50.8692 114.611 50.8692C115.459 50.8692 116.137 50.5891 116.668 50.0216ZM118.702 44.0887C119.667 45.1279 120.139 46.4103 120.139 47.9138C120.139 49.4173 119.645 50.6997 118.687 51.7388C117.722 52.7706 116.513 53.3013 115.061 53.3013C113.801 53.3013 112.629 52.7485 111.833 51.7757V57.2811H109.172V42.7842H111.811V44.1329C112.658 43.079 113.771 42.5263 115.076 42.5263C116.535 42.5263 117.744 43.0496 118.702 44.0887ZM126.617 50.8544C127.428 50.8544 128.091 50.5744 128.637 50.0069C129.182 49.4246 129.469 48.7245 129.469 47.9138C129.469 47.1031 129.189 46.4029 128.637 45.8428C128.084 45.2827 127.428 44.9952 126.617 44.9952C125.807 44.9952 125.129 45.2753 124.576 45.8428C124.03 46.4103 123.765 47.1031 123.765 47.9138C123.765 48.7245 124.03 49.4246 124.576 50.0069C125.121 50.567 125.807 50.8471 126.617 50.8544ZM122.652 44.0887C123.691 43.0348 125.011 42.5042 126.617 42.5042C128.224 42.5042 129.543 43.0348 130.582 44.0887C131.621 45.1279 132.13 46.4103 132.13 47.9138C132.13 49.4394 131.621 50.7218 130.582 51.7609C129.543 52.7927 128.224 53.3234 126.617 53.3234C125.011 53.3234 123.691 52.7927 122.652 51.7609C121.613 50.7218 121.104 49.4467 121.104 47.9138C121.104 46.4029 121.613 45.1205 122.652 44.0887ZM139.625 42.7842H142.286V53.0581H139.625V49.6015C138.844 50.0437 138.004 50.2722 137.341 50.2722C136.117 50.2722 135.211 50.0437 134.393 49.4983C133.582 48.9161 133.132 47.8253 133.132 46.2408V42.7916H135.778V46.0492C135.778 47.2578 136.405 47.8548 137.65 47.8548C138.35 47.8548 138.947 47.759 139.633 47.4863L139.625 42.7842ZM151.086 53.0581L146.988 48.3191V53.0581H144.327V42.7695H146.988V46.8451L150.725 42.7842H154.085L149.501 47.5379L154.351 53.0507H151.086V53.0581Z" fill="white"/>
<path fill-rule="evenodd" clip-rule="evenodd" d="M161.367 45.8208C160.821 45.2385 160.136 44.9511 159.31 44.9511C158.463 44.9511 157.785 45.2312 157.232 45.8208C156.701 46.403 156.436 47.1032 156.436 47.9139C156.436 48.7393 156.701 49.4395 157.247 50.0217C157.792 50.6039 158.47 50.884 159.303 50.884C160.136 50.884 160.814 50.6039 161.359 50.0217C161.905 49.4395 162.192 48.7393 162.192 47.9139C162.192 47.1032 161.912 46.403 161.367 45.8208ZM162.155 42.7843H164.683V53.0582H162.155V51.7021C161.271 52.7707 160.173 53.3014 158.868 53.3014C157.394 53.3014 156.171 52.7928 155.205 51.7537C154.24 50.7145 153.768 49.4174 153.768 47.8697C153.768 46.3219 154.262 45.0469 155.22 44.0446C156.185 43.0275 157.409 42.519 158.861 42.519C160.143 42.519 161.278 43.1012 162.148 44.1257L162.155 42.7843ZM103.18 40.2048C103.18 39.3204 103.88 38.6571 104.787 38.6571C105.671 38.6571 106.357 39.3573 106.357 40.2048C106.357 41.1261 105.679 41.8041 104.787 41.8041C103.88 41.8115 103.18 41.1334 103.18 40.2048ZM99.9004 46.8747H105.133C104.89 45.5334 103.924 44.73 102.568 44.73C101.22 44.73 100.217 45.5407 99.9004 46.8747ZM100.674 38.6645C101.559 38.6645 102.259 39.3646 102.259 40.2122C102.259 41.1334 101.581 41.8115 100.674 41.8115C99.7677 41.8115 99.0897 41.1334 99.0897 40.2122C99.0897 39.3573 99.7825 38.6645 100.674 38.6645ZM107.624 48.8572H99.9004C100.276 50.3091 101.279 51.0461 102.9 51.0461C104.013 51.0461 105.251 50.626 106.194 49.8817L107.263 51.562C105.966 52.7781 104.485 53.2793 102.782 53.2793C100.969 53.2793 99.5909 52.7486 98.6254 51.7168C97.6599 50.6776 97.1882 49.3953 97.1882 47.9139C97.1882 46.3514 97.682 45.069 98.677 44.052C99.6793 43.0349 100.962 42.5264 102.546 42.5264C104.035 42.5264 105.281 42.9981 106.246 43.9193C107.211 44.8406 107.698 46.0861 107.698 47.6854C107.713 48.0465 107.676 48.4371 107.624 48.8572Z" fill="white"/>
<path fill-rule="evenodd" clip-rule="evenodd" d="M33.3564 28C23.7828 28 16 35.7828 16 45.3564C16 54.9301 23.7828 62.7129 33.3564 62.7129C42.9228 62.7129 50.7129 54.9301 50.7129 45.3564C50.7129 35.7828 42.9228 28 33.3564 28Z" fill="white"/>
<path fill-rule="evenodd" clip-rule="evenodd" d="M42.1117 32.9084C40.7851 36.306 37.7708 37.0136 33.4077 37.0136C32.936 37.0136 32.4717 37.0062 32.0295 36.9988C31.5947 36.9914 31.1893 36.9841 30.784 36.9841C30.4302 36.9841 30.0691 36.9914 29.7153 37.0062C30.327 35.5027 31.3073 34.4856 32.6928 33.8666C34.6311 33.0043 37.1517 32.9969 39.3701 32.9895C40.3282 32.9821 41.2568 32.9748 42.1117 32.9084Z" fill="#008F32"/>
<path fill-rule="evenodd" clip-rule="evenodd" d="M43.4681 33.9992C41.5077 38.2665 37.1447 38.6939 33.4007 38.6939C32.5826 38.6939 31.794 38.6718 31.0644 38.6718L30.121 42.3569C34.9484 38.4213 41.3308 42.32 40.6528 48.2603C40.1959 52.2622 37.3436 54.8785 34.3219 55.6303C31.0349 56.4484 27.3941 55.2249 25.7653 51.8716C25.5958 51.5178 25.2936 50.8103 25.1757 50.427L28.6396 49.5353C28.6986 49.7343 28.8018 49.9259 28.9123 50.1028C31.2339 53.8467 35.936 51.9748 36.4666 48.0907C37.0046 44.1404 31.4697 42.0399 28.9418 46.6536L25.8685 45.3417L25.8169 45.3196L27.2983 39.372C27.3867 38.9519 27.6963 37.7653 27.7479 37.5737C29.4209 31.4123 34.8452 31.3165 39.1862 31.3018C37.3879 30.5574 35.4201 30.1373 33.3491 30.1373C24.9472 30.1373 18.1373 36.9472 18.1373 45.3491C18.1373 53.7509 24.9472 60.5608 33.3491 60.5608C41.7509 60.5608 48.5608 53.7509 48.5608 45.3491C48.5608 40.8386 46.593 36.7851 43.4681 33.9992Z" fill="#EB2316"/>
</svg>
