<svg width="284" height="67" viewBox="0 0 284 67" fill="none" xmlns="http://www.w3.org/2000/svg">
<path fill-rule="evenodd" clip-rule="evenodd" d="M74.3 47.7486V20.897H96.0959V47.7486H90.7733V26.0229H79.6226V47.7486H74.3ZM111.684 32.2724H108.665C106.151 32.2724 104.887 33.1712 104.887 34.9266C104.887 36.654 106.109 37.5107 108.553 37.5107C109.634 37.5107 110.673 37.4405 111.684 37.2579V32.2724ZM116.614 28.1716V47.7486H111.684V40.9654C110.729 41.134 109.718 41.3727 108.496 41.4008L104.41 47.7486H98.8765L103.75 40.7127C101.194 39.6313 99.8456 37.7775 99.8456 34.8705C99.8456 30.8821 102.753 28.1997 108.511 28.1997C108.511 28.1716 116.614 28.1716 116.614 28.1716ZM149.925 29.8288C151.428 31.3034 152.186 33.3116 152.186 35.9378V47.7486H147.117V36.8647C147.117 33.8874 145.53 32.3005 143.199 32.3005C140.643 32.3005 138.887 34.1262 138.887 37.0051V47.7486H133.817V36.9068C133.817 33.9998 132.273 32.3145 129.857 32.3145C127.371 32.3145 125.574 34.1402 125.574 37.0613V47.7486H120.504V28.1716H125.475V30.9663C126.585 28.9159 128.888 27.5958 131.444 27.6239C133.888 27.6239 136.163 28.8036 137.202 31.0646C138.648 28.9159 141.303 27.6239 144.224 27.6239C146.541 27.638 148.451 28.3542 149.925 29.8288ZM191.916 41.9625C192.927 40.8812 193.433 39.5611 193.433 37.9741C193.433 36.3872 192.927 35.0671 191.916 33.9857C190.905 32.9044 189.613 32.3707 187.998 32.3707C186.411 32.3707 185.119 32.9044 184.108 33.9857C183.097 35.0671 182.591 36.3872 182.591 37.9741C182.591 39.547 183.097 40.8812 184.108 41.9625C185.119 43.0439 186.411 43.5776 187.998 43.5776C189.613 43.5776 190.905 43.0439 191.916 41.9625ZM195.792 30.6574C197.632 32.6375 198.531 35.0811 198.531 37.946C198.531 40.811 197.59 43.2546 195.764 45.2347C193.924 47.2008 191.621 48.212 188.855 48.212C186.453 48.212 184.22 47.1587 182.703 45.3049V55.7956H177.634V28.1716H182.661V30.7416C184.276 28.7334 186.397 27.6801 188.883 27.6801C191.663 27.6801 193.967 28.6772 195.792 30.6574ZM210.875 43.5495C212.42 43.5495 213.684 43.0158 214.723 41.9345C215.762 40.825 216.31 39.4909 216.31 37.946C216.31 36.4012 215.776 35.0671 214.723 33.9998C213.67 32.9324 212.42 32.3847 210.875 32.3847C209.33 32.3847 208.038 32.9184 206.985 33.9998C205.946 35.0811 205.44 36.4012 205.44 37.946C205.44 39.4909 205.946 40.825 206.985 41.9345C208.024 43.0018 209.33 43.5354 210.875 43.5495ZM203.32 30.6574C205.3 28.6491 207.814 27.638 210.875 27.638C213.937 27.638 216.451 28.6491 218.431 30.6574C220.411 32.6375 221.38 35.0811 221.38 37.946C221.38 40.8531 220.411 43.2967 218.431 45.2769C216.451 47.243 213.937 48.2541 210.875 48.2541C207.814 48.2541 205.3 47.243 203.32 45.2769C201.34 43.2967 200.37 40.8671 200.37 37.946C200.37 35.0671 201.34 32.6235 203.32 30.6574ZM235.662 28.1716H240.732V47.7486H235.662V41.1621C234.174 42.0047 232.573 42.44 231.309 42.44C228.978 42.44 227.25 42.0047 225.691 40.9654C224.146 39.856 223.29 37.7775 223.29 34.7581V28.1857H228.332V34.393C228.332 36.6962 229.525 37.8337 231.899 37.8337C233.233 37.8337 234.37 37.6511 235.676 37.1315L235.662 28.1716ZM257.5 47.7486L249.692 38.7184V47.7486H244.622V28.1435H249.692V35.9097L256.812 28.1716H263.216L254.481 37.2298L263.722 47.7345H257.5V47.7486Z" fill="#EB2316"/>
<path fill-rule="evenodd" clip-rule="evenodd" d="M277.091 33.9579C276.052 32.8484 274.746 32.3007 273.173 32.3007C271.558 32.3007 270.266 32.8344 269.213 33.9579C268.201 35.0673 267.696 36.4015 267.696 37.9463C267.696 39.5192 268.201 40.8533 269.241 41.9628C270.28 43.0722 271.572 43.6059 273.159 43.6059C274.746 43.6059 276.038 43.0722 277.077 41.9628C278.116 40.8533 278.664 39.5192 278.664 37.9463C278.664 36.4015 278.13 35.0673 277.091 33.9579ZM278.594 28.1719H283.411V47.7488H278.594V45.1647C276.909 47.2011 274.816 48.2122 272.33 48.2122C269.522 48.2122 267.19 47.2432 265.351 45.263C263.511 43.2829 262.612 40.8112 262.612 37.862C262.612 34.9128 263.553 32.4833 265.379 30.5733C267.218 28.6353 269.55 27.6663 272.316 27.6663C274.76 27.6663 276.923 28.7757 278.58 30.7278L278.594 28.1719ZM166.216 23.2566C166.216 21.5713 167.55 20.3074 169.278 20.3074C170.963 20.3074 172.269 21.6415 172.269 23.2566C172.269 25.012 170.977 26.304 169.278 26.304C167.55 26.3181 166.216 25.0261 166.216 23.2566ZM159.967 35.9661H169.938C169.474 33.4102 167.634 31.8794 165.05 31.8794C162.48 31.8794 160.57 33.4242 159.967 35.9661ZM161.441 20.3214C163.126 20.3214 164.461 21.6556 164.461 23.2706C164.461 25.0261 163.169 26.3181 161.441 26.3181C159.714 26.3181 158.422 25.0261 158.422 23.2706C158.422 21.6415 159.742 20.3214 161.441 20.3214ZM174.684 39.7439H159.967C160.683 42.5105 162.593 43.9149 165.682 43.9149C167.803 43.9149 170.162 43.1144 171.96 41.6959L173.996 44.8979C171.525 47.2151 168.702 48.1701 165.458 48.1701C162.003 48.1701 159.377 47.159 157.537 45.1928C155.697 43.2127 154.798 40.7691 154.798 37.9463C154.798 34.969 155.739 32.5254 157.635 30.5874C159.545 28.6493 161.989 27.6803 165.008 27.6803C167.845 27.6803 170.218 28.5791 172.058 30.3346C173.898 32.09 174.825 34.4634 174.825 37.5109C174.853 38.1991 174.783 38.9434 174.684 39.7439Z" fill="#EB2316"/>
<path fill-rule="evenodd" clip-rule="evenodd" d="M33.1657 0C14.9229 0 0.0927734 14.8302 0.0927734 33.0729C0.0927734 51.3157 14.9229 66.1459 33.1657 66.1459C51.3945 66.1459 66.2387 51.3157 66.2387 33.0729C66.2387 14.8302 51.3945 0 33.1657 0Z" fill="white"/>
<path fill-rule="evenodd" clip-rule="evenodd" d="M49.8491 9.35315C47.3212 15.8273 41.5773 17.1755 33.2634 17.1755C32.3646 17.1755 31.4799 17.1615 30.6373 17.1474C29.8087 17.1334 29.0363 17.1193 28.2639 17.1193C27.5898 17.1193 26.9016 17.1334 26.2275 17.1615C27.3932 14.2965 29.261 12.3585 31.9012 11.1788C35.5947 9.53572 40.3976 9.52167 44.6248 9.50763C46.4505 9.49359 48.22 9.47954 49.8491 9.35315Z" fill="#008F32"/>
<path fill-rule="evenodd" clip-rule="evenodd" d="M52.4339 11.4317C48.6983 19.563 40.3844 20.3775 33.2502 20.3775C31.6913 20.3775 30.1887 20.3354 28.7983 20.3354L27.0007 27.3572C36.1994 19.8579 48.3612 27.287 47.0692 38.6062C46.1985 46.232 40.7636 51.2175 35.0056 52.65C28.7421 54.2088 21.8046 51.8776 18.7009 45.4877C18.3779 44.8136 17.8021 43.4654 17.5774 42.7351L24.1779 41.0358C24.2903 41.415 24.4869 41.7801 24.6976 42.1172C29.1213 49.2514 38.0812 45.6843 39.0924 38.2832C40.1176 30.7558 29.5707 26.7533 24.7537 35.5447L18.8975 33.0449L18.7992 33.0028L21.622 21.6695C21.7905 20.869 22.3803 18.608 22.4786 18.2429C25.6666 6.50232 36.0027 6.31975 44.2745 6.29166C40.8478 4.87325 37.0982 4.07275 33.1519 4.07275C17.142 4.07275 4.16565 17.0491 4.16565 33.059C4.16565 49.0688 17.142 62.0452 33.1519 62.0452C49.1617 62.0452 62.1381 49.0688 62.1381 33.059C62.1381 24.4642 58.3884 16.7402 52.4339 11.4317Z" fill="#EB2316"/>
</svg>
