<svg width="115" height="27" viewBox="0 0 115 27" fill="none" xmlns="http://www.w3.org/2000/svg">
<path fill-rule="evenodd" clip-rule="evenodd" d="M29.9686 19.2832V8.43921H38.7708V19.2832H36.6213V10.5093H32.1181V19.2832H29.9686ZM45.0662 13.0331H43.8468C42.8316 13.0331 42.3212 13.3961 42.3212 14.1051C42.3212 14.8027 42.8146 15.1486 43.8015 15.1486C44.2382 15.1486 44.6579 15.1203 45.0662 15.0465V13.0331ZM47.0569 11.3771V19.2832H45.0662V16.5438C44.6806 16.6119 44.2722 16.7083 43.7788 16.7196L42.1284 19.2832H39.8938L41.8618 16.4417C40.8296 16.005 40.2851 15.2564 40.2851 14.0824C40.2851 12.4717 41.4591 11.3884 43.7845 11.3884C43.7845 11.3771 47.0569 11.3771 47.0569 11.3771ZM60.5098 12.0463C61.1166 12.6418 61.4229 13.4528 61.4229 14.5134V19.2832H59.3755V14.8877C59.3755 13.6854 58.7346 13.0445 57.7931 13.0445C56.7609 13.0445 56.052 13.7818 56.052 14.9444V19.2832H54.0046V14.9047C54.0046 13.7307 53.3807 13.0502 52.4052 13.0502C51.4013 13.0502 50.6754 13.7875 50.6754 14.9671V19.2832H48.6279V11.3771H50.6357V12.5057C51.0837 11.6776 52.0138 11.1445 53.0461 11.1559C54.0329 11.1559 54.9517 11.6323 55.3714 12.5454C55.9556 11.6777 57.0275 11.1559 58.2071 11.1559C59.143 11.1615 59.9143 11.4508 60.5098 12.0463ZM77.4677 16.9465C77.876 16.5098 78.0802 15.9767 78.0802 15.3358C78.0802 14.6949 77.876 14.1618 77.4677 13.7251C77.0593 13.2884 76.5375 13.0728 75.8853 13.0728C75.2444 13.0728 74.7226 13.2884 74.3143 13.7251C73.9059 14.1618 73.7018 14.6949 73.7018 15.3358C73.7018 15.971 73.9059 16.5098 74.3143 16.9465C74.7226 17.3832 75.2444 17.5987 75.8853 17.5987C76.5375 17.5987 77.0593 17.3832 77.4677 16.9465ZM79.033 12.3809C79.776 13.1806 80.1389 14.1674 80.1389 15.3244C80.1389 16.4814 79.7589 17.4683 79.0217 18.268C78.2787 19.062 77.3486 19.4703 76.2313 19.4703C75.2614 19.4703 74.3597 19.045 73.7471 18.2963V22.5329H71.6997V11.3771H73.7301V12.4149C74.3823 11.6039 75.2387 11.1786 76.2426 11.1786C77.3656 11.1786 78.2957 11.5812 79.033 12.3809ZM85.1242 17.5874C85.7481 17.5874 86.2585 17.3719 86.6782 16.9352C87.0979 16.4871 87.3191 15.9483 87.3191 15.3244C87.3191 14.7006 87.1036 14.1618 86.6782 13.7307C86.2528 13.2997 85.7481 13.0785 85.1242 13.0785C84.5003 13.0785 83.9786 13.294 83.5532 13.7307C83.1335 14.1674 82.9293 14.7006 82.9293 15.3244C82.9293 15.9483 83.1335 16.4871 83.5532 16.9352C83.9729 17.3662 84.5003 17.5817 85.1242 17.5874ZM82.0729 12.3809C82.8726 11.5699 83.8878 11.1615 85.1242 11.1615C86.3606 11.1615 87.3758 11.5699 88.1755 12.3809C88.9752 13.1806 89.3665 14.1674 89.3665 15.3244C89.3665 16.4984 88.9752 17.4853 88.1755 18.285C87.3758 19.079 86.3606 19.4873 85.1242 19.4873C83.8878 19.4873 82.8726 19.079 82.0729 18.285C81.2733 17.4853 80.8819 16.5041 80.8819 15.3244C80.8819 14.1618 81.2733 13.1749 82.0729 12.3809ZM95.1345 11.3771H97.1819V19.2832H95.1345V16.6232C94.5333 16.9635 93.8867 17.1393 93.3763 17.1393C92.4348 17.1393 91.7372 16.9635 91.1077 16.5438C90.4838 16.0958 90.1378 15.2564 90.1378 14.037V11.3827H92.1739V13.8895C92.1739 14.8197 92.656 15.2791 93.6145 15.2791C94.1533 15.2791 94.6127 15.2053 95.1401 14.9955L95.1345 11.3771ZM103.954 19.2832L100.8 15.6364V19.2832H98.7529V11.3657H100.8V14.5021L103.676 11.3771H106.262L102.734 15.0352L106.466 19.2775H103.954V19.2832Z" fill="#EB2316"/>
<path fill-rule="evenodd" clip-rule="evenodd" d="M111.865 13.7136C111.445 13.2656 110.918 13.0444 110.283 13.0444C109.63 13.0444 109.109 13.2599 108.683 13.7136C108.275 14.1617 108.071 14.7005 108.071 15.3244C108.071 15.9596 108.275 16.4984 108.695 16.9464C109.114 17.3945 109.636 17.61 110.277 17.61C110.918 17.61 111.44 17.3945 111.859 16.9464C112.279 16.4984 112.5 15.9596 112.5 15.3244C112.5 14.7005 112.285 14.1617 111.865 13.7136ZM112.472 11.377H114.417V19.2831H112.472V18.2395C111.791 19.0619 110.946 19.4702 109.942 19.4702C108.808 19.4702 107.867 19.0789 107.124 18.2792C106.381 17.4795 106.018 16.4814 106.018 15.2903C106.018 14.0993 106.398 13.1181 107.135 12.3468C107.878 11.5641 108.819 11.1728 109.937 11.1728C110.924 11.1728 111.797 11.6209 112.466 12.4092L112.472 11.377ZM67.0884 9.39195C67.0884 8.71136 67.6272 8.20093 68.3248 8.20093C69.0053 8.20093 69.5328 8.73972 69.5328 9.39195C69.5328 10.1009 69.011 10.6227 68.3248 10.6227C67.6272 10.6283 67.0884 10.1066 67.0884 9.39195ZM64.5645 14.5247H68.5913C68.4042 13.4925 67.6612 12.8743 66.6176 12.8743C65.5797 12.8743 64.8084 13.4981 64.5645 14.5247ZM65.16 8.2066C65.8406 8.2066 66.3794 8.74539 66.3794 9.39762C66.3794 10.1066 65.8576 10.6283 65.16 10.6283C64.4624 10.6283 63.9407 10.1066 63.9407 9.39762C63.9407 8.73972 64.4738 8.2066 65.16 8.2066ZM70.5083 16.0503H64.5645C64.8538 17.1676 65.6251 17.7348 66.8728 17.7348C67.7292 17.7348 68.6821 17.4115 69.408 16.8387L70.2304 18.1318C69.2322 19.0676 68.0922 19.4532 66.7821 19.4532C65.3869 19.4532 64.3263 19.0449 63.5834 18.2509C62.8404 17.4512 62.4774 16.4643 62.4774 15.3244C62.4774 14.122 62.8574 13.1352 63.6231 12.3525C64.3944 11.5698 65.3812 11.1785 66.6006 11.1785C67.7463 11.1785 68.7047 11.5415 69.4477 12.2504C70.1907 12.9593 70.565 13.9178 70.565 15.1485C70.5764 15.4264 70.548 15.727 70.5083 16.0503Z" fill="#EB2316"/>
<path fill-rule="evenodd" clip-rule="evenodd" d="M13.3564 0C5.98913 0 0 5.98913 0 13.3564C0 20.7238 5.98913 26.7129 13.3564 26.7129C20.7181 26.7129 26.7129 20.7238 26.7129 13.3564C26.7129 5.98913 20.7181 0 13.3564 0Z" fill="white"/>
<path fill-rule="evenodd" clip-rule="evenodd" d="M20.0939 3.77734C19.0731 6.39192 16.7534 6.93638 13.3959 6.93638C13.0329 6.93638 12.6756 6.93071 12.3353 6.92504C12.0007 6.91937 11.6887 6.9137 11.3768 6.9137C11.1046 6.9137 10.8267 6.91937 10.5544 6.93071C11.0252 5.77372 11.7795 4.99105 12.8457 4.51464C14.3374 3.85107 16.277 3.8454 17.9841 3.83973C18.7214 3.83406 19.4361 3.82839 20.0939 3.77734Z" fill="#008F32"/>
<path fill-rule="evenodd" clip-rule="evenodd" d="M21.1378 4.61665C19.6292 7.90047 16.2716 8.22942 13.3905 8.22942C12.761 8.22942 12.1541 8.2124 11.5926 8.2124L10.8667 11.0482C14.5815 8.01957 19.4931 11.0198 18.9713 15.5911C18.6196 18.6707 16.4248 20.6841 14.0994 21.2626C11.5699 21.8921 8.76821 20.9506 7.5148 18.3701C7.38436 18.0979 7.15182 17.5534 7.06108 17.2585L9.7267 16.5722C9.77207 16.7254 9.85147 16.8728 9.93654 17.0089C11.7231 19.8901 15.3415 18.4495 15.7499 15.4606C16.1639 12.4207 11.9046 10.8043 9.95923 14.3547L7.5942 13.3451L7.5545 13.3281L8.69448 8.7512C8.76254 8.42792 9.00074 7.5148 9.04044 7.36734C10.3279 2.62595 14.5021 2.55222 17.8426 2.54088C16.4588 1.96805 14.9445 1.64478 13.3508 1.64478C6.88526 1.64478 1.64478 6.88526 1.64478 13.3508C1.64478 19.8163 6.88526 25.0568 13.3508 25.0568C19.8163 25.0568 25.0568 19.8163 25.0568 13.3508C25.0568 9.87983 23.5425 6.76049 21.1378 4.61665Z" fill="#EB2316"/>
</svg>
