<svg width="173" height="206" viewBox="0 0 173 206" fill="none" xmlns="http://www.w3.org/2000/svg">
<path fill-rule="evenodd" clip-rule="evenodd" d="M171.143 160.97C173.565 135.261 171.143 2.51171 171.143 2.51171C154.875 -19.8354 49.5416 -1.85486 1.8867 -5.68747C1.8867 -5.68747 -1.9342 160.164 1.88655 169.238C8.60459 185.183 92.6651 171.096 117.448 174.109C138.365 176.65 169.152 182.093 171.143 160.97Z" fill="white"/>
<path fill-rule="evenodd" clip-rule="evenodd" d="M13.5277 187.331C6.34741 192.197 9.76346 177.978 5.06363 165.789C0.363794 153.599 -0.223661 140.275 12.7574 141.938C25.7386 143.601 41.3611 150.274 59.6948 146.555C78.0285 142.837 91.4013 134.889 104.326 140.397C117.25 145.905 158.383 136.43 168.191 145.015C178 153.599 166.068 167.229 163.574 183.486C161.081 199.743 158.365 198.766 153.574 189.64C148.783 180.514 136.807 179.689 133.565 192.097C130.323 204.505 123.887 210.663 120.51 200.158C116.014 186.166 115.849 200.167 112.677 199.285C106.445 197.552 109.291 189.954 105.279 184.446C98.1203 174.618 92.1324 191.992 75.857 185.943C59.5817 179.894 53.6417 174.915 40.4604 178.101C27.2791 181.287 30.5515 190.312 24.2982 196.566C18.0448 202.82 18.5757 183.91 13.5277 187.331Z" fill="white"/>
</svg>
