<svg width="150" height="50" viewBox="0 0 150 50" fill="none" xmlns="http://www.w3.org/2000/svg">
<rect width="150" height="50" rx="5" fill="white"/>
<path d="M108.047 29.5492V30.9724H109.852V35.3093H111.331V30.9836H113.135V29.5604H108.047V29.5492ZM45.6839 33.9981C44.7986 33.9981 44.1374 33.337 44.1374 32.4292C44.1374 31.5103 44.7986 30.8491 45.6839 30.8491C46.2667 30.8491 46.7709 31.1517 46.9951 31.6224L48.2726 30.8715C47.8019 29.9862 46.827 29.3811 45.6951 29.3811C43.9469 29.3811 42.6582 30.7035 42.6582 32.418C42.6582 34.1326 43.9469 35.455 45.6951 35.455C46.827 35.455 47.8019 34.861 48.295 33.9645L47.0063 33.2249C46.7821 33.7068 46.2779 33.9981 45.6839 33.9981ZM51.6009 33.4154L50.0544 29.5492H48.4743L50.794 35.2308C50.5139 35.9592 50.0992 36.2282 49.326 36.217V37.5954C50.7044 37.6738 51.769 36.9454 52.3629 35.2981L54.4585 29.538H52.8672L51.6009 33.4154ZM55.1645 35.3093H56.6438V30.9388H58.9298V35.3093H60.4315V29.5492H55.1645V35.3093ZM64.2977 29.3923C62.4935 29.3923 61.2608 30.7147 61.2608 32.4292C61.2608 34.1438 62.4823 35.4662 64.4098 35.4662C65.5192 35.4662 66.3821 35.0179 66.92 34.2335L65.7209 33.5387C65.4632 33.8749 65.0037 34.1102 64.4322 34.1102C63.6477 34.1102 63.0202 33.7852 62.8073 33.0232H67.1553C67.1889 32.8215 67.2114 32.6309 67.2114 32.418C67.2114 30.7371 66.0011 29.3923 64.2977 29.3923ZM62.7848 31.8913C62.9529 31.1517 63.502 30.7259 64.2977 30.7259C64.914 30.7259 65.5416 31.0621 65.7209 31.8913H62.7848ZM71.3577 29.3923C70.5172 29.3923 69.9121 29.7061 69.4975 30.2328V29.5492H68.0182V37.6066H69.4975V34.6257C69.9121 35.1524 70.5284 35.4662 71.3577 35.4662C72.9042 35.4662 74.1705 34.1438 74.1705 32.4292C74.1705 30.7147 72.9042 29.3923 71.3577 29.3923ZM71.0888 34.0542C70.181 34.0542 69.4975 33.393 69.4975 32.4292C69.4975 31.4655 70.181 30.8043 71.0888 30.8043C72.0077 30.8043 72.6913 31.4655 72.6913 32.4292C72.6913 33.393 72.0077 34.0542 71.0888 34.0542ZM77.9807 31.9698L76.4454 29.5492H74.9886V35.3093H76.4118V31.9249L77.8798 34.2447H78.0703L79.5272 31.9474V35.3093H80.9616V29.5492H79.5047L77.9807 31.9698ZM86.4751 30.2328C86.0605 29.7173 85.4441 29.3923 84.6036 29.3923C83.0684 29.3923 81.802 30.7147 81.802 32.4292C81.802 34.1438 83.0684 35.4662 84.6036 35.4662C85.4441 35.4662 86.0605 35.1412 86.4751 34.6257V35.3093H87.9655V29.5492H86.4751V30.2328ZM84.8726 34.0542C83.9649 34.0542 83.2813 33.393 83.2813 32.4292C83.2813 31.4655 83.9649 30.8043 84.8726 30.8043C85.7915 30.8043 86.4751 31.4655 86.4751 32.4292C86.4751 33.393 85.7915 34.0542 84.8726 34.0542ZM92.4257 29.3923C91.5852 29.3923 90.9801 29.7061 90.5654 30.2328V29.5492H89.0862V37.6066H90.5654V34.6257C90.9801 35.1524 91.5964 35.4662 92.4257 35.4662C93.9722 35.4662 95.2385 34.1438 95.2385 32.4292C95.2385 30.7147 93.9722 29.3923 92.4257 29.3923ZM92.1455 34.0542C91.2378 34.0542 90.5542 33.393 90.5542 32.4292C90.5542 31.4655 91.2378 30.8043 92.1455 30.8043C93.0644 30.8043 93.748 31.4655 93.748 32.4292C93.748 33.393 93.0644 34.0542 92.1455 34.0542ZM104.663 29.3923C102.859 29.3923 101.626 30.7147 101.626 32.4292C101.626 34.1438 102.848 35.4662 104.775 35.4662C105.885 35.4662 106.747 35.0179 107.285 34.2335L106.086 33.5387C105.828 33.8749 105.369 34.1102 104.798 34.1102C104.013 34.1102 103.386 33.7852 103.173 33.0232H107.509C107.543 32.8215 107.565 32.6309 107.565 32.418C107.577 30.7371 106.366 29.3923 104.663 29.3923ZM103.161 31.8913C103.329 31.1517 103.879 30.7259 104.674 30.7259C105.291 30.7259 105.918 31.0621 106.097 31.8913H103.161ZM101.48 29.5492H99.7098L98.0513 31.8801H97.547V29.5492H96.0677V35.3093H97.547V33.0456H98.1633L99.8219 35.3093H101.548L99.34 32.3956L101.48 29.5492Z" fill="#62BB46"/>
<path d="M115.713 17.7601H118.144V23.5762H120.139V17.7601H122.571V15.8438H115.724V17.7601H115.713ZM56.3636 15.6309C53.9318 15.6309 52.2845 17.4127 52.2845 19.71C52.2845 22.0185 53.9206 23.7891 56.5205 23.7891C58.0109 23.7891 59.1652 23.1839 59.8936 22.1305L58.2799 21.2004C57.9437 21.6487 57.3161 21.9737 56.5429 21.9737C55.4895 21.9737 54.6378 21.5366 54.3576 20.5168H60.1849C60.2298 20.2591 60.2634 19.9901 60.2634 19.6988C60.2746 17.4351 58.6497 15.6309 56.3636 15.6309ZM54.3352 18.9816C54.5706 17.9954 55.299 17.4239 56.3636 17.4239C57.2041 17.4239 58.0333 17.8721 58.2799 18.9816H54.3352ZM66.1692 15.6309C65.0373 15.6309 64.2192 16.0455 63.6589 16.7627V15.855H61.6642V26.6803H63.6589V22.6685C64.2192 23.3857 65.0373 23.8003 66.1692 23.8003C68.2423 23.8003 69.9457 22.0185 69.9457 19.7212C69.9457 17.4015 68.2423 15.6309 66.1692 15.6309ZM65.7993 21.8952C64.5778 21.8952 63.6701 21.0099 63.6701 19.71C63.6701 18.41 64.5778 17.5247 65.7993 17.5247C67.032 17.5247 67.951 18.41 67.951 19.71C67.951 21.0099 67.032 21.8952 65.7993 21.8952ZM75.0334 15.6309C72.6016 15.6309 70.9543 17.4127 70.9543 19.71C70.9543 22.0185 72.5904 23.7891 75.1903 23.7891C76.6807 23.7891 77.835 23.1839 78.5634 22.1305L76.9497 21.2004C76.6135 21.6487 75.9859 21.9737 75.2127 21.9737C74.1593 21.9737 73.3076 21.5366 73.0275 20.5168H78.8548C78.8996 20.2591 78.9332 19.9901 78.9332 19.6988C78.9444 17.4351 77.3195 15.6309 75.0334 15.6309ZM73.005 18.9816C73.2404 17.9954 73.9688 17.4239 75.0334 17.4239C75.8739 17.4239 76.7031 17.8721 76.9497 18.9816H73.005ZM93.5351 15.6309C92.4033 15.6309 91.5852 16.0455 91.0249 16.7627V15.855H89.0302V26.6803H91.0249V22.6685C91.5852 23.3857 92.4033 23.8003 93.5351 23.8003C95.6083 23.8003 97.3117 22.0185 97.3117 19.7212C97.3117 17.4015 95.6083 15.6309 93.5351 15.6309ZM93.1653 21.8952C91.9438 21.8952 91.0361 21.0099 91.0361 19.71C91.0361 18.41 91.9438 17.5247 93.1653 17.5247C94.398 17.5247 95.3169 18.41 95.3169 19.71C95.3169 21.0099 94.398 21.8952 93.1653 21.8952ZM100.842 15.0257C101.413 15.0257 101.873 14.5662 101.873 13.9835C101.873 13.412 101.413 12.9301 100.842 12.9301C100.27 12.9301 99.7883 13.412 99.7883 13.9835C99.7883 14.555 100.27 15.0257 100.842 15.0257ZM103.778 15.0257C104.349 15.0257 104.82 14.5662 104.82 13.9835C104.82 13.412 104.36 12.9301 103.778 12.9301C103.206 12.9301 102.724 13.412 102.724 13.9835C102.724 14.555 103.206 15.0257 103.778 15.0257ZM102.399 15.6309C99.9676 15.6309 98.3202 17.4127 98.3202 19.71C98.3202 22.0185 99.9564 23.7891 102.556 23.7891C104.047 23.7891 105.201 23.1839 105.929 22.1305L104.316 21.2004C103.979 21.6487 103.352 21.9737 102.579 21.9737C101.525 21.9737 100.674 21.5366 100.393 20.5168H106.221C106.266 20.2591 106.299 19.9901 106.299 19.6988C106.31 17.4351 104.697 15.6309 102.399 15.6309ZM100.371 18.9816C100.606 17.9954 101.335 17.4239 102.399 17.4239C103.24 17.4239 104.069 17.8721 104.316 18.9816H100.371ZM111.32 21.8168C110.132 21.8168 109.246 20.9315 109.246 19.71C109.246 18.4773 110.132 17.592 111.32 17.592C112.104 17.592 112.776 17.9954 113.079 18.623L114.794 17.6144C114.155 16.4265 112.844 15.6196 111.331 15.6196C108.978 15.6196 107.252 17.4015 107.252 19.6988C107.252 22.0073 108.989 23.7779 111.331 23.7779C112.844 23.7779 114.166 22.971 114.827 21.7719L113.09 20.7858C112.788 21.4245 112.115 21.8168 111.32 21.8168ZM127.3 15.6309C125.025 15.6309 123.221 17.4127 123.221 19.71C123.221 22.0185 125.025 23.7891 127.3 23.7891C129.575 23.7891 131.401 22.0073 131.401 19.71C131.401 17.4015 129.575 15.6309 127.3 15.6309ZM127.3 21.8504C126.123 21.8504 125.216 20.9651 125.216 19.71C125.216 18.4549 126.123 17.5808 127.3 17.5808C128.488 17.5808 129.407 18.4661 129.407 19.71C129.396 20.9651 128.488 21.8504 127.3 21.8504ZM87.6294 15.8438H85.2424L83.0123 18.9816H82.3288V15.8438H80.334V23.5762H82.3288V20.528H83.1692L85.3993 23.5762H87.719L84.7605 19.6651L87.6294 15.8438ZM137.005 19.6651L139.873 15.8438H137.487L135.256 18.9816H134.573V15.8438H132.578V23.5762H134.573V20.528H135.413L137.643 23.5762H139.963L137.005 19.6651ZM42.8711 23.5762H45.0003V14.9361H48.8217V23.5874H50.9621V12.9413H42.8711V23.5762Z" fill="#0C592E"/>
<path d="M27.4179 20.2143L24.0111 23.621L20.6044 20.2143C18.7217 18.3316 18.7217 15.2835 20.6044 13.412C22.4871 11.5293 25.5352 11.5293 27.4179 13.412C29.3005 15.2947 29.3005 18.3428 27.4179 20.2143Z" fill="#62BB46"/>
<path d="M20.6034 29.7845L24.0101 26.3778L27.4168 29.7845C29.2995 31.6672 29.2995 34.7154 27.4168 36.598C25.5342 38.4807 22.486 38.4807 20.6146 36.598C18.7319 34.7154 18.7319 31.6672 20.6034 29.7845Z" fill="#0C592E"/>
<path d="M28.7954 28.4061L25.3887 24.9994L28.7954 21.5927C30.6781 19.71 33.7262 19.71 35.6089 21.5927C37.4916 23.4753 37.4916 26.5235 35.6089 28.4061C33.7262 30.2888 30.6781 30.2888 28.7954 28.4061Z" fill="#1B8F45"/>
<path d="M19.2255 21.5926L22.6322 24.9994L19.2255 28.4061C17.3428 30.2888 14.2947 30.2888 12.412 28.4061C10.5293 26.5234 10.5293 23.4753 12.412 21.5926C14.3059 19.7212 17.354 19.7212 19.2255 21.5926Z" fill="#A1D078"/>
</svg>
