<svg width="150" height="50" viewBox="0 0 150 50" fill="none" xmlns="http://www.w3.org/2000/svg">
<rect width="150" height="50" rx="5" fill="white"/>
<path fill-rule="evenodd" clip-rule="evenodd" d="M32.9338 13.0636C30.4683 12.8039 27.9829 13.3142 25.8192 14.5243C23.6554 15.7345 21.9196 17.5851 20.8503 19.8218C19.781 22.0585 19.4308 24.5715 19.8476 27.0154C20.2645 29.4592 21.4281 31.714 23.1784 33.4697C24.9287 35.2254 27.1798 36.396 29.6224 36.8204C32.0649 37.2448 34.579 36.9023 36.819 35.8399C39.059 34.7776 40.915 33.0475 42.1318 30.8875C43.3487 28.7275 43.8666 26.2437 43.6146 23.7774C43.3372 21.0359 42.1236 18.4738 40.1782 16.5224C38.2328 14.571 35.6744 13.3495 32.9338 13.0636ZM32.545 31.348C31.219 31.5259 29.8705 31.2838 28.6892 30.6557C27.5079 30.0277 26.553 29.0452 25.9589 27.8465C25.3647 26.6478 25.1611 25.293 25.3767 23.9726C25.5923 22.6521 26.2162 21.4325 27.1608 20.4849C28.1053 19.5374 29.323 18.9097 30.6428 18.69C31.9625 18.4703 33.3179 18.6696 34.5185 19.26C35.7191 19.8504 36.7045 20.8022 37.3363 21.9816C37.968 23.1609 38.2143 24.5086 38.0406 25.8352C37.8582 27.2305 37.221 28.5268 36.2275 29.5234C35.2341 30.52 33.9397 31.1613 32.545 31.348ZM50.0329 13.5383C49.6167 13.5393 49.2059 13.6331 48.8305 13.8128C48.4551 13.9925 48.1245 14.2537 47.8627 14.5773C47.601 14.9008 47.4146 15.2787 47.3173 15.6834C47.22 16.088 47.2141 16.5093 47.3 16.9165C47.5633 18.2358 48.7956 19.1372 50.138 19.1372H57.9282L45.8049 35.1807C45.7152 35.2992 45.6603 35.4402 45.6464 35.5881C45.6324 35.736 45.6599 35.8849 45.7257 36.018C45.7916 36.1512 45.8933 36.2633 46.0193 36.342C46.1454 36.4206 46.2908 36.4625 46.4394 36.4631H65.4559C66.7974 36.4631 68.0306 35.5619 68.2939 34.2424C68.3799 33.8352 68.374 33.414 68.2767 33.0094C68.1795 32.6048 67.9933 32.2269 67.7316 31.9033C67.47 31.5797 67.1395 31.3185 66.7642 31.1387C66.389 30.9588 65.9783 30.8649 65.5622 30.8637H56.0705L68.1844 14.8327C68.275 14.7131 68.3304 14.5706 68.3445 14.4213C68.3586 14.272 68.3308 14.1217 68.2642 13.9873C68.1976 13.8528 68.0949 13.7396 67.9676 13.6603C67.8403 13.581 67.6934 13.5388 67.5434 13.5383H50.0329ZM126.022 13.6029C125.392 13.7526 124.832 14.1127 124.435 14.6236C124.038 15.1346 123.827 15.7657 123.837 16.4128V25.7348L108.732 13.7144C108.614 13.6204 108.471 13.5617 108.321 13.5451C108.171 13.5285 108.019 13.5547 107.883 13.6207C107.746 13.6866 107.632 13.7897 107.552 13.9179C107.471 14.0462 107.429 14.1945 107.43 14.3457V33.5936C107.419 34.2407 107.63 34.8719 108.027 35.3828C108.425 35.8937 108.984 36.2538 109.614 36.4035C110.023 36.4934 110.446 36.4905 110.854 36.3948C111.261 36.2991 111.642 36.1131 111.968 35.8506C112.294 35.5881 112.557 35.2558 112.738 34.8781C112.918 34.5004 113.012 34.087 113.011 33.6684V24.2657L128.117 36.2863C128.235 36.3803 128.378 36.4389 128.528 36.4555C128.678 36.4721 128.83 36.4459 128.966 36.3799C129.102 36.314 129.217 36.211 129.297 36.0828C129.377 35.9546 129.419 35.8064 129.419 35.6552V16.3371C129.419 15.9186 129.326 15.5053 129.145 15.1278C128.965 14.7502 128.702 14.418 128.376 14.1556C128.05 13.8932 127.669 13.7073 127.262 13.6116C126.854 13.516 126.43 13.513 126.022 13.6029ZM86.692 18.6013C93.0811 18.6013 97.8549 21.9777 97.8549 24.9979C97.8549 28.018 93.0811 31.3944 86.692 31.3944C80.3029 31.3944 75.5291 28.018 75.5291 24.9979C75.5291 21.9777 80.3029 18.6013 86.692 18.6013ZM86.692 13.0026C77.4441 13.0026 69.9474 18.3731 69.9474 24.9979C69.9474 31.6226 77.4441 36.9931 86.692 36.9931C95.9399 36.9931 103.436 31.6226 103.436 24.9979C103.436 18.3731 95.9397 13.0026 86.692 13.0026Z" fill="#0069FF"/>
</svg>
