<svg width="14" height="20" viewBox="0 0 14 20" fill="none" xmlns="http://www.w3.org/2000/svg">
<path d="M6.58883 16.1036L6.58722 16.1031L6.58087 16.101L6.57062 16.0975L6.56098 16.0926C6.55882 16.0915 6.5573 16.0908 6.55587 16.0903L6.54648 16.0869L6.54646 16.0869L6.58883 16.1036ZM6.58883 16.1036L6.59599 16.1085L6.61527 16.1151L6.61694 16.1156C6.62595 16.1187 6.64584 16.1256 6.67223 16.1286L6.6749 16.1294C6.68075 16.1311 6.68906 16.1335 6.69874 16.136C6.70787 16.1383 6.71597 16.1398 6.72211 16.1408L6.73352 16.1425L6.74885 16.1477H6.76618C6.76893 16.1481 6.77327 16.1489 6.77791 16.1494C6.78296 16.1501 6.78965 16.1508 6.79747 16.1511C6.85041 16.1548 6.90337 16.1548 6.95631 16.1511C6.96413 16.1508 6.97082 16.1501 6.97587 16.1494C6.98051 16.1489 6.98485 16.1481 6.9876 16.1477H6.99893L7.01506 16.1436C7.01591 16.1434 7.01762 16.1432 7.02054 16.1428C7.02369 16.1424 7.03007 16.1415 7.03699 16.1402C7.04256 16.1392 7.05027 16.1376 7.05911 16.1349C7.06672 16.1329 7.07331 16.131 7.07825 16.1295L7.07887 16.1294L7.09289 16.1254L7.093 16.1259L7.10124 16.1231H7.11499L7.13851 16.1151L7.14436 16.1132C7.14768 16.1121 7.15294 16.1104 7.15877 16.1083C7.16545 16.1058 7.17536 16.102 7.18668 16.0962C7.19562 16.0929 7.20662 16.0885 7.21926 16.0825C7.22358 16.0807 7.2273 16.079 7.2303 16.0776C7.23531 16.0753 7.23993 16.0729 7.24226 16.0717L7.24267 16.0715C7.24292 16.0714 7.24314 16.0712 7.24335 16.0711L7.25753 16.0663L7.268 16.0592C7.2708 16.058 7.27639 16.0555 7.28224 16.0526C7.28828 16.0496 7.29662 16.0453 7.30583 16.0392C7.30636 16.0389 7.30708 16.0386 7.30802 16.0381L7.30891 16.0376C7.31389 16.0351 7.32647 16.0287 7.33971 16.0197L7.35519 16.0091L7.37066 15.9986L7.28619 15.8746L7.37066 15.9986L7.37217 15.9976C7.38079 15.9917 7.39659 15.981 7.41367 15.9653C7.41921 15.9611 7.42349 15.9575 7.42586 15.9556C7.42756 15.9542 7.42859 15.9534 7.42916 15.9529L7.42946 15.9534L7.43962 15.9451C7.45793 15.9301 7.48376 15.9083 7.50692 15.8846L12.6422 10.6358C12.985 10.2853 12.9841 9.718 12.6428 9.3649C12.2972 9.0074 11.736 9.01374 11.3896 9.36362L11.3891 9.36416L7.75607 13.071V1.74883C7.75607 1.25777 7.3618 0.85 6.87345 0.85C6.3851 0.85 5.99083 1.25777 5.99083 1.74883V13.0707L2.36136 9.36426C2.36135 9.36424 2.36133 9.36423 2.36132 9.36421C2.01665 9.01197 1.45606 9.01291 1.10881 9.36362C0.760891 9.715 0.766991 10.2828 1.10756 10.6351L1.10756 10.6351L1.10822 10.6358L6.24686 15.8846L6.24689 15.8847L6.24926 15.8871C6.26349 15.9016 6.2861 15.9248 6.3146 15.9458C6.32937 15.9586 6.3442 15.9686 6.35046 15.9728L6.35484 15.9765L6.36549 15.9854C6.36988 15.989 6.37594 15.9937 6.38312 15.9986L6.38318 15.9986L6.38324 15.9987L6.3833 15.9987L6.38336 15.9988L6.38342 15.9988L6.38348 15.9988L6.38354 15.9989L6.3836 15.9989L6.38366 15.999L6.38372 15.999L6.38378 15.999L6.38384 15.9991L6.3839 15.9991L6.38396 15.9992L6.38402 15.9992L6.38408 15.9993L6.38414 15.9993L6.3842 15.9993L6.38426 15.9994L6.38433 15.9994L6.38439 15.9995L6.38445 15.9995L6.38451 15.9995L6.38457 15.9996L6.38463 15.9996L6.38469 15.9997L6.38475 15.9997L6.38481 15.9998L6.38487 15.9998L6.38493 15.9998L6.38499 15.9999L6.38505 15.9999L6.38511 16L6.38517 16L6.38523 16L6.38529 16.0001L6.38535 16.0001L6.38541 16.0002L6.38547 16.0002L6.38553 16.0002L6.38559 16.0003L6.38566 16.0003L6.38572 16.0004L6.38578 16.0004L6.38584 16.0005L6.3859 16.0005L6.38596 16.0005L6.38602 16.0006L6.38608 16.0006L6.38614 16.0007L6.3862 16.0007L6.38626 16.0007L6.38632 16.0008L6.38638 16.0008L6.38644 16.0009L6.3865 16.0009L6.38656 16.0009L6.38662 16.001L6.38668 16.001L6.38674 16.0011L6.3868 16.0011L6.38686 16.0012L6.38693 16.0012L6.38699 16.0012L6.38705 16.0013L6.38711 16.0013L6.38717 16.0014L6.38723 16.0014L6.38729 16.0014L6.38735 16.0015L6.38741 16.0015L6.38747 16.0016L6.38753 16.0016L6.38759 16.0016L6.38765 16.0017L6.38771 16.0017L6.38777 16.0018L6.38783 16.0018L6.38789 16.0019L6.38795 16.0019L6.38801 16.0019L6.38807 16.002L6.38813 16.002L6.3882 16.0021L6.38826 16.0021L6.38832 16.0021L6.38838 16.0022L6.38844 16.0022L6.3885 16.0023L6.38856 16.0023L6.38862 16.0023L6.38868 16.0024L6.38874 16.0024L6.3888 16.0025L6.38886 16.0025L6.38892 16.0026L6.38898 16.0026L6.38904 16.0026L6.3891 16.0027L6.38916 16.0027L6.38922 16.0028L6.38928 16.0028L6.38934 16.0028L6.3894 16.0029L6.38946 16.0029L6.38952 16.003L6.38959 16.003L6.38965 16.003L6.38971 16.0031L6.38977 16.0031L6.38983 16.0032L6.38989 16.0032L6.38995 16.0033L6.39001 16.0033L6.39007 16.0033L6.39013 16.0034L6.39019 16.0034L6.39025 16.0035L6.39031 16.0035L6.39037 16.0035L6.39043 16.0036L6.39049 16.0036L6.39055 16.0037L6.39061 16.0037L6.39067 16.0037L6.39073 16.0038L6.39079 16.0038L6.39086 16.0039L6.39092 16.0039L6.39098 16.004L6.39104 16.004L6.3911 16.004L6.39116 16.0041L6.39122 16.0041L6.39128 16.0042L6.39134 16.0042L6.3914 16.0042L6.39146 16.0043L6.39152 16.0043L6.39158 16.0044L6.39164 16.0044L6.3917 16.0044L6.39176 16.0045L6.39182 16.0045L6.39188 16.0046L6.39194 16.0046L6.392 16.0047L6.39206 16.0047L6.39212 16.0047L6.39219 16.0048L6.39225 16.0048L6.39231 16.0049L6.39237 16.0049L6.39243 16.0049L6.39249 16.005L6.39255 16.005L6.39261 16.0051L6.39267 16.0051L6.39273 16.0051L6.39279 16.0052L6.39285 16.0052L6.39291 16.0053L6.39297 16.0053L6.39303 16.0054L6.39309 16.0054L6.39315 16.0054L6.39321 16.0055L6.39327 16.0055L6.39333 16.0056L6.39339 16.0056L6.39346 16.0056L6.39352 16.0057L6.39358 16.0057L6.39364 16.0058L6.3937 16.0058L6.39376 16.0058L6.39382 16.0059L6.39388 16.0059L6.39394 16.006L6.394 16.006L6.39406 16.0061L6.39412 16.0061L6.39418 16.0061L6.39424 16.0062L6.3943 16.0062L6.39436 16.0063L6.39442 16.0063L6.39448 16.0063L6.39454 16.0064L6.3946 16.0064L6.39466 16.0065L6.39472 16.0065L6.39478 16.0065L6.39485 16.0066L6.39491 16.0066L6.39497 16.0067L6.39503 16.0067L6.39509 16.0068L6.39515 16.0068L6.39521 16.0068L6.39527 16.0069L6.39533 16.0069L6.39539 16.007L6.39545 16.007L6.39551 16.007L6.39557 16.0071L6.39563 16.0071L6.39569 16.0072L6.39575 16.0072L6.39581 16.0072L6.39587 16.0073L6.39593 16.0073L6.39599 16.0074L6.39605 16.0074L6.39612 16.0075L6.39618 16.0075L6.39624 16.0075L6.3963 16.0076L6.39636 16.0076L6.39642 16.0077L6.39648 16.0077L6.39654 16.0077L6.3966 16.0078L6.39666 16.0078L6.39672 16.0079L6.39678 16.0079L6.39684 16.0079L6.3969 16.008L6.39696 16.008L6.39702 16.0081L6.39708 16.0081L6.39714 16.0082L6.3972 16.0082L6.39726 16.0082L6.39732 16.0083L6.39739 16.0083L6.39745 16.0084L6.39751 16.0084L6.39757 16.0084L6.39763 16.0085L6.39769 16.0085L6.39775 16.0086L6.39781 16.0086L6.39787 16.0086L6.39793 16.0087L6.39799 16.0087L6.39805 16.0088L6.39811 16.0088L6.39817 16.0089L6.39823 16.0089L6.39829 16.0089L6.39835 16.009L6.39841 16.009L6.39847 16.0091L6.39853 16.0091L6.39859 16.0091L6.39865 16.0092L6.39872 16.0092L6.39878 16.0093L6.39884 16.0093L6.3989 16.0093L6.39896 16.0094L6.39902 16.0094L6.39908 16.0095L6.39914 16.0095L6.3992 16.0096L6.39926 16.0096L6.39932 16.0096L6.39938 16.0097L6.39944 16.0097L6.3995 16.0098L6.39956 16.0098L6.39962 16.0098L6.39968 16.0099L6.39974 16.0099L6.3998 16.01L6.39986 16.01L6.39992 16.01L6.39998 16.0101L6.40005 16.0101L6.40011 16.0102L6.40017 16.0102L6.40023 16.0103L6.40029 16.0103L6.40035 16.0103L6.40041 16.0104L6.40047 16.0104L6.40053 16.0105L6.40059 16.0105L6.40065 16.0105L6.40071 16.0106L6.40077 16.0106L6.40083 16.0107L6.40089 16.0107L6.40095 16.0108L6.40101 16.0108L6.40107 16.0108L6.40113 16.0109L6.40119 16.0109L6.40125 16.011L6.40131 16.011L6.40138 16.011L6.40144 16.0111L6.4015 16.0111L6.40156 16.0112L6.40162 16.0112L6.40168 16.0112L6.40174 16.0113L6.4018 16.0113L6.40186 16.0114L6.40192 16.0114L6.40198 16.0115L6.40204 16.0115L6.4021 16.0115L6.40216 16.0116L6.40222 16.0116L6.40228 16.0117L6.40234 16.0117L6.4024 16.0117L6.40246 16.0118L6.40252 16.0118L6.40258 16.0119L6.40265 16.0119L6.40271 16.0119L6.40277 16.012L6.40283 16.012L6.40289 16.0121L6.40295 16.0121L6.40301 16.0122L6.40307 16.0122L6.40313 16.0122L6.40319 16.0123L6.40325 16.0123L6.40331 16.0124L6.40337 16.0124L6.40343 16.0124L6.40349 16.0125L6.40355 16.0125L6.40361 16.0126L6.40367 16.0126L6.40373 16.0126L6.40379 16.0127L6.40385 16.0127L6.40391 16.0128L6.40398 16.0128L6.40404 16.0129L6.4041 16.0129L6.40416 16.0129L6.40422 16.013L6.40428 16.013L6.40434 16.0131L6.4044 16.0131L6.40446 16.0131L6.40452 16.0132L6.40458 16.0132L6.40464 16.0133L6.4047 16.0133L6.40476 16.0133L6.40482 16.0134L6.40488 16.0134L6.40494 16.0135L6.405 16.0135L6.40506 16.0136L6.40512 16.0136L6.40518 16.0136L6.40524 16.0137L6.40531 16.0137L6.40537 16.0138L6.40543 16.0138L6.40549 16.0138L6.40555 16.0139L6.40561 16.0139L6.40567 16.014L6.40573 16.014L6.40579 16.014L6.40585 16.0141L6.40591 16.0141L6.40597 16.0142L6.40603 16.0142L6.40609 16.0143L6.40615 16.0143L6.40621 16.0143L6.40627 16.0144L6.40633 16.0144L6.40639 16.0145L6.40645 16.0145L6.40651 16.0145L6.40658 16.0146L6.40664 16.0146L6.4067 16.0147L6.40676 16.0147L6.40682 16.0147L6.40688 16.0148L6.40694 16.0148L6.407 16.0149L6.40706 16.0149L6.40712 16.015L6.40718 16.015L6.40724 16.015L6.4073 16.0151L6.40736 16.0151L6.40742 16.0152L6.40748 16.0152L6.40754 16.0152L6.4076 16.0153L6.40766 16.0153L6.40772 16.0154L6.40778 16.0154L6.40785 16.0154L6.40791 16.0155L6.40797 16.0155L6.40803 16.0156L6.40809 16.0156L6.40815 16.0157L6.40821 16.0157L6.40827 16.0157L6.40833 16.0158L6.40839 16.0158L6.40845 16.0159L6.40851 16.0159L6.40857 16.0159L6.40863 16.016L6.40869 16.016L6.40875 16.0161L6.40881 16.0161L6.40887 16.0161L6.40893 16.0162L6.40899 16.0162L6.40905 16.0163L6.40911 16.0163L6.40917 16.0164L6.40924 16.0164L6.4093 16.0164L6.40936 16.0165L6.40942 16.0165L6.40948 16.0166L6.40954 16.0166L6.4096 16.0166L6.40966 16.0167L6.40972 16.0167L6.40978 16.0168L6.40984 16.0168L6.4099 16.0168L6.40996 16.0169L6.41002 16.0169L6.41008 16.017L6.41014 16.017L6.4102 16.0171L6.41026 16.0171L6.41032 16.0171L6.41038 16.0172L6.41044 16.0172L6.41051 16.0173L6.41057 16.0173L6.41063 16.0173L6.41069 16.0174L6.41075 16.0174L6.41081 16.0175L6.41087 16.0175L6.41093 16.0175L6.41099 16.0176L6.41105 16.0176L6.41111 16.0177L6.41117 16.0177L6.41123 16.0178L6.41129 16.0178L6.41135 16.0178L6.41141 16.0179L6.41147 16.0179L6.41153 16.018L6.41159 16.018L6.41165 16.018L6.41171 16.0181L6.41177 16.0181L6.41184 16.0182L6.4119 16.0182L6.41196 16.0182L6.41202 16.0183L6.41208 16.0183L6.41214 16.0184L6.4122 16.0184L6.41226 16.0185L6.41232 16.0185L6.41238 16.0185L6.41244 16.0186L6.4125 16.0186L6.41256 16.0187L6.41262 16.0187L6.41268 16.0187L6.41274 16.0188L6.4128 16.0188L6.41286 16.0189L6.41292 16.0189L6.41298 16.0189L6.41304 16.019L6.41311 16.019L6.41317 16.0191L6.41323 16.0191L6.41329 16.0192L6.41335 16.0192L6.41341 16.0192L6.41347 16.0193L6.41353 16.0193L6.41359 16.0194L6.41365 16.0194L6.41371 16.0194L6.41377 16.0195L6.41383 16.0195L6.41389 16.0196L6.41395 16.0196L6.41401 16.0196L6.41407 16.0197C6.41449 16.02 6.41503 16.0203 6.41568 16.0208C6.42201 16.0252 6.43905 16.037 6.46069 16.0471C6.46908 16.0519 6.47633 16.0554 6.48141 16.0578C6.49161 16.0626 6.49146 16.0623 6.49563 16.0645L6.50527 16.0694L6.51042 16.0711L6.58883 16.1036Z" fill="#055EB0" stroke="#055EB0" stroke-width="0.3"/>
<path d="M12.0095 17.349H1.73555C1.24675 17.349 0.85293 17.7573 0.85293 18.2514C0.85293 18.7464 1.24766 19.1502 1.73555 19.1502H12.0095C12.5017 19.1502 12.8921 18.742 12.8921 18.2514C12.8921 17.7617 12.5026 17.349 12.0095 17.349Z" fill="#055EB0" stroke="#055EB0" stroke-width="0.3"/>
</svg>
