<svg width="29" height="29" viewBox="0 0 29 29" fill="none" xmlns="http://www.w3.org/2000/svg">
<circle cx="14.5" cy="14.5" r="13.9" stroke="white" stroke-width="1.2"/>
<path d="M14.6288 10.6375C12.7329 10.6375 11.1621 12.1813 11.1621 14.1042C11.1621 16.0271 12.7059 17.5708 14.6288 17.5708C16.5517 17.5708 18.0954 16 18.0954 14.1042C18.0954 12.2084 16.5246 10.6375 14.6288 10.6375ZM14.6288 16.325C13.41 16.325 12.4079 15.3229 12.4079 14.1042C12.4079 12.8854 13.41 11.8834 14.6288 11.8834C15.8475 11.8834 16.8496 12.8854 16.8496 14.1042C16.8496 15.3229 15.8475 16.325 14.6288 16.325Z" fill="white"/>
<path d="M18.2307 11.3417C18.6645 11.3417 19.0161 10.9901 19.0161 10.5563C19.0161 10.1225 18.6645 9.77089 18.2307 9.77089C17.797 9.77089 17.4453 10.1225 17.4453 10.5563C17.4453 10.9901 17.797 11.3417 18.2307 11.3417Z" fill="white"/>
<path d="M20.262 8.52508C19.5579 7.79384 18.5558 7.41467 17.4183 7.41467L11.8392 7.41467C9.48294 7.41467 7.91211 8.9855 7.91211 11.3417L7.91211 16.8938C7.91211 18.0584 8.29127 19.0604 9.0496 19.7917C9.78085 20.4959 10.7558 20.8479 11.8663 20.8479L17.3912 20.8479C18.5558 20.8479 19.5308 20.4688 20.235 19.7917C20.9662 19.0875 21.3454 18.0855 21.3454 16.9209L21.3454 11.3417C21.3454 10.2042 20.9662 9.22925 20.262 8.52508ZM20.1537 16.9209C20.1537 17.7605 19.8558 18.4375 19.3683 18.8979C18.8808 19.3584 18.2037 19.6021 17.3912 19.6021L11.8663 19.6021C11.0538 19.6021 10.3767 19.3584 9.88918 18.898C9.40169 18.4105 9.15794 17.7334 9.15794 16.8938L9.15794 11.3417C9.15794 10.5292 9.40169 9.85216 9.88918 9.36466C10.3496 8.90425 11.0538 8.6605 11.8663 8.6605L17.4454 8.6605C18.2579 8.6605 18.935 8.90425 19.4225 9.39175C19.8829 9.87924 20.1537 10.5563 20.1537 11.3417L20.1537 16.9209Z" fill="white"/>
</svg>
