<svg width="191" height="76" viewBox="0 0 191 76" fill="none" xmlns="http://www.w3.org/2000/svg">
<path fill-rule="evenodd" clip-rule="evenodd" d="M12.9495 55.3773C4.88225 60.8972 8.72028 44.7682 3.43988 30.9412C-1.84052 17.1142 -2.50054 2.00004 12.0841 3.88621C26.6688 5.77238 44.2212 13.3419 64.8197 9.12397C85.4181 4.90607 100.443 -4.109 114.964 2.13864C129.485 8.38628 175.698 -2.36141 186.719 7.3764C197.739 17.1142 184.333 32.5749 181.531 51.0158C178.73 69.4568 175.679 68.3478 170.296 57.9961C164.913 47.6445 151.457 46.7088 147.815 60.7833C144.172 74.8578 136.941 81.8431 133.147 69.927C128.096 54.0555 127.911 69.937 124.346 68.9369C117.345 66.9715 120.543 58.3526 116.035 52.1049C107.992 40.9562 101.264 60.6645 82.9784 53.803C64.6925 46.9415 58.0187 41.2928 43.2092 44.9068C28.3996 48.5207 32.0763 58.7585 25.0504 65.8527C18.0246 72.9469 18.6211 51.496 12.9495 55.3773Z" fill="white"/>
</svg>
