<svg width="8" height="8" viewBox="0 0 8 8" fill="none" xmlns="http://www.w3.org/2000/svg">
<path fill-rule="evenodd" clip-rule="evenodd" d="M1.27778 1C1.20411 1 1.13345 1.02927 1.08136 1.08136C1.02927 1.13345 1 1.20411 1 1.27778V6.72222C1 6.79589 1.02927 6.86655 1.08136 6.91864C1.13345 6.97073 1.20411 7 1.27778 7H2.83333C3.10948 7 3.33333 7.22386 3.33333 7.5C3.33333 7.77614 3.10948 8 2.83333 8H1.27778C0.93889 8 0.613882 7.86538 0.374252 7.62575C0.134623 7.38612 0 7.06111 0 6.72222V1.27778C0 0.93889 0.134623 0.613882 0.374252 0.374252C0.613882 0.134623 0.93889 0 1.27778 0H2.83333C3.10948 0 3.33333 0.223858 3.33333 0.5C3.33333 0.776142 3.10948 1 2.83333 1H1.27778Z" fill="#6DC7E4"/>
<path fill-rule="evenodd" clip-rule="evenodd" d="M5.20235 1.70199C5.39762 1.50673 5.7142 1.50673 5.90946 1.70199L7.85391 3.64643C8.04917 3.8417 8.04917 4.15828 7.85391 4.35354L5.90946 6.29798C5.7142 6.49325 5.39762 6.49325 5.20235 6.29798C5.00709 6.10272 5.00709 5.78614 5.20235 5.59088L6.79325 3.99999L5.20235 2.4091C5.00709 2.21383 5.00709 1.89725 5.20235 1.70199Z" fill="#6DC7E4"/>
<path fill-rule="evenodd" clip-rule="evenodd" d="M2.33325 4C2.33325 3.72386 2.55711 3.5 2.83325 3.5H7.49992C7.77606 3.5 7.99992 3.72386 7.99992 4C7.99992 4.27614 7.77606 4.5 7.49992 4.5H2.83325C2.55711 4.5 2.33325 4.27614 2.33325 4Z" fill="#6DC7E4"/>
</svg>
