<svg width="140" height="53" viewBox="0 0 140 53" fill="none" xmlns="http://www.w3.org/2000/svg">
<path d="M14.9335 22.2286C14.2862 22.8176 13.3476 23.0118 12.7586 23.0895C11.5611 23.2384 10.3312 22.8435 9.54145 21.892C8.89414 21.1152 8.56401 20.1119 7.92965 19.3028C6.9328 18.0276 5.33394 17.199 3.68978 17.4903C0.440284 18.0793 -1.03558 21.8726 0.802778 24.5006C3.43085 28.2615 9.33431 27.6077 12.3702 25.0055C13.3088 24.1964 14.1891 23.2966 14.9335 22.2286Z" fill="white"/>
<path d="M125.073 22.2286C125.72 22.8176 126.659 23.0118 127.241 23.0895C128.439 23.2384 129.669 22.8435 130.459 21.892C131.106 21.1152 131.443 20.1119 132.07 19.3092C133.067 18.034 134.666 17.2055 136.31 17.4968C139.56 18.0858 141.036 21.879 139.197 24.5071C136.569 28.2615 130.666 27.6142 127.636 25.012C126.691 24.1964 125.811 23.2966 125.073 22.2286Z" fill="white"/>
<path d="M114.25 2.18799C114.166 2.18799 106.411 2.18799 106.34 2.18799C105.492 2.21388 104.786 3.0036 104.748 3.81273C104.702 4.67366 105.453 5.5281 106.34 5.56694C106.424 5.56694 114.179 5.56694 114.25 5.56694C115.098 5.54105 115.804 4.75133 115.842 3.9422C115.888 3.08127 115.137 2.22683 114.25 2.18799Z" fill="white"/>
<path d="M64.8344 19.0438C64.7244 18.5972 64.6661 18.1505 64.6402 17.7103C64.6337 17.0695 64.6337 16.1633 64.6337 15.3347C64.7179 12.4671 65.2487 7.41813 61.3584 7.41813C58.7303 7.41813 57.1703 9.63193 56.7301 10.3569C56.6654 8.34378 55.073 6.87439 52.6456 6.87439C51.092 6.87439 50.1729 8.11075 50.1729 8.11075C50.1729 8.11075 51.6876 8.63507 51.6876 10.6676C51.707 12.1241 51.6876 19.2121 51.6876 19.238C51.7458 20.4938 52.6262 21.6719 54.1926 21.6719C55.7591 21.6719 56.7366 20.4679 56.7366 19.238V12.9461C56.9567 11.9169 57.5328 10.8683 58.4066 10.8683C59.5394 10.8683 59.5977 12.1241 59.6041 12.1241L59.5977 18.2088C59.6041 18.4094 59.63 18.5972 59.6624 18.7849C59.7207 19.1021 59.8113 19.3998 59.9537 19.6652C60.5557 20.8886 61.8891 21.6913 63.6822 21.6913C65.2293 21.6913 66.1549 20.4549 66.1549 20.4549C66.1549 20.4549 65.2422 20.1378 64.8344 19.0438Z" fill="white"/>
<path d="M102.262 19.0438C102.152 18.5972 102.094 18.1505 102.061 17.7104L102.068 2.65397C102.068 1.19105 100.883 0 99.4137 0C97.9508 0 96.7598 1.18458 96.7598 2.65397L96.7662 15.9885C96.7792 17.1925 96.6627 18.4159 97.2258 19.5228C97.8278 20.7463 99.3102 21.6913 101.097 21.6913C102.65 21.6913 103.569 20.455 103.569 20.455C103.569 20.455 102.67 20.1378 102.262 19.0438Z" fill="white"/>
<path d="M43.0073 7.28223C39.0263 7.28223 35.8027 10.5058 35.8027 14.4868C35.8027 18.4677 39.0263 21.6913 43.0073 21.6913C46.9882 21.6913 50.2118 18.4677 50.2118 14.4868C50.2118 10.5058 46.9882 7.28223 43.0073 7.28223ZM43.0591 18.6296C43.0526 18.636 43.0461 18.6296 43.0461 18.6296C43.0397 18.6296 43.0332 18.6296 43.0332 18.6296V18.6231C41.6738 18.5972 40.9877 17.0372 40.9877 14.4803C40.9877 11.9299 41.8486 10.3634 43.0332 10.3375C43.0397 10.3375 43.0397 10.3375 43.0461 10.3375C43.0526 10.3375 43.0526 10.3375 43.0591 10.3375C44.2372 10.3634 45.0981 11.9299 45.0981 14.4803C45.0981 17.0436 44.4184 18.6037 43.0591 18.6296Z" fill="white"/>
<path d="M81.0431 19.0438C80.933 18.5972 80.8748 18.1505 80.8489 17.7104V2.65397C80.8489 1.19105 79.6643 0 78.1949 0C76.732 0 75.541 1.19105 75.541 2.65397L75.528 9.78731C74.8872 8.9005 73.4825 7.39874 71.2752 7.39874C65.184 7.39874 64.8021 18.2412 68.9772 20.9275C70.1554 21.6849 71.929 21.879 73.2754 21.5295C74.201 21.29 75.664 20.3773 75.9035 19.2898C75.9358 19.3675 75.9747 19.4516 76.0135 19.5293C76.6155 20.7527 78.0978 21.6978 79.8909 21.6978C81.4444 21.6978 82.3636 20.4614 82.3636 20.4614C82.3636 20.4614 81.4509 20.1378 81.0431 19.0438ZM73.1394 18.17C73.133 18.17 73.1265 18.17 73.1265 18.17C73.12 18.17 73.12 18.17 73.1136 18.17C71.7542 18.1505 71.0745 16.7847 71.0745 14.558C71.0745 12.3312 71.9355 10.9719 73.1136 10.946C73.12 10.946 73.1265 10.946 73.1265 10.946C73.133 10.946 73.133 10.946 73.1394 10.946C74.3175 10.9719 75.1849 12.3312 75.1849 14.558C75.1849 16.7847 74.4988 18.1505 73.1394 18.17Z" fill="white"/>
<path d="M94.8373 17.2314C94.8373 17.2314 94.0606 18.293 91.0441 18.293C88.0277 18.293 87.3804 15.9498 87.3804 15.9498C91.7756 15.9498 95.4652 15.6585 95.4652 12.0983C95.4652 8.53808 91.4455 7.36646 89.0569 7.36646C85.1148 7.36646 82.2407 10.5059 82.2407 14.6552C82.2407 19.3223 85.9886 21.6914 89.1022 21.6914C94.5784 21.6914 94.8373 17.2314 94.8373 17.2314ZM87.0955 13.6712C87.2509 12.532 87.5228 11.1014 88.5455 10.4412C89.3935 9.89096 90.5845 10.5188 90.604 11.5804C90.6234 12.7003 89.8984 13.4641 88.8886 13.6777C88.7785 13.6971 87.0826 13.7813 87.0955 13.6712Z" fill="white"/>
<path d="M116.056 17.2314C116.056 17.2314 115.279 18.293 112.263 18.293C109.246 18.293 108.599 15.9498 108.599 15.9498C112.994 15.9498 116.684 15.6585 116.684 12.0983C116.684 8.53808 112.664 7.36646 110.276 7.36646C106.334 7.36646 103.459 10.5059 103.459 14.6552C103.459 19.3223 107.207 21.6914 110.321 21.6914C115.791 21.6914 116.056 17.2314 116.056 17.2314ZM108.308 13.6712C108.463 12.532 108.735 11.1014 109.758 10.4412C110.606 9.89096 111.797 10.5188 111.816 11.5804C111.836 12.7003 111.111 13.4641 110.101 13.6777C109.991 13.6971 108.295 13.7813 108.308 13.6712Z" fill="white"/>
<path d="M126.005 17.6197H122.982C123.202 17.6197 125.442 15.7361 126.18 15.1082C128.122 13.464 131.611 11.0819 130.595 8.00718V8.0266C130.407 7.29514 129.844 6.86792 129.844 6.86792C129.844 6.86792 129.63 7.46992 128.918 7.73531C128.627 7.80652 128.329 7.8583 128.038 7.87772C127.798 7.8842 119.59 7.87772 119.59 7.87772C118.484 7.87772 117.551 8.77101 117.538 9.81965C117.525 10.8812 118.406 11.7357 119.526 11.7486L124.309 11.781C122.089 13.0174 119.442 14.4867 118.095 16.72C117.325 18.0016 116.503 19.9824 116.813 21.5036C117.875 20.5585 120.665 19.6523 122.795 20.0924C123.591 20.2607 124.439 20.6621 125.125 21.0958C129.106 23.5879 131.501 18.7137 129.598 16.5646C129.604 16.5581 128.517 17.6197 126.005 17.6197Z" fill="white"/>
<path d="M36.1912 20.6491C33.7443 17.9692 32.9805 13.5157 32.8316 10.5511C32.7022 7.99419 32.8381 3.56013 34.8577 2.27198C34.1845 1.42401 32.8511 1.08093 31.8413 1.08093C29.5692 1.08093 28.4688 2.59564 27.692 3.68312C27.4331 4.04561 23.614 9.3147 23.614 9.3147C23.614 9.3147 20.3968 4.34337 20.002 3.74137C19.4582 2.91929 18.4355 1.40459 16.636 1.13919C15.8657 1.02915 13.8525 0.925579 12.7586 2.42086C14.6423 3.92909 14.5969 7.76764 14.1891 10.3892C12.9593 18.254 9.61914 18.979 9.61914 18.979C11.3345 23.6073 15.7492 21.7819 16.992 18.0857C17.8011 15.6842 18.319 12.6483 18.442 10.1303L23.2903 17.5614C23.2903 17.5614 28.773 10.1497 28.773 10.1627C27.8668 23.2642 32.3721 26.9798 36.3012 26.9798C40.2369 26.9798 41.5768 23.3807 41.5768 23.3807C39.4536 23.2577 37.5894 22.1832 36.1912 20.6491Z" fill="white"/>
<path d="M48.4835 24.9084C48.5288 25.1026 48.5547 25.2903 48.5676 25.4781C48.5676 25.5363 48.5611 32.3331 48.5676 32.4172C48.587 32.9868 49.1113 33.4594 49.6551 33.4853C50.2312 33.5176 50.8073 33.0127 50.8332 32.4172C50.8332 32.3395 50.8332 26.216 50.8332 26.216C50.8267 25.7046 50.8785 25.1738 50.6325 24.7078C50.3736 24.1834 49.7392 23.7756 48.9754 23.7756C48.3087 23.7756 47.9138 24.3064 47.9138 24.3064C47.9138 24.3064 48.3087 24.4424 48.4835 24.9084Z" fill="white"/>
<path d="M120.335 32.3591C120.289 32.1649 120.264 31.9771 120.251 31.7894C120.251 31.7312 120.257 24.9344 120.251 24.8567C120.231 24.2871 119.707 23.8146 119.163 23.7887C118.587 23.7628 118.017 24.2612 117.985 24.8567C117.985 24.9344 117.985 31.058 117.985 31.058C117.991 31.5693 117.94 32.0937 118.179 32.5662C118.438 33.0905 119.072 33.4919 119.836 33.4919C120.503 33.4919 120.898 32.9611 120.898 32.9611C120.898 32.9611 120.509 32.8251 120.335 32.3591Z" fill="white"/>
<path d="M79.3212 27.297C78.1431 27.297 77.444 28.2874 77.2498 28.611L77.2434 28.6175C77.2434 28.2874 77.2434 28.0284 77.2434 28.0155C77.2239 27.4459 76.6996 27.0186 76.1559 26.9928C75.5798 26.9669 75.0037 27.42 74.9778 28.0155C74.9778 28.0932 74.9778 32.3525 74.9778 32.4107C74.9972 32.9804 75.5215 33.4529 76.0653 33.4788C76.6414 33.5047 77.211 33.0063 77.2434 32.4107C77.2434 32.3654 77.2434 30.9737 77.2434 29.7762L77.2498 29.7697C77.3469 29.3101 77.6059 28.8376 77.9942 28.8376C78.4991 28.8376 78.5315 29.4007 78.5315 29.4007L78.525 32.4043C78.5444 32.9739 79.0688 33.4464 79.6125 33.4723C80.1886 33.4982 80.7582 32.9998 80.7906 32.4043L80.7841 30.8313C80.7971 29.226 80.9654 27.2905 79.3212 27.297Z" fill="white"/>
<path d="M108.295 27.297C107.117 27.297 106.418 28.2874 106.223 28.611L106.217 28.6175C106.217 28.2874 106.217 28.0284 106.217 28.0155C106.198 27.4459 105.673 27.0186 105.13 26.9928C104.553 26.9669 103.977 27.42 103.951 28.0155C103.951 28.0932 103.951 32.3525 103.951 32.4107C103.971 32.9804 104.495 33.4529 105.039 33.4788C105.615 33.5047 106.185 33.0063 106.217 32.4107C106.217 32.3654 106.217 30.9737 106.217 29.7762H106.223C106.321 29.3166 106.579 28.8441 106.968 28.8441C107.473 28.8441 107.505 29.4072 107.505 29.4072L107.499 32.4107C107.518 32.9804 108.042 33.4529 108.586 33.4788C109.162 33.5047 109.732 33.0063 109.764 32.4107L109.758 30.8378C109.764 29.226 109.933 27.2905 108.295 27.297Z" fill="white"/>
<path d="M56.3159 27.297C55.1378 27.297 54.4387 28.2874 54.2445 28.611L54.238 28.6175C54.238 28.2874 54.238 28.0284 54.238 28.0155C54.2186 27.4459 53.6943 27.0186 53.1505 26.9928C52.5744 26.9669 51.9983 27.42 51.9724 28.0155C51.9724 28.0932 51.9724 32.3525 51.9724 32.4107C51.9918 32.9804 52.5162 33.4529 53.0599 33.4788C53.636 33.5047 54.2056 33.0063 54.238 32.4107C54.238 32.3654 54.238 30.9737 54.238 29.7762H54.2445C54.3416 29.3166 54.6005 28.8441 54.9889 28.8441C55.4938 28.8441 55.5261 29.4072 55.5261 29.4072L55.5197 32.4107C55.5391 32.9804 56.0634 33.4529 56.6071 33.4788C57.1832 33.5047 57.7529 33.0063 57.7852 32.4107L57.7788 30.8378C57.7853 29.226 57.9535 27.2905 56.3159 27.297Z" fill="white"/>
<path d="M100.08 27.0122C98.3003 27.0122 96.8503 28.4557 96.8503 30.2423C96.8503 32.0289 98.2938 33.4724 100.08 33.4724C101.861 33.4724 103.31 32.0289 103.31 30.2423C103.31 28.4557 101.861 27.0122 100.08 27.0122ZM100.1 32.1001C100.093 32.1001 100.093 32.1001 100.093 32.1001H100.087C99.4784 32.0871 99.1742 31.388 99.1742 30.2423C99.1742 29.0965 99.5626 28.3974 100.087 28.3845H100.093H100.1C100.624 28.3974 101.013 29.0965 101.013 30.2423C101.013 31.388 100.708 32.0871 100.1 32.1001Z" fill="white"/>
<path d="M88.0211 27.9378C88.0017 27.3423 87.4385 26.8438 86.8689 26.8179C86.2669 26.7856 85.6649 27.3164 85.6325 27.9378C85.6325 27.9831 85.6261 28.0737 85.6261 28.0931C85.3413 27.6983 84.7134 27.0251 83.7165 27.0251C80.9913 27.0251 80.8166 31.8864 82.6873 33.0839C83.2181 33.4205 84.0078 33.5111 84.6098 33.3557C84.9529 33.2651 85.4513 32.9738 85.6779 32.6049C85.8203 33.0839 86.2928 33.4464 86.7783 33.4723C87.3803 33.5046 87.9823 32.9738 88.0147 32.3524C88.0276 32.2683 88.0276 27.996 88.0211 27.9378ZM84.558 31.8475H84.5515H84.5451C83.9366 31.841 83.6324 31.2261 83.6324 30.2293C83.6324 29.2324 84.0208 28.6239 84.5451 28.611H84.5515H84.558C85.0888 28.6239 85.4707 29.2324 85.4707 30.2293C85.4772 31.2261 85.173 31.841 84.558 31.8475Z" fill="white"/>
<path d="M116.969 27.9378C116.949 27.3423 116.386 26.8438 115.823 26.8179C115.221 26.7856 114.619 27.3164 114.587 27.9378C114.587 27.9831 114.58 28.0737 114.58 28.0931C114.295 27.6983 113.667 27.0251 112.67 27.0251C109.939 27.0251 109.771 31.8864 111.641 33.0839C112.172 33.4205 112.962 33.5111 113.564 33.3557C113.907 33.2651 114.405 32.9738 114.632 32.6049C114.768 33.0839 115.247 33.4464 115.726 33.4723C116.328 33.5046 116.93 32.9738 116.962 32.3524C116.969 32.2683 116.969 27.996 116.969 27.9378ZM113.506 31.8475H113.499C113.493 31.8475 113.493 31.8475 113.493 31.8475C112.884 31.841 112.58 31.2261 112.58 30.2293C112.58 29.2324 112.968 28.6239 113.493 28.611H113.499H113.506C114.036 28.6239 114.418 29.2324 114.418 30.2293C114.425 31.2261 114.114 31.841 113.506 31.8475Z" fill="white"/>
<path d="M96.1384 28.5463C96.1125 27.9832 95.6658 27.543 95.1092 27.4977C95.0768 27.4977 95.0444 27.4847 95.0121 27.4847C94.5072 27.4847 93.8728 27.9249 93.8728 28.4751V30.5659C93.8793 31.2197 93.8728 32.3978 93.8728 32.4108C93.8987 32.9739 94.3453 33.4141 94.902 33.4594C94.9344 33.4659 94.9667 33.4723 94.9991 33.4723C95.504 33.4723 96.1384 33.0322 96.1384 32.482V30.7342C96.1319 30.0804 96.1384 28.5593 96.1384 28.5463Z" fill="white"/>
<path d="M96.1318 25.7241C96.1318 26.3455 95.6269 26.8439 95.0055 26.8439C94.3841 26.8439 93.8792 26.339 93.8792 25.7241C93.8792 25.1027 94.3776 24.5978 95.0055 24.5978C95.6269 24.5978 96.1318 25.1027 96.1318 25.7241Z" fill="white"/>
<path d="M73.1719 27.2193C72.4987 27.2452 72.1685 27.7501 71.7089 28.378C71.7025 28.3845 71.7089 28.0867 71.7089 28.0738C71.6895 27.5042 71.1652 27.0316 70.6215 27.0057C70.0454 26.9798 69.4693 27.4783 69.4434 28.0738V29.705V32.4302C69.4628 32.9998 69.9871 33.4723 70.5308 33.4982C71.1005 33.5241 71.6701 33.0322 71.7089 32.4431H71.7154V29.6856C71.7478 29.2843 71.9226 28.7794 72.2527 28.7794C72.7123 28.7858 72.2397 29.8927 73.2948 29.8927C74.7966 29.8992 74.9584 27.1481 73.1719 27.2193Z" fill="white"/>
<path d="M68.5499 31.4657C68.5499 31.4657 68.2004 31.9447 66.8475 31.9447C65.4946 31.9447 65.2033 30.896 65.2033 30.896C67.1776 30.896 68.8283 30.7666 68.8283 29.1677C68.8283 27.5689 67.0223 27.0446 65.9542 27.0446C64.1871 27.0446 62.8989 28.4557 62.8989 30.3135C62.8989 32.4107 64.5819 33.4723 65.9736 33.4723C68.4334 33.4659 68.5499 31.4657 68.5499 31.4657ZM65.0739 29.8668C65.1451 29.3554 65.2681 28.7146 65.7212 28.4169C66.1031 28.1709 66.6339 28.4492 66.6468 28.9282C66.6533 29.4331 66.3297 29.7762 65.8765 29.8668C65.8312 29.8798 65.0674 29.9186 65.0739 29.8668Z" fill="white"/>
<path d="M62.7631 32.2748C62.7631 32.2748 62.174 33.4659 61.0865 33.4659C60.1868 33.4659 59.0864 32.6762 59.041 31.5304C59.041 31.5175 59.0346 29.8733 59.0281 28.4945H58.7239C58.562 28.4945 58.2837 28.3974 58.2837 27.9832C58.2837 27.5689 58.6009 27.4847 58.7562 27.4847H59.0281C59.0281 27.0057 59.0281 26.6691 59.0281 26.6497C59.054 26.0542 59.6301 25.5558 60.1997 25.5817C60.7435 25.6075 61.2807 26.0801 61.3001 26.6497V26.6562V27.4847H62.2582C62.3941 27.4847 62.6983 27.5689 62.6983 27.9961C62.6983 28.4169 62.3876 28.501 62.2258 28.501H61.3001V31.032C61.2937 31.8476 62.0057 32.2684 62.7631 32.2748Z" fill="white"/>
<path d="M93.0831 32.2748C93.0831 32.2748 92.4941 33.4659 91.4066 33.4659C90.5068 33.4659 89.4064 32.6762 89.3611 31.5304C89.3611 31.5175 89.3546 29.8733 89.3482 28.4945H89.0439C88.8821 28.4945 88.6038 28.3974 88.6038 27.9832C88.6038 27.5689 88.9209 27.4847 89.0763 27.4847H89.3482C89.3482 27.0057 89.3482 26.6691 89.3482 26.6497C89.3741 26.0542 89.9502 25.5558 90.5263 25.5817C91.07 25.6075 91.6073 26.0801 91.6267 26.6497V26.6562V27.4847H92.5847C92.7206 27.4847 93.0249 27.5689 93.0249 27.9961C93.0249 28.4169 92.7142 28.501 92.5523 28.501H91.6267V31.032C91.6137 31.8476 92.3258 32.2684 93.0831 32.2748Z" fill="white"/>
<path d="M6.11707 49.7652C6.11707 49.8493 6.17533 49.9076 6.17533 49.9853C6.17533 50.0694 6.13649 50.1406 6.07823 50.2118C6.00703 50.3024 5.9164 50.3866 5.87109 50.4772C5.70926 50.8009 5.50213 51.0986 5.22378 51.3511C5.08138 51.487 4.91955 51.5647 4.74477 51.6618C4.53764 51.7848 4.34344 51.9336 4.12983 52.0566C3.92269 52.1732 3.66377 52.2573 3.41132 52.2573C3.23007 52.2573 3.04235 52.2314 2.86758 52.2314C2.69928 52.2314 2.5245 52.2444 2.34973 52.2444C1.99371 52.2444 2.00666 52.2314 1.67653 52.1084C1.35288 51.9919 1.04217 51.7071 0.815609 51.4352C0.815609 51.4935 0.815609 51.5453 0.815609 51.6877C0.815609 51.7718 0.815609 51.9272 0.783244 52.0761C0.750878 52.2508 0.673201 52.4062 0.504901 52.4062C0.368966 52.4062 0.310708 52.3738 0.207139 52.2897C0.122989 52.2185 0.0776771 52.1084 0.0517847 52.0049C0.0194193 51.8754 0.0129462 51.7783 0.0129462 51.7006C0.0129462 51.5582 0.0388385 51.4482 0.0388385 51.2281C0.0388385 51.0663 0.0323654 50.6649 0.0323654 50.2312C0.0323654 49.6745 0.0388385 49.0661 0.0647309 48.8589C0.0776771 48.723 0.0841502 48.5418 0.148881 48.4188C0.181247 48.354 0.200666 48.3152 0.265397 48.244C0.297762 48.2116 0.375439 48.1534 0.433697 48.1534C0.491955 48.1534 0.556686 48.2181 0.576105 48.2505C0.640836 48.3476 0.699094 48.4964 0.71204 48.6065C0.731459 48.7424 0.737932 49.0467 0.744405 49.3768C0.750878 49.6163 0.757351 49.8752 0.763825 50.0823C0.783244 50.2636 0.815609 50.4578 0.899759 50.5937C1.0098 50.7685 1.13279 50.8785 1.24283 51.0468C1.36582 51.2346 1.4435 51.3381 1.683 51.377C1.81894 51.3964 2.23322 51.5 2.43388 51.5C2.63455 51.5 2.68633 51.4158 2.86111 51.3317C3.04235 51.241 3.28833 51.2799 3.45663 51.1763C3.59256 51.0921 3.78676 50.9174 3.86443 50.7814C3.94211 50.652 3.98095 50.516 3.98095 50.3931C3.98095 50.3154 3.96153 50.2312 3.92917 50.1471C3.85796 49.9594 3.74145 49.7975 3.6573 49.6228C3.5602 49.4221 3.49547 49.2085 3.37895 49.0078C3.13945 48.6194 2.78343 48.3217 2.49214 47.9721C2.20732 47.629 1.89662 47.2989 1.59238 46.9688C1.2752 46.6257 0.96449 46.2632 0.686147 45.8878C0.414278 45.5253 0.297762 45.0333 0.194193 44.5996C0.0970963 44.2242 0 43.8358 0 43.4539C0 42.9361 0.194193 42.5671 0.44017 42.1528C0.673201 41.758 1.01628 41.4343 1.40466 41.2013C1.76715 40.9812 2.0196 40.9035 2.47272 40.8711C2.73164 40.8452 2.81579 40.7287 3.11356 40.7287C3.30775 40.7287 3.45663 40.7805 3.64435 40.8129C3.81912 40.8452 4.01332 40.9359 4.20104 41.0136C4.42759 41.1042 4.64121 41.1883 4.79009 41.3437C4.80303 41.0977 4.80951 40.9229 4.86776 40.8064C4.90013 40.7417 4.91955 40.7028 4.98428 40.6316C5.01664 40.5993 5.13316 40.541 5.18494 40.541C5.2432 40.541 5.30793 40.6057 5.32735 40.6381C5.39208 40.7352 5.45034 40.8841 5.46329 40.9941C5.48271 41.1495 5.50213 41.6997 5.50213 42.0428C5.50213 42.347 5.48918 42.6512 5.48918 42.839C5.48918 43.2856 5.54096 43.4668 5.52802 43.8682C5.52155 44.0559 5.52802 44.5802 5.21731 44.5802C5.08138 44.5802 5.02312 44.5479 4.91955 44.4637C4.8354 44.3925 4.79009 44.2825 4.76419 44.1789C4.73183 44.0494 4.72536 43.9588 4.72536 43.8747C4.72536 43.7387 4.75125 43.6222 4.75125 43.4021C4.75125 43.2791 4.75125 43.059 4.74477 42.8001C4.7383 42.6448 4.71888 42.4959 4.67357 42.36C4.60884 42.1658 4.51174 41.9845 4.36934 41.8356C4.24635 41.7062 4.09099 41.6026 3.90327 41.5508C3.73497 41.5055 3.52783 41.4667 3.32717 41.4667C3.09414 41.4667 2.86758 41.512 2.70575 41.6414C2.56982 41.7515 2.53098 41.9133 2.44683 42.0557C2.34326 42.237 2.26558 42.4053 2.20732 42.6124C2.15554 42.7937 2.09081 42.9361 2.09081 43.1561C2.09081 43.2403 2.16201 43.3633 2.18143 43.4474C2.20732 43.5704 2.16848 43.7128 2.20085 43.8358C2.23969 44.0041 2.44683 44.1271 2.56334 44.2436C2.71222 44.386 2.75754 44.5738 2.87405 44.7421C3.01646 44.9492 3.20418 45.1304 3.39837 45.2987C3.55373 45.4347 3.70908 45.5706 3.85149 45.713C4.14278 46.0043 4.45996 46.2762 4.7383 46.5869C4.86776 46.7358 4.95191 46.9364 5.08785 47.0724C5.13316 47.1177 5.20436 47.1306 5.24968 47.1759C5.31441 47.2407 5.34677 47.3378 5.39856 47.409C5.52802 47.5773 5.70279 47.7132 5.81283 47.888C5.9164 48.0498 5.94877 48.2634 6.02645 48.4447C6.10412 48.6194 6.13649 48.8071 6.20122 48.9819C6.22711 49.0467 6.23359 49.1114 6.23359 49.1761C6.23359 49.2991 6.20122 49.4221 6.16885 49.5645C6.16238 49.6163 6.12354 49.7004 6.11707 49.7652Z" fill="white"/>
<path d="M14.6681 41.1429C14.8364 41.1429 15.1601 41.1558 15.1601 41.4083C15.1601 41.5572 15.1407 41.596 15.0694 41.6996C15.0177 41.7837 14.927 41.8226 14.8494 41.8485C14.7264 41.8873 14.6487 41.9002 14.571 41.9002C14.5322 41.9002 14.3056 41.9002 14.0402 41.8938C14.0596 42.0168 14.0791 42.1462 14.0791 42.2822C14.0791 42.4828 14.0467 42.6835 14.0467 42.8842C14.0467 43.1949 14.0985 43.4991 14.1373 43.8033C14.1762 44.114 14.1891 44.4183 14.1956 44.729C14.2021 44.9814 14.2021 45.2404 14.215 45.4928C14.2279 45.7647 14.2668 46.0365 14.2668 46.3084C14.2668 46.5803 14.1956 46.8457 14.1956 47.1111C14.1956 47.3765 14.2021 47.6419 14.2021 47.9008C14.2021 48.2115 14.1956 48.5222 14.1632 48.8394C14.1373 49.0918 14.1567 49.3378 14.1438 49.5903C14.1373 49.8492 14.105 50.1017 14.105 50.3606C14.105 50.5936 14.1956 50.9108 14.1956 51.1891C14.1956 51.3833 14.1503 51.5581 14.0079 51.694C13.7813 51.9012 13.4965 51.9788 13.1987 51.9788C12.9657 51.9788 12.7197 51.9076 12.4932 51.8235C12.2472 51.7329 12.0271 51.6228 11.8523 51.4869C11.4704 51.1762 11.2503 50.7295 11.0497 50.2829C10.8296 49.778 10.603 49.2731 10.4023 48.7617C10.2858 48.4704 10.1758 48.1791 10.0722 47.8814C9.90392 47.4153 9.74209 46.9428 9.58674 46.4767C9.48317 46.1725 9.38607 45.8618 9.2825 45.5575C9.19835 45.2986 9.10773 45.0526 8.97827 44.8131C8.93296 44.729 8.89412 44.6448 8.84881 44.6448C8.79055 44.6448 8.78408 44.8002 8.78408 44.8779C8.78408 44.962 8.79702 45.0526 8.79702 45.1238C8.79702 45.4151 8.83586 45.6935 8.84233 45.9783C8.84881 46.5414 8.90059 47.0981 8.93943 47.6613C8.95238 47.8296 8.95238 47.9979 8.95238 48.1662C8.95238 48.5416 8.93296 48.9171 8.93296 49.2925C8.93296 49.7327 8.89412 50.1664 8.89412 50.6001C8.89412 50.736 8.90059 50.872 8.90706 51.0079C8.90706 51.1762 8.8747 51.3315 8.85528 51.4934C9.17246 51.4804 9.45728 51.4739 9.60616 51.4739C9.77446 51.4739 10.0981 51.4804 10.0981 51.7393C10.0981 51.8882 10.0787 51.9271 10.0075 52.0306C9.95571 52.1148 9.86508 52.1536 9.78741 52.1795C9.66442 52.2184 9.58674 52.2248 9.50906 52.2313C9.46375 52.2313 9.15952 52.2248 8.86823 52.2248C8.58988 52.2248 8.33096 52.2183 8.26623 52.2183C8.07851 52.2183 7.71602 52.2313 7.52182 52.2313C7.41825 52.2313 7.30821 52.2248 7.20464 52.2119C7.10107 52.1989 6.95866 52.186 6.86157 52.1342C6.75153 52.0759 6.64796 51.9271 6.64796 51.8623C6.64796 51.8235 6.65443 51.7847 6.70621 51.7264C6.76447 51.6552 6.90688 51.6099 6.99103 51.5905C7.23053 51.5451 7.65776 51.5063 7.75485 51.5063C7.80664 51.5063 7.8649 51.5063 7.92315 51.5063C7.9361 50.7684 7.98141 50.0758 7.98141 49.3184C7.98141 49.1048 7.98141 48.8912 7.96847 48.6776C7.9361 47.9137 7.92315 47.1564 7.92315 46.399C7.92315 45.9589 7.92963 45.5187 7.9361 45.0785C7.94257 44.593 7.95552 44.114 7.96847 43.6286C7.98789 43.0525 8.0073 42.4763 8.02672 41.8938C7.85195 41.8938 7.65129 41.8938 7.50888 41.8938C7.40531 41.8938 7.29526 41.8873 7.1917 41.8744C7.08813 41.8614 6.94572 41.8485 6.84862 41.7967C6.74505 41.7384 6.63501 41.5895 6.63501 41.5248C6.63501 41.486 6.64148 41.4471 6.69327 41.3889C6.75153 41.3177 6.89393 41.2724 6.97808 41.2529C7.21759 41.2076 7.82606 41.1688 7.92963 41.1688C8.0332 41.1688 8.23386 41.1623 8.46042 41.1494C8.55752 41.0652 8.66109 40.9811 8.75171 40.9163C8.8747 40.8192 9.03005 40.7739 9.18541 40.7739C9.41197 40.7739 9.63852 40.884 9.75504 41.0976C9.85214 41.2788 9.9816 41.4342 10.0593 41.6284C10.1564 41.8743 10.2211 42.1268 10.3376 42.3663C10.4347 42.5734 10.493 42.7871 10.5771 42.9942C10.6742 43.2272 10.7778 43.4538 10.8425 43.6933C10.9072 43.9328 10.9849 44.1658 11.0497 44.4053C11.1144 44.6384 11.1079 44.839 11.2374 45.0526C11.4963 45.4669 11.7099 45.9589 11.8264 46.4314C11.8847 46.6709 11.9494 46.8845 12.0595 47.1046C12.1824 47.3376 12.2213 47.5836 12.2795 47.8425C12.3313 48.082 12.4414 48.2892 12.5514 48.5028C12.6032 48.6064 12.6809 48.6905 12.7262 48.7941C12.778 48.8977 12.7844 49.0142 12.8233 49.1242C12.8751 49.2731 12.9204 49.4543 12.9786 49.5903C13.011 49.6615 13.0434 49.6938 13.0757 49.6938C13.1081 49.6938 13.1405 49.6615 13.1599 49.5773C13.1728 49.5255 13.1793 49.4673 13.1793 49.4155C13.1793 49.1307 13.1599 48.8459 13.1599 48.5546C13.1599 47.972 13.1923 47.3894 13.1664 46.8004C13.1405 46.2631 13.0498 45.7388 13.0498 45.195C13.0498 44.8131 13.0498 44.4377 13.0498 44.0558C13.0498 43.8357 13.0498 43.6156 13.0498 43.3955C13.0498 43.0589 13.024 42.7159 13.024 42.3793C13.024 42.2045 13.0304 42.0297 13.0498 41.8549C12.8815 41.8614 12.7003 41.8679 12.5449 41.8679C12.4414 41.8679 12.3313 41.8614 12.2278 41.8485C12.1242 41.8355 11.9818 41.8226 11.8847 41.7708C11.7811 41.7125 11.6711 41.5636 11.6711 41.4989C11.6711 41.4601 11.6775 41.4212 11.7293 41.363C11.7876 41.2918 11.93 41.2465 12.0141 41.227C12.2537 41.1817 12.8621 41.1429 12.9657 41.1429C13.0434 41.1429 13.1793 41.1429 13.3411 41.1364C13.4318 41.0458 13.5418 40.994 13.6777 40.994C13.8201 40.994 13.8978 41.0458 13.9367 41.117C14.2668 41.1494 14.5322 41.1429 14.6681 41.1429Z" fill="white"/>
<path d="M19.6071 47.4219C19.6071 47.3442 19.5748 47.1759 19.5618 47.1047C19.523 46.8652 19.4777 46.6904 19.4777 46.4703C19.4712 45.9654 19.4583 45.4411 19.4324 44.9362C19.4194 44.6967 19.3806 44.4572 19.3417 44.2177C19.2964 43.9458 19.2576 43.6804 19.2511 43.4021C19.2511 43.3179 19.2317 42.9878 19.2123 42.7418C19.1864 42.5088 19.1475 42.3534 19.0699 42.3534C18.9404 42.3534 18.7721 42.6512 18.7592 42.7289C18.7074 42.9166 18.6685 43.1367 18.6168 43.3309C18.5909 43.428 18.5844 43.525 18.5714 43.6157C18.5585 43.7192 18.5456 43.8163 18.5132 43.9134C18.442 44.1206 18.4226 44.3471 18.3902 44.5478C18.3255 44.9815 18.1831 45.3893 18.0536 45.8036C17.9953 45.9978 17.963 46.1984 17.9241 46.3991C17.8853 46.6257 17.84 46.8522 17.7558 47.0788C17.717 47.1694 17.6523 47.4736 17.6523 47.5837C17.6523 47.6419 17.6911 47.6419 17.7623 47.6419C17.8724 47.6419 18.0795 47.6225 18.1377 47.6225C18.2737 47.6225 18.4031 47.6031 18.5326 47.5901C18.6362 47.5772 18.7397 47.5643 18.8498 47.5643C18.9598 47.5643 19.1087 47.5837 19.2641 47.5837C19.3547 47.5837 19.4518 47.5837 19.523 47.5448C19.5748 47.506 19.6071 47.4672 19.6071 47.4219ZM23.737 51.9595C23.737 52.0631 23.6658 52.1019 23.5881 52.1925C23.5169 52.2767 23.4068 52.322 23.3033 52.3414C23.1285 52.3867 22.999 52.3932 22.876 52.3932C22.7595 52.3932 22.643 52.3802 22.4877 52.3802C22.4553 52.3802 22.41 52.3802 22.3517 52.3802C22.2741 52.4126 22.1899 52.4385 22.1058 52.4579C22.0151 52.4773 21.918 52.4968 21.8274 52.4968C21.6267 52.4968 21.4067 52.4644 21.2189 52.3932C21.083 52.3932 20.9535 52.3932 20.8241 52.3932C20.4357 52.3932 20.1056 52.3867 19.9696 52.3738C19.8337 52.3608 19.6525 52.3543 19.5295 52.2961C19.4453 52.2572 19.2511 52.1407 19.2511 52.0242C19.2446 51.8106 19.5295 51.7782 19.6913 51.7523C19.769 51.7394 19.9373 51.7329 20.1574 51.7265C20.1444 51.6035 20.1379 51.4805 20.1315 51.3963C20.112 51.241 20.1056 51.0791 20.0797 50.9367C20.0667 50.8591 20.0408 50.8008 20.0408 50.7102C20.0408 50.6325 20.0732 50.5225 20.0732 50.4448C20.0732 50.3542 20.0149 50.2959 19.9955 50.1664C19.9761 49.9787 19.9178 49.791 19.892 49.6033C19.8725 49.435 19.8855 49.2861 19.8466 49.1178C19.8078 48.9301 19.8143 48.7424 19.7819 48.5546C19.7625 48.4446 19.7431 48.4058 19.6654 48.4058C19.6266 48.4058 19.5683 48.4252 19.4971 48.4252C19.3094 48.4252 19.1281 48.4381 18.9469 48.4511C18.7656 48.464 18.5909 48.477 18.4096 48.477C18.2607 48.477 18.1119 48.4964 17.963 48.4964C17.8982 48.4964 17.6976 48.464 17.5681 48.464C17.4128 48.464 17.4063 48.587 17.4063 48.6906C17.4063 48.8653 17.3416 49.0984 17.3027 49.2796C17.2315 49.5968 17.1797 49.901 17.115 50.2312C17.0503 50.5742 16.9079 51.1698 16.8108 51.5128C16.9661 51.5064 17.1215 51.5064 17.348 51.5064C17.5746 51.5064 17.963 51.5193 17.9889 51.7977C17.9759 51.9271 17.963 51.966 17.8788 52.0631C17.8076 52.1472 17.6976 52.186 17.594 52.2119C17.4387 52.2508 17.3351 52.2637 17.2315 52.2637C17.1215 52.2637 17.0179 52.2508 16.8561 52.2508C16.6101 52.2508 16.3576 52.2637 16.1117 52.2637C15.9757 52.2637 15.8398 52.2572 15.7039 52.2443C15.5679 52.2314 15.3867 52.2184 15.2637 52.1666C15.1213 52.1084 14.9854 51.9595 14.9854 51.8948C14.9854 51.8559 14.9918 51.8171 15.0566 51.7588C15.1342 51.6876 15.3155 51.6423 15.4255 51.6229C15.6521 51.5905 15.8786 51.5776 16.1052 51.5582C16.1052 51.5452 16.1052 51.5323 16.1052 51.5128C16.0987 51.3251 16.157 51.0986 16.1699 51.0079C16.2347 50.6131 16.3059 50.2376 16.3771 49.8493C16.4289 49.5515 16.4742 49.2278 16.5454 48.9107C16.5648 48.833 16.636 48.5935 16.6295 48.464C16.6295 48.3151 16.2864 48.3151 16.157 48.2375C16.0405 48.1792 15.9887 48.1274 15.9887 48.0497C15.9887 47.9009 16.1376 47.862 16.3059 47.8232C16.4159 47.8038 16.6619 47.7843 16.7719 47.6937C16.8625 47.6225 16.8561 47.3183 16.8949 47.1888C16.9985 46.8134 17.0956 46.4379 17.1927 46.0819C17.2962 45.6871 17.4063 45.3116 17.4904 44.9362C17.5811 44.5607 17.6587 44.1853 17.7364 43.8163C17.8076 43.4603 17.8594 43.1043 17.9824 42.7677C18.1054 42.4117 18.2284 42.0233 18.3967 41.6802L18.5585 41.3436C18.6362 41.1883 18.6815 41.02 18.8304 40.9099C19.0893 40.7222 19.4842 40.6639 19.8208 40.6639C20.0473 40.6639 20.1768 40.7028 20.3451 40.774C20.5134 40.8517 20.5198 40.9617 20.6299 41.13C20.7076 41.24 20.8176 41.3371 20.8759 41.4472C20.9341 41.5766 20.9341 41.7061 20.973 41.842C21.0506 42.101 21.0442 42.4052 21.1024 42.6835C21.1672 42.9813 21.2837 43.2467 21.3225 43.5445C21.3678 43.9005 21.3872 44.2177 21.4714 44.5543C21.5491 44.8715 21.6138 45.1886 21.6397 45.5252C21.6526 45.6871 21.6785 45.8424 21.7174 46.0042C21.7627 46.2179 21.8209 46.425 21.8468 46.6321C21.8598 46.7228 21.8857 46.9169 21.9245 47.0982C21.9633 47.2471 22.0151 47.3895 22.0799 47.4413C22.1252 47.4736 22.2028 47.4801 22.287 47.4801C22.3517 47.4801 22.4165 47.4736 22.4747 47.4736C22.643 47.4736 22.8437 47.5319 22.9473 47.6808C22.9861 47.739 23.0055 47.7714 23.0055 47.8102C23.0055 47.8685 22.9667 47.9203 22.8955 47.9785C22.7854 48.0692 22.6948 48.1857 22.5653 48.2375C22.5265 48.2569 22.4488 48.2634 22.3776 48.2698C22.3194 48.2763 22.2676 48.2892 22.2482 48.3151C22.2287 48.3346 22.2287 48.354 22.2287 48.3928C22.2287 48.4446 22.2482 48.5223 22.2676 48.5935C22.287 48.6776 22.3129 48.7618 22.3129 48.8395V49.0466C22.3129 49.1178 22.3194 49.1761 22.3388 49.2537C22.3776 49.422 22.4359 49.5903 22.4618 49.7586C22.4812 49.9205 22.5265 50.0888 22.5653 50.2571C22.6042 50.4383 22.643 50.6131 22.6495 50.7879C22.656 51.0338 22.6754 51.1633 22.7336 51.3899C22.7531 51.4546 22.766 51.5258 22.779 51.597C22.9149 51.5905 23.0573 51.5905 23.2127 51.5905C23.478 51.6294 23.7305 51.7588 23.737 51.9595Z" fill="white"/>
<path d="M30.1324 51.6165C30.1259 51.8043 30.1324 52.335 29.8346 52.335C29.7052 52.335 29.6469 52.3027 29.5498 52.2185C29.4657 52.1473 29.4268 52.0373 29.4009 51.9337C29.3297 51.6295 29.375 51.3641 29.388 51.1116C29.2715 51.2799 29.0579 51.6036 28.9154 51.733C28.5076 52.1085 28.0675 52.3415 27.4719 52.3415C27.349 52.3415 27.226 52.3286 27.0965 52.3092C26.6887 52.2444 26.2615 52.102 25.8666 51.9013C25.5559 51.7395 25.2776 51.5389 25.051 51.2994C24.7986 51.034 24.6238 50.7103 24.4943 50.3866C24.3519 50.0177 24.2678 49.6487 24.216 49.2474C24.1577 48.8266 24.1318 48.4059 24.1318 47.9851C24.1318 47.5709 24.1513 47.1566 24.1836 46.7423C24.216 46.3474 24.203 45.9591 24.2742 45.5707C24.3454 45.1693 24.4879 44.7615 24.6173 44.3602C24.7533 43.9459 24.8698 43.5316 25.0381 43.1497C25.1934 42.7808 25.42 42.4959 25.6854 42.1917C25.9314 41.9069 26.1514 41.5768 26.4427 41.3243C26.7211 41.0783 27.0512 40.9748 27.4072 40.8777C27.6467 40.8129 27.9251 40.7417 28.1905 40.7417C28.3005 40.7417 28.4041 40.7547 28.5076 40.7806C28.6436 40.8194 28.7536 40.9424 28.8637 41.0266C29.0125 41.1366 29.0255 41.279 29.155 41.4149C29.2391 41.5056 29.3103 41.6998 29.3686 41.8098C29.375 41.6609 29.3815 41.4408 29.388 41.3632C29.4009 41.2272 29.4074 41.046 29.4657 40.923C29.4915 40.8583 29.511 40.8129 29.5757 40.7482C29.6081 40.7159 29.6857 40.6576 29.7375 40.6576C29.7958 40.6576 29.854 40.7223 29.8735 40.7482C29.9382 40.8453 29.99 40.9942 30.0029 41.1042C30.0223 41.2402 30.0288 41.5444 30.0353 41.8745C30.0418 42.3082 30.0482 42.7808 30.0612 42.9555C30.0871 43.3116 30.1 43.4993 30.0935 43.8553C30.1 43.8941 30.1 43.933 30.1 43.9718C30.1 44.0495 30.0935 44.1272 30.0741 44.1984C30.0482 44.3861 29.977 44.5738 29.7958 44.5738C29.6663 44.5738 29.6081 44.5414 29.511 44.4573C29.4268 44.3861 29.388 44.276 29.3621 44.1725C29.2844 43.8229 29.3491 43.7453 29.3491 43.3957C29.3491 43.3569 29.3491 43.2986 29.3491 43.2339C29.2715 42.8973 29.1744 42.5866 29.0579 42.25C28.9672 41.9781 28.5853 41.5379 28.2422 41.5379C28.0416 41.5379 27.8474 41.6674 27.6985 41.7904C27.6338 41.8422 27.582 41.9069 27.5237 41.9652C27.4719 42.0169 27.3813 42.0752 27.349 42.1335C27.2842 42.25 27.3295 42.4442 27.2778 42.5801C27.2001 42.7808 27.1483 42.9555 27.103 43.1627C27.0318 43.5316 26.9412 43.9006 26.87 44.2761C26.7987 44.6515 26.7534 45.0269 26.7599 45.4088C26.7599 45.4736 26.7858 45.5448 26.7858 45.6095C26.7858 45.7066 26.734 45.7778 26.7275 45.8749C26.7275 45.9849 26.7534 46.0885 26.7664 46.1986C26.7664 46.2503 26.7664 46.3086 26.747 46.3669C26.7146 46.464 26.7017 46.5157 26.7017 46.574C26.7017 46.6128 26.7081 46.6581 26.7275 46.7294C26.7405 46.7941 26.747 46.8523 26.747 46.9171C26.747 47.0206 26.734 47.1307 26.734 47.2407C26.734 47.655 26.8829 48.0499 26.9023 48.4641C26.9153 48.8784 26.9282 49.2797 27.0253 49.6876C27.0641 49.8559 27.0641 50.0436 27.1159 50.2119C27.1677 50.3802 27.3036 50.5161 27.3684 50.6779C27.5043 51.0016 27.7438 51.2476 28.1193 51.2605C28.4753 51.267 28.9219 50.8786 29.0837 50.6003C29.2132 50.3802 29.3103 50.2248 29.3815 49.9788C29.3815 49.4869 29.388 48.9367 29.4139 48.7554C29.4268 48.6195 29.4333 48.4382 29.4916 48.3153C29.5174 48.2505 29.5369 48.2117 29.6016 48.1405C29.634 48.1081 29.7116 48.0499 29.7634 48.0499C29.8217 48.0499 29.8799 48.1146 29.8994 48.1405C29.9641 48.2376 30.0159 48.3865 30.0288 48.4965C30.0482 48.6324 30.0547 49.3121 30.0612 49.6422C30.0677 50.0759 30.0741 50.5485 30.0871 50.7232C30.1324 51.0728 30.1453 51.254 30.1324 51.6165Z" fill="white"/>
<path d="M36.2493 45.7453C36.1263 45.9524 35.9063 46.1919 35.9063 46.425C35.9063 46.5868 36.217 46.5997 36.5406 46.7357C36.8643 46.8781 37.2721 47.2082 37.4274 47.5254C37.5116 47.7066 37.6022 47.8814 37.6864 48.0627C37.777 48.2633 37.8482 48.4705 37.887 48.697C37.9194 48.9171 37.9518 49.0466 38.0424 49.2472C38.133 49.4479 38.1459 49.6809 38.2042 49.8945C38.2495 50.0628 38.2366 50.2635 38.2948 50.4189C38.3272 50.4965 38.4049 50.5613 38.4437 50.639C38.489 50.7296 38.5667 50.8202 38.5926 50.9173C38.6444 51.0985 38.7479 51.2345 38.8191 51.4028C38.9033 51.5905 39.0004 51.6358 39.1816 51.7264C39.2917 51.7782 39.3694 51.9077 39.3694 52.0307C39.3694 52.076 39.3629 52.1213 39.337 52.1601C39.2658 52.2961 39.0133 52.3802 38.7803 52.3802C38.5602 52.3802 38.2236 52.3414 37.9064 52.2508C37.5698 52.1537 37.2073 51.8171 37.0455 51.6617C36.8902 51.5193 36.7801 51.3704 36.6895 51.2151C36.5924 51.0403 36.5147 50.859 36.4241 50.6584C36.2558 50.27 36.2234 50.0175 36.0875 49.6097C35.9969 49.3379 35.9451 49.0595 35.8804 48.7812C35.8415 48.6129 35.8027 48.4446 35.7444 48.2827C35.7185 48.2115 35.6603 48.0368 35.5955 47.8944C35.5179 47.7066 35.4208 47.5383 35.2848 47.5383C35.2331 47.5383 35.1748 47.5642 35.1101 47.6354C35.013 47.739 34.8965 47.8879 34.8188 48.0044C34.6958 48.1727 34.6181 48.3928 34.5987 48.5999C34.5793 48.7294 34.5534 48.8718 34.5534 49.0077C34.5534 49.0401 34.5534 49.066 34.5598 49.0984C34.5728 49.1954 34.5793 49.4803 34.5793 49.6486C34.5793 50.1664 34.6116 50.4706 34.5793 50.9885C34.5663 51.1568 34.5598 51.3316 34.534 51.4999C34.7152 51.4999 34.8576 51.4934 34.9482 51.4934C35.1748 51.4934 35.6085 51.5063 35.6085 51.7653C35.6085 51.9142 35.5826 51.9465 35.492 52.0566C35.4208 52.1407 35.3043 52.1795 35.1942 52.2054C35.0259 52.2443 34.9223 52.2572 34.8188 52.2572C34.7735 52.2572 34.4951 52.2572 34.1779 52.2572C34.0679 52.3478 33.9449 52.3867 33.8154 52.3867C33.6601 52.3867 33.4983 52.3349 33.3429 52.2637C33.2134 52.2637 33.1099 52.2637 33.0775 52.2637C32.8186 52.2637 32.4108 52.2637 32.1454 52.2637C32.003 52.2637 31.8606 52.2572 31.7182 52.2443C31.5758 52.2313 31.388 52.2184 31.2586 52.1666C31.1162 52.1083 30.9738 51.9595 30.9738 51.8947C30.9738 51.8559 30.9867 51.8171 31.0514 51.7588C31.1356 51.6876 31.3233 51.6423 31.4398 51.6229C31.7635 51.5775 32.0936 51.5387 32.2295 51.5387C32.3137 51.5387 32.4302 51.5387 32.5726 51.5322C32.5597 51.4934 32.5467 51.461 32.5273 51.4222C32.3072 51.0403 32.2748 50.6389 32.2748 50.2053C32.2748 49.7003 32.2878 49.1954 32.3007 48.6841C32.3137 48.1339 32.3266 47.5901 32.3266 47.0464C32.3266 46.5868 32.2878 46.1272 32.2878 45.6676C32.2878 45.2339 32.3396 44.8002 32.3396 44.3665C32.3396 44.0947 32.3784 43.8357 32.3784 43.5574C32.3784 43.3438 32.3461 43.1366 32.3396 42.923C32.3331 42.5476 32.3396 42.211 32.3396 41.8485C32.2813 41.855 32.3266 41.8614 32.1389 41.8614C31.9965 41.8614 31.8541 41.855 31.7117 41.842C31.5693 41.8291 31.3816 41.8161 31.2521 41.7643C31.1097 41.7061 30.9673 41.5572 30.9673 41.4925C30.9673 41.4536 30.9738 41.4148 31.045 41.3565C31.1291 41.2853 31.3168 41.24 31.4333 41.2206C31.757 41.1753 32.2101 41.1494 32.3396 41.1494C32.3655 41.1494 32.4108 41.1494 32.469 41.1494C32.5661 41.0264 32.7085 40.9552 32.8898 40.9487C32.9351 40.9487 32.9804 40.9552 33.0322 40.9617C33.1681 40.9876 33.3688 41.0458 33.5177 41.13C34.0938 41.117 34.7152 41.1041 34.9418 41.1041C35.1683 41.1041 35.6085 41.1106 35.6085 41.3695C35.6085 41.5184 35.5826 41.5572 35.492 41.6608C35.4208 41.7449 35.3043 41.7838 35.1942 41.8097C35.0194 41.8485 34.9094 41.8614 34.7994 41.8614C34.7152 41.8614 34.3851 41.8614 33.9967 41.855C34.0679 41.9909 34.1326 42.1268 34.1326 42.2887C34.1326 42.3663 34.1132 42.444 34.1132 42.5411C34.1132 42.6058 34.1326 42.6382 34.152 42.7029C34.1909 42.8777 34.1974 43.0654 34.2232 43.2467C34.2297 43.3049 34.2362 43.3632 34.2362 43.4215C34.2362 43.5444 34.2232 43.6674 34.2232 43.7904C34.2232 44.0429 34.2815 44.2953 34.3139 44.5478C34.3398 44.742 34.4174 44.9232 34.4563 45.1174C34.4822 45.2663 34.5016 45.4216 34.5016 45.577C34.5016 45.6288 34.5016 45.687 34.4951 45.7388C34.4822 45.8553 34.4822 45.9654 34.4886 46.0819C34.4886 46.1855 34.4628 46.3214 34.4628 46.4314C34.4628 46.5026 34.4886 46.6515 34.5598 46.6515C34.6311 46.6515 34.7217 46.5221 34.767 46.425C34.877 46.2114 34.9741 45.9913 35.0842 45.7777C35.1618 45.6223 35.246 45.4669 35.3301 45.3116C35.479 45.0462 35.6409 44.7808 35.7833 44.5154C35.8998 44.3018 36.0163 44.0817 36.1263 43.8681C36.2817 43.5703 36.437 43.2726 36.5859 42.9748C36.7542 42.6447 36.9161 42.321 37.0779 41.9909C37.0908 41.965 37.1038 41.9391 37.1102 41.9197C37.0196 41.9197 36.9355 41.9132 36.8513 41.9003C36.7542 41.8873 36.6183 41.8744 36.5212 41.8226C36.4176 41.7643 36.3205 41.6155 36.3205 41.5507C36.3205 41.5119 36.327 41.4731 36.3723 41.4148C36.4306 41.3436 36.5665 41.2983 36.6507 41.2789C36.8837 41.2335 37.1491 41.1947 37.2915 41.1947C37.3562 41.1947 37.4404 41.1947 37.531 41.1947C37.5504 41.1818 37.5698 41.1688 37.5957 41.1559C37.6799 41.1106 37.7576 41.0911 37.8352 41.0911C37.9194 41.0911 38.0035 41.1106 38.0942 41.13C38.1524 41.1429 38.1848 41.1559 38.2042 41.1818C38.5214 41.1753 38.8127 41.1623 38.968 41.1623C39.1299 41.1623 39.4406 41.1753 39.4406 41.4277C39.4406 41.5766 39.4211 41.6155 39.3564 41.719C39.3046 41.8032 39.2205 41.842 39.1428 41.8679C39.0263 41.9067 38.9486 41.9197 38.8774 41.9197C38.8386 41.9197 38.489 41.9197 38.1395 41.9132C38.0747 42.0621 38.0165 42.1527 37.9323 42.3016C37.7511 42.6382 37.6151 42.9813 37.4468 43.3179C37.2462 43.6998 37.1102 44.1335 36.9355 44.5284C36.7478 44.9491 36.4888 45.344 36.2493 45.7453Z" fill="white"/>
<path d="M43.8616 51.487C44.0946 51.487 44.5478 51.4999 44.5219 51.7782C44.5089 51.9077 44.4895 51.9466 44.4054 52.0436C44.3341 52.1278 44.2176 52.1666 44.1076 52.1925C43.9393 52.2314 43.8357 52.2443 43.7321 52.2443C43.6804 52.2443 43.3502 52.2314 43.0007 52.2378C42.567 52.2443 42.1074 52.2702 42.0103 52.2702C41.7579 52.2702 41.3242 52.2508 41.0652 52.2508C40.9228 52.2508 40.7804 52.2443 40.6445 52.2314C40.5021 52.2184 40.3144 52.2055 40.1849 52.1537C40.0425 52.0954 39.9001 51.9466 39.9001 51.8818C39.9001 51.843 39.9066 51.8041 39.9778 51.7459C40.0619 51.6747 40.2496 51.6294 40.3661 51.61C40.6898 51.5646 41.0652 51.5258 41.1947 51.5258C41.24 51.5258 41.2983 51.5258 41.3759 51.5258C41.253 51.4158 41.1623 51.2863 41.1623 51.1245C41.1623 51.0338 41.1494 50.9562 41.1235 50.8655C41.1105 50.8073 41.1041 50.749 41.1041 50.6908C41.1041 50.639 41.1105 50.5807 41.1105 50.5289C41.117 50.3736 41.1235 50.2182 41.1235 50.0629C41.1235 49.9981 41.1235 49.9334 41.1235 49.8687C41.1105 49.0013 41.1494 48.1339 41.13 47.273C41.117 46.8134 41.13 46.3538 41.1429 45.9007C41.1559 45.5058 41.1688 45.1045 41.1753 44.7096C41.1753 44.4896 41.1753 44.2759 41.1753 44.0559C41.1753 43.784 41.1753 43.5121 41.1753 43.2402C41.1753 42.8583 41.1623 42.47 41.1753 42.0816C41.1753 42.0233 41.1818 41.9715 41.1882 41.9133C41.1494 41.9133 41.1105 41.9133 41.0717 41.9133C40.9293 41.9133 40.7869 41.9068 40.6445 41.8938C40.5021 41.8809 40.3144 41.868 40.1849 41.8162C40.0425 41.7579 39.9001 41.609 39.9001 41.5443C39.9001 41.5055 39.8807 41.4537 39.9389 41.3889C40.0036 41.3177 40.2302 41.2918 40.3467 41.2724C40.651 41.2271 41.0588 41.1948 41.2141 41.1883C41.2141 41.1559 41.2076 41.1235 41.2076 41.0912C41.2076 41.007 41.2206 40.9358 41.2659 40.884C41.3242 40.8258 41.4407 40.7805 41.5184 40.7481C41.609 40.7093 41.7061 40.6769 41.8032 40.6575C41.8873 40.6445 41.9715 40.6316 42.0621 40.6316C42.1786 40.6316 42.2951 40.6445 42.4052 40.6769C42.677 40.7481 42.9036 40.9229 43.0395 41.1624C43.4085 41.1559 43.7257 41.1494 43.8746 41.1494C44.1076 41.1494 44.5607 41.1624 44.5348 41.4407C44.5219 41.5702 44.5024 41.609 44.4183 41.7061C44.3471 41.7903 44.2306 41.8291 44.1205 41.855C43.9522 41.8938 43.8487 41.9068 43.7451 41.9068C43.7063 41.9068 43.4991 41.9068 43.2208 41.9068L43.2272 41.9392C43.2596 42.1528 43.292 42.3599 43.3243 42.5735C43.3502 42.7871 43.3697 42.9943 43.3697 43.2079C43.3697 43.415 43.3567 43.6157 43.3567 43.8228C43.3567 43.9264 43.3373 44.0235 43.3373 44.1335C43.3373 44.2177 43.3502 44.3018 43.3632 44.386C43.4279 44.8132 43.4214 45.2534 43.4409 45.6806C43.4603 46.1596 43.4668 46.6386 43.4797 47.1176C43.4862 47.506 43.4926 47.9009 43.5056 48.2893C43.5185 48.723 43.5897 49.1567 43.6027 49.5903C43.6092 49.7975 43.6156 50.0046 43.6221 50.2118C43.6286 50.4318 43.6286 50.6584 43.6156 50.8785C43.6027 51.0727 43.5962 51.2928 43.525 51.4805C43.6545 51.487 43.7775 51.487 43.8616 51.487Z" fill="white"/>
<path d="M53.0082 41.1495C53.1765 41.1495 53.5002 41.1624 53.5002 41.4149C53.5002 41.5638 53.4807 41.6026 53.4095 41.7062C53.3578 41.7903 53.2671 41.8292 53.1895 41.8551C53.0665 41.8939 52.9888 41.9068 52.9111 41.9068C52.8723 41.9068 52.6457 41.9068 52.3803 41.9004C52.3997 42.0234 52.4192 42.1528 52.4192 42.2887C52.4192 42.4894 52.3868 42.6901 52.3868 42.8907C52.3868 43.2015 52.4386 43.5057 52.4774 43.8099C52.5163 44.1206 52.5227 44.4249 52.5357 44.7356C52.5421 44.988 52.5421 45.2469 52.5551 45.4994C52.568 45.7713 52.6069 46.0431 52.6069 46.315C52.6069 46.5869 52.5357 46.8523 52.5357 47.1177C52.5357 47.3831 52.5421 47.6485 52.5421 47.9074C52.5421 48.2181 52.5357 48.5288 52.5033 48.846C52.4774 49.0984 52.4968 49.3444 52.4839 49.5969C52.4774 49.8558 52.445 50.1082 52.445 50.3672C52.445 50.6002 52.5357 50.9174 52.5357 51.1957C52.5357 51.3899 52.4904 51.5647 52.348 51.7006C52.1214 51.9078 51.8366 51.9854 51.5388 51.9854C51.3058 51.9854 51.0598 51.9142 50.8332 51.8301C50.5873 51.7395 50.3672 51.6294 50.1924 51.4935C49.8105 51.1828 49.5904 50.7361 49.3897 50.2895C49.1697 49.7846 48.9431 49.2797 48.7424 48.7683C48.6259 48.477 48.5159 48.1857 48.4123 47.888C48.244 47.4219 48.0822 46.9494 47.9268 46.4833C47.8233 46.1791 47.7262 45.8684 47.6226 45.5641C47.5384 45.3052 47.4478 45.0592 47.3184 44.8197C47.273 44.7356 47.2277 44.6514 47.1889 44.6514C47.1306 44.6514 47.1242 44.8068 47.1242 44.8845C47.1242 44.9686 47.1371 45.0592 47.1371 45.1304C47.1371 45.4217 47.1759 45.7001 47.1824 45.9849C47.1889 46.548 47.2407 47.1047 47.2795 47.6679C47.2925 47.8362 47.2925 48.0045 47.2925 48.1728C47.2925 48.5482 47.273 48.9237 47.273 49.2991C47.273 49.7393 47.2342 50.173 47.2342 50.6067C47.2342 50.7426 47.2407 50.8785 47.2472 51.0145C47.2472 51.1828 47.2083 51.3381 47.1954 51.5C47.5126 51.487 47.7974 51.4805 47.9462 51.4805C48.1145 51.4805 48.4382 51.487 48.4382 51.7459C48.4382 51.8948 48.4188 51.9337 48.3476 52.0372C48.2958 52.1214 48.2052 52.1602 48.1275 52.1861C48.0045 52.2249 47.9268 52.2314 47.8491 52.2379C47.8038 52.2379 47.4996 52.2314 47.2083 52.2314C46.93 52.2314 46.671 52.2249 46.6063 52.2249C46.4186 52.2249 46.0561 52.2379 45.8619 52.2379C45.7583 52.2379 45.6483 52.2314 45.5447 52.2185C45.4412 52.2055 45.2988 52.1926 45.2017 52.1408C45.0916 52.0825 44.988 51.9336 44.988 51.8689C44.988 51.8301 44.9945 51.7912 45.0463 51.733C45.1046 51.6618 45.247 51.6165 45.3311 51.597C45.5706 51.5517 45.9978 51.5129 46.0949 51.5129C46.1467 51.5129 46.205 51.5129 46.2632 51.5129C46.2762 50.775 46.3215 50.0823 46.3215 49.325C46.3215 49.1114 46.3215 48.8978 46.3086 48.6842C46.2762 47.9203 46.2632 47.163 46.2632 46.4056C46.2632 45.9655 46.2697 45.5253 46.2762 45.0851C46.2827 44.5996 46.2956 44.1206 46.3086 43.6352C46.328 43.059 46.3474 42.4829 46.3668 41.9004C46.192 41.9004 45.9978 41.9004 45.849 41.9004C45.7454 41.9004 45.6353 41.8939 45.5318 41.8809C45.4282 41.868 45.2858 41.8551 45.1887 41.8033C45.0851 41.745 44.9751 41.5961 44.9751 41.5314C44.9751 41.4926 44.9816 41.4537 45.0334 41.3955C45.0916 41.3243 45.234 41.2789 45.3182 41.2595C45.5577 41.2142 46.1661 41.1754 46.2697 41.1754C46.3733 41.1754 46.574 41.1689 46.8005 41.156C46.8976 41.0718 47.0012 40.9877 47.0918 40.9229C47.2148 40.8258 47.3701 40.7805 47.5255 40.7805C47.7521 40.7805 47.9786 40.8906 48.0951 41.1042C48.1922 41.2854 48.3217 41.4408 48.3994 41.635C48.4965 41.8809 48.5612 42.1334 48.6712 42.3729C48.7683 42.58 48.8266 42.7936 48.9107 43.0008C49.0078 43.2338 49.1114 43.4604 49.1761 43.6999C49.2409 43.9394 49.3185 44.1724 49.3833 44.4119C49.448 44.645 49.4415 44.8456 49.571 45.0592C49.8299 45.4735 50.0435 45.9655 50.16 46.438C50.2183 46.6775 50.283 46.8911 50.3931 47.1112C50.5161 47.3442 50.5549 47.5902 50.6132 47.8491C50.6649 48.0886 50.775 48.2958 50.885 48.5094C50.9368 48.613 51.0145 48.6971 51.0598 48.8007C51.1116 48.9042 51.1181 49.0208 51.1569 49.1308C51.2087 49.2797 51.2475 49.4609 51.3123 49.5969C51.3446 49.6681 51.377 49.7069 51.4094 49.7069C51.4417 49.7069 51.4741 49.6745 51.4935 49.5904C51.5065 49.5386 51.5129 49.4804 51.5129 49.4286C51.5129 49.1437 51.4935 48.8589 51.4935 48.5676C51.4935 47.9851 51.5259 47.4025 51.5 46.8134C51.4741 46.2762 51.3835 45.7518 51.3835 45.2081C51.3835 44.8262 51.3835 44.4508 51.3835 44.0688C51.3835 43.8488 51.3835 43.6287 51.3835 43.4086C51.3835 43.072 51.3576 42.7289 51.3576 42.3923C51.3576 42.2175 51.364 42.0428 51.3835 41.868C51.2152 41.8745 51.0339 41.8809 50.8786 41.8809C50.775 41.8809 50.6649 41.8745 50.5614 41.8615C50.4578 41.8486 50.3154 41.8356 50.2183 41.7838C50.1147 41.7256 50.0112 41.5767 50.0112 41.512C50.0112 41.4731 50.0176 41.4343 50.0694 41.376C50.1277 41.3048 50.2701 41.2595 50.3542 41.2401C50.5937 41.1948 51.2087 41.156 51.3058 41.156C51.3835 41.156 51.5194 41.156 51.6812 41.1495C51.7718 41.0589 51.8819 41.0071 52.0178 41.0071C52.1602 41.0071 52.2379 41.0589 52.2703 41.1301C52.6004 41.156 52.8658 41.1495 53.0082 41.1495Z" fill="white"/>
<path d="M61.2549 47.4348C61.2549 47.6031 61.0672 47.7261 60.9247 47.7973C60.7241 47.8944 60.4198 47.9397 60.1998 47.9656C60.0056 47.9915 59.8826 48.0044 59.8826 48.1857C59.8826 48.3216 59.9149 48.6453 59.9149 48.7618C59.9149 48.8265 59.9149 49.2602 59.9149 49.3249C59.9214 49.4415 59.9214 49.5774 59.9279 49.7133C59.9344 50.147 59.9408 50.6778 59.9538 50.8526C59.9797 51.2151 59.9991 51.4028 59.9861 51.7588C59.9797 51.9465 59.9926 52.4773 59.6884 52.4773C59.5589 52.4773 59.5007 52.445 59.4036 52.3608C59.3194 52.2896 59.2806 52.1796 59.2547 52.076C59.2223 51.9465 59.2158 51.8559 59.2158 51.7718C59.2158 51.6294 59.2417 51.5193 59.2417 51.2992V51.2539C59.1317 51.6099 58.9051 51.9077 58.5944 52.1472C58.1543 52.4838 57.8241 52.6392 57.2675 52.6392C56.9308 52.6392 56.6007 52.5809 56.2835 52.4773C55.9146 52.3544 55.6168 52.1537 55.3644 51.9012C54.9954 51.5387 54.73 51.0727 54.484 50.6001C54.2963 50.2312 54.1927 49.8557 54.128 49.4674C54.0827 49.202 54.0439 48.9301 54.005 48.6582C53.9662 48.3863 53.9791 48.2051 53.9791 47.9591C53.9791 47.0141 54.2251 46.0625 54.4646 45.0268C54.5746 44.5607 54.6782 44.0817 54.8336 43.6157C54.9954 43.1172 55.1961 42.6382 55.4938 42.211C55.7527 41.8421 56.044 41.4407 56.3871 41.1494C56.5489 41.0135 56.7172 40.9229 56.9179 40.8646C57.1704 40.7934 57.3904 40.6575 57.6558 40.651C57.7011 40.651 57.74 40.6445 57.7723 40.6445C57.8889 40.6445 57.9665 40.6575 58.1478 40.6834C58.3679 40.7157 58.5815 40.7805 58.7498 40.8776C58.8987 40.9682 59.0152 41.0976 59.1058 41.253C59.1188 41.143 59.1317 41.0264 59.1705 40.9358C59.2029 40.8711 59.2158 40.8323 59.287 40.761C59.3194 40.7287 59.3971 40.6704 59.4489 40.6704C59.5071 40.6704 59.5654 40.7352 59.5848 40.761C59.6495 40.8581 59.7013 41.007 59.7143 41.1171C59.7337 41.253 59.7402 41.5572 59.7466 41.8874C59.7531 42.3211 59.7596 42.7936 59.7725 42.9684C59.7984 43.3309 59.8114 43.5121 59.8049 43.8746C59.7984 44.0623 59.8049 44.5931 59.5071 44.5931C59.3777 44.5931 59.3194 44.5608 59.2223 44.4766C59.1382 44.4054 59.0929 44.2954 59.0734 44.1918C59.054 44.0882 59.0475 43.9976 59.0475 43.9005C59.0475 43.7646 59.0605 43.6222 59.0605 43.4215C59.0475 43.305 59.0346 43.1885 59.0217 43.0719C58.9958 42.813 58.9505 42.5606 58.9116 42.3081C58.8728 42.0751 58.7757 41.8485 58.6333 41.6349C58.5362 41.486 58.2967 41.4278 58.1219 41.4278C57.8759 41.4278 57.727 41.5508 57.604 41.745C57.4875 41.9391 57.3192 42.0945 57.2416 42.3146C57.1639 42.5347 57.1186 42.7871 57.0991 43.0202C57.0797 43.2661 57.0344 43.4603 56.9697 43.6934C56.8985 43.9458 56.8791 44.2242 56.8273 44.4831C56.782 44.7161 56.7625 44.9556 56.7367 45.1886C56.7172 45.4087 56.6525 45.6223 56.6266 45.8424C56.6007 46.0949 56.5684 46.3473 56.536 46.5933C56.5036 46.8328 56.4777 47.0723 56.4518 47.3118C56.4324 47.5254 56.4001 47.739 56.4001 47.9527C56.4001 48.2569 56.4389 48.5547 56.4518 48.8589C56.4713 49.2667 56.6007 49.681 56.6784 50.0888C56.7108 50.2506 56.7431 50.4124 56.7884 50.5678C56.8467 50.7749 56.9244 50.9756 57.0409 51.1504C57.2027 51.4093 57.494 51.707 57.8241 51.707C58.1025 51.707 58.3096 51.487 58.4585 51.2733C58.6851 50.9432 58.808 50.5678 58.8857 50.1859C58.9505 49.8493 58.9763 49.4997 59.0022 49.1566C59.0217 48.9236 59.0281 48.587 59.0281 48.354C59.0281 48.3087 59.0281 48.2634 59.0281 48.2245C59.0281 48.0433 59.0217 47.9915 58.7627 47.9915C58.5556 47.9915 58.329 48.0239 58.1154 48.0239C57.9212 48.0239 57.74 48.0044 57.5652 47.9138C57.494 47.8814 57.4552 47.8361 57.4552 47.7908C57.4552 47.752 57.4746 47.7131 57.5199 47.6614C57.6235 47.5513 57.727 47.5319 57.8436 47.4736C58.0701 47.3571 58.3355 47.3312 58.6074 47.2859C58.8534 47.2471 59.0993 47.2277 59.3259 47.2082C59.5136 47.1953 59.7013 47.1888 59.889 47.1888C60.1739 47.1888 60.6205 47.1629 60.8018 47.1629C61.0154 47.15 61.2549 47.2212 61.2549 47.4348Z" fill="white"/>
<path d="M73.6768 51.4935C73.9034 51.4935 74.337 51.5065 74.337 51.7589C74.337 51.9078 74.3112 51.9466 74.2205 52.0502C74.1493 52.1343 74.0328 52.1732 73.9228 52.1991C73.7545 52.2379 73.6509 52.2509 73.5473 52.2509C73.5085 52.2509 73.2949 52.2509 73.023 52.2509C72.7835 52.3803 72.4987 52.4709 72.2268 52.4709C72.0585 52.4709 71.8967 52.4386 71.7478 52.3739C71.6701 52.3415 71.6054 52.2962 71.5407 52.2444C71.3206 52.2444 71.1134 52.2573 70.8804 52.2573C70.738 52.2573 70.5956 52.2509 70.4532 52.2379C70.3108 52.225 70.1231 52.212 69.9936 52.1602C69.8512 52.102 69.7088 51.9531 69.7088 51.8884C69.7088 51.8495 69.7153 51.8107 69.7865 51.7524C69.8706 51.6812 70.0583 51.6359 70.1749 51.6165C70.4985 51.5712 70.9451 51.5323 71.0746 51.5323H71.1393C71.1199 51.4547 71.107 51.3835 71.094 51.3058C71.0164 50.8527 70.984 50.3866 70.9451 49.804C70.9063 49.215 70.9193 48.6195 70.8934 48.0434C70.8675 47.519 70.861 46.9947 70.848 46.4704C70.8351 45.959 70.8222 45.4476 70.7963 44.9363C70.7704 44.4637 70.738 43.8229 70.738 43.6417C70.738 43.5575 70.7186 43.5122 70.6862 43.5122C70.6668 43.5122 70.6474 43.5381 70.6344 43.5899C70.5827 43.797 70.5697 44.0171 70.5179 44.2307C70.4144 44.6968 70.3237 45.1693 70.2202 45.6354C70.1166 46.0885 70.0001 46.5416 69.9483 46.9947C69.9224 47.2277 69.8706 47.4478 69.8124 47.6679C69.7541 47.8945 69.6894 48.121 69.6441 48.3541C69.5923 48.6 69.5534 48.8525 69.4304 49.0402C69.3204 49.2085 69.1392 49.3186 68.822 49.3186C68.466 49.3186 68.084 49.1826 67.8316 48.9431C67.5015 48.6324 67.3914 48.121 67.2878 47.6938C67.1713 47.2213 67.0807 46.7423 66.9836 46.2697C66.9642 46.1791 66.8865 45.7713 66.7894 45.2729C66.6988 44.8198 66.5888 44.2954 66.4917 43.8617C66.4205 43.5446 66.3492 43.2727 66.2975 43.1238C66.2716 43.0397 66.2586 43.0138 66.2392 43.0138C66.2004 43.0138 66.181 43.1238 66.168 43.3115C66.1551 43.4669 66.1551 43.6999 66.1486 43.7387C66.1356 43.9459 66.1162 44.1595 66.1162 44.3731C66.1162 44.5414 66.1033 44.8327 66.0839 45.1499C66.0644 45.4347 66.045 45.7389 66.0321 45.9979C66.0191 46.2244 66.0062 46.451 65.9997 46.6775C65.9932 46.8782 65.9609 47.0594 65.9609 47.2536C65.9609 47.4025 65.9673 47.5579 65.9673 47.7068C65.9673 47.8427 65.9609 47.9786 65.9479 48.1146C65.922 48.38 65.8767 48.6389 65.8314 48.9043C65.7473 49.4286 65.689 49.9529 65.6502 50.4837C65.6307 50.7103 65.6437 50.9951 65.6243 51.2734C65.6178 51.3511 65.6113 51.4353 65.5919 51.5129C65.9673 51.5065 66.3298 51.4935 66.4917 51.4935C66.6729 51.4935 67.0419 51.5388 67.0419 51.7977C67.0419 51.9466 66.9448 51.9466 66.8736 52.0502C66.8153 52.1343 66.7182 52.1732 66.6341 52.1991C66.4981 52.2379 66.414 52.2509 66.3298 52.2509C66.2392 52.2509 65.333 52.2379 65.197 52.2379C64.9899 52.2379 64.3944 52.2573 64.1808 52.2573C64.0642 52.2573 63.9542 52.2509 63.8377 52.2379C63.7276 52.225 63.5723 52.212 63.4687 52.1602C63.3522 52.102 63.281 51.9531 63.281 51.8884C63.281 51.8495 63.2875 51.8107 63.3457 51.7524C63.4105 51.6812 63.527 51.6359 63.6176 51.6165C63.8765 51.5712 64.3879 51.5323 64.4915 51.5323C64.5497 51.5323 64.6468 51.5323 64.7698 51.5259C64.7828 51.0728 64.8475 50.6196 64.8799 50.173C64.9252 49.6034 64.9575 49.0337 64.9834 48.4706C65.0093 47.998 65.0287 47.519 65.0482 47.0465C65.0805 46.3733 65.1129 45.7001 65.1517 45.0204C65.1776 44.6838 65.2035 44.3407 65.2294 44.0041C65.2812 43.4669 65.3459 43.1368 65.4236 42.606C65.4624 42.3535 65.4754 42.0687 65.5142 41.8227C65.5142 41.8033 65.5207 41.7839 65.5207 41.758C65.4107 41.7645 65.32 41.7709 65.1517 41.7709C65.0093 41.7709 64.8669 41.7645 64.731 41.7515C64.5886 41.7386 64.4009 41.7256 64.2714 41.6738C64.129 41.6156 63.9866 41.4667 63.9866 41.402C63.9866 41.3631 63.993 41.3243 64.0642 41.266C64.1484 41.1948 64.3361 41.1495 64.4526 41.1301C64.7763 41.0848 65.2165 41.0459 65.3524 41.0459C65.7278 41.0459 66.0256 41.0006 66.4593 41.0006C66.5111 41.0006 66.5629 41.0006 66.6211 41.0006C66.7829 41.0006 66.9707 41.0071 67.1001 41.0783C67.3396 41.2013 67.6244 41.4537 67.7539 41.9263C67.8769 42.3729 68.0776 42.839 68.2006 43.3245C68.2523 43.5381 68.2264 43.7582 68.2977 43.9653C68.3753 44.2178 68.4401 44.4637 68.4724 44.7227C68.5048 44.9363 68.5113 45.1434 68.6019 45.3441C68.699 45.5577 68.7119 45.7195 68.7508 45.9461C68.7637 46.0238 68.8738 46.3539 68.9579 46.6193C69.0356 46.8652 69.0874 47.0465 69.1392 47.0465C69.2557 47.0465 69.2945 46.4769 69.3075 46.3798C69.3528 46.1208 69.4046 45.8555 69.4499 45.5965C69.547 45.0593 69.657 44.522 69.767 43.9847C69.8771 43.4345 69.9742 42.8778 70.1101 42.3341C70.2202 41.8874 70.3885 41.4408 70.7121 41.1042C70.9257 40.8841 71.2235 40.7223 71.5213 40.7223C71.6378 40.7223 71.7996 40.7352 71.9226 40.8194L73.1331 40.8129C73.3661 40.8129 73.7933 40.8259 73.7933 41.1042C73.7933 41.2337 73.7609 41.2725 73.6768 41.3696C73.6056 41.4537 73.4891 41.4926 73.379 41.5185C73.2107 41.5573 73.1072 41.5703 73.0036 41.5703C72.9389 41.5703 72.7317 41.5703 72.5311 41.5638C72.5505 41.6026 72.5634 41.6415 72.5699 41.6868C72.6087 41.9198 72.6346 42.1528 72.667 42.3859C72.6929 42.6319 72.7188 42.8843 72.7511 43.1238C72.7706 43.2986 72.8288 43.4669 72.8288 43.6352C72.8288 43.6611 72.8288 43.6934 72.8288 43.7193C72.8223 43.7776 72.8223 43.8294 72.8223 43.8876C72.8223 44.0559 72.8418 44.2242 72.8612 44.399C72.8871 44.6256 72.9389 44.8521 72.9389 45.0787C72.9389 45.1499 72.9259 45.2211 72.9259 45.2923C72.9259 45.4023 72.9906 45.493 73.0101 45.603C73.023 45.6677 73.0295 45.7325 73.036 45.8037C73.0424 45.9396 73.036 46.082 73.036 46.2309C73.036 46.3733 73.0424 46.5157 73.0554 46.6646C73.0683 46.8199 73.0877 46.9818 73.1201 47.1371C73.146 47.2666 73.1589 47.3766 73.1589 47.4931C73.1589 47.5643 73.146 47.6291 73.146 47.7197C73.146 47.8039 73.1525 47.7974 73.1719 47.8686C73.2172 47.9916 73.2366 48.0887 73.2496 48.2181C73.2755 48.4253 73.2949 48.6324 73.3208 48.8395C73.3467 49.1049 73.3726 49.3703 73.392 49.6357C73.392 49.6681 73.3984 49.7069 73.3984 49.7393C73.3984 49.8364 73.379 49.927 73.379 50.0176C73.379 50.2507 73.4049 50.3413 73.4308 50.4319C73.4502 50.5031 73.4567 50.5679 73.4567 50.6326C73.4567 50.7167 73.4502 50.8009 73.4502 50.885C73.4502 50.9368 73.4502 50.9886 73.4632 51.0404C73.4826 51.1569 73.4955 51.2734 73.4955 51.3899C73.4955 51.4223 73.4955 51.4547 73.4955 51.4806C73.5603 51.4935 73.625 51.4935 73.6768 51.4935Z" fill="white"/>
<path d="M79.2564 47.4283C79.2564 47.3506 79.2241 47.1823 79.2111 47.1111C79.1723 46.8716 79.127 46.6969 79.127 46.4768C79.1205 45.9719 79.1075 45.4475 79.0816 44.9426C79.0687 44.7031 79.0299 44.4636 78.9975 44.2241C78.9522 43.9523 78.9134 43.6869 78.9069 43.4085C78.9069 43.3244 78.8939 42.9942 78.868 42.7483C78.8421 42.5152 78.8033 42.3599 78.7256 42.3599C78.5962 42.3599 78.4279 42.6576 78.4149 42.7353C78.3631 42.923 78.3243 43.1431 78.2725 43.3373C78.2466 43.4344 78.2401 43.5315 78.2272 43.6221C78.2143 43.7257 78.2013 43.8228 78.1689 43.9199C78.0977 44.127 78.0783 44.3536 78.046 44.5543C77.9812 44.988 77.8388 45.3958 77.7094 45.81C77.6511 46.0042 77.6187 46.2049 77.5799 46.4056C77.5411 46.6321 77.4957 46.8587 77.4116 47.0852C77.3728 47.1759 77.308 47.4801 77.308 47.5901C77.308 47.6484 77.3469 47.6484 77.4245 47.6484C77.5346 47.6484 77.7417 47.629 77.8 47.629C77.9359 47.629 78.0654 47.6096 78.1948 47.5966C78.2984 47.5837 78.402 47.5707 78.512 47.5707C78.6221 47.5707 78.7709 47.5901 78.9263 47.5901C79.0169 47.5901 79.114 47.5901 79.1852 47.5513C79.2176 47.5125 79.2564 47.4736 79.2564 47.4283ZM83.3863 51.966C83.3863 52.0695 83.315 52.1084 83.2374 52.199C83.1662 52.2831 83.0561 52.3284 82.9526 52.3479C82.7778 52.3932 82.6548 52.3996 82.5253 52.3996C82.4088 52.3996 82.2923 52.3867 82.1369 52.3867C82.1046 52.3867 82.0593 52.3867 82.001 52.3867C81.9233 52.4191 81.8392 52.445 81.755 52.4644C81.6644 52.4838 81.5673 52.5032 81.4767 52.5032C81.276 52.5032 81.0559 52.4709 80.8682 52.3996C80.7323 52.3996 80.6028 52.3996 80.4734 52.3996C80.085 52.3996 79.7549 52.3932 79.6189 52.3802C79.483 52.3673 79.3017 52.3608 79.1787 52.3026C79.0946 52.2637 78.9004 52.1472 78.9004 52.0307C78.8939 51.8171 79.1787 51.7847 79.3406 51.7588C79.4183 51.7459 79.5866 51.7394 79.8066 51.7329C79.7937 51.6099 79.7872 51.4869 79.7807 51.4028C79.7613 51.2474 79.7549 51.0856 79.729 50.9432C79.716 50.8655 79.6901 50.8073 79.6901 50.7166C79.6901 50.639 79.7225 50.5289 79.7225 50.4513C79.7225 50.3606 79.6642 50.3024 79.6448 50.1729C79.6254 49.9852 79.5671 49.7975 79.5412 49.6097C79.5218 49.4414 79.5348 49.2926 79.4959 49.1243C79.4571 48.9365 79.4636 48.7488 79.4312 48.5611C79.4118 48.4511 79.3924 48.4122 79.3147 48.4122C79.2758 48.4122 79.2241 48.4316 79.1464 48.4316C78.9587 48.4316 78.7774 48.4446 78.5962 48.4575C78.4149 48.4705 78.2401 48.4834 78.0589 48.4834C77.91 48.4834 77.7611 48.5028 77.6123 48.5028C77.5475 48.5028 77.3469 48.4705 77.2174 48.4705C77.062 48.4705 77.0556 48.5935 77.0556 48.697C77.0556 48.8718 76.9908 49.1048 76.952 49.2861C76.8808 49.6033 76.829 49.9075 76.7643 50.2376C76.6996 50.5807 76.5571 51.1762 76.4665 51.5193C76.6219 51.5128 76.7772 51.5128 77.0038 51.5128C77.2303 51.5128 77.6187 51.5258 77.6446 51.8041C77.6382 51.9336 77.6187 51.9724 77.5346 52.0695C77.4634 52.1537 77.3533 52.1925 77.2498 52.2184C77.0944 52.2572 76.9908 52.2702 76.8873 52.2702C76.7772 52.2702 76.6737 52.2572 76.5118 52.2572C76.2659 52.2572 76.0134 52.2702 75.7674 52.2702C75.6315 52.2702 75.4956 52.2637 75.3596 52.2508C75.2237 52.2378 75.0424 52.2249 74.9195 52.1731C74.777 52.1148 74.6411 51.966 74.6411 51.9012C74.6411 51.8624 74.6476 51.8235 74.7123 51.7653C74.79 51.6941 74.9712 51.6488 75.0813 51.6294C75.3078 51.597 75.5344 51.584 75.761 51.5646C75.761 51.5517 75.761 51.5387 75.761 51.5193C75.7545 51.3316 75.8127 51.105 75.8257 51.0144C75.8904 50.6195 75.9616 50.2441 76.0328 49.8557C76.0846 49.558 76.1299 49.2343 76.2011 48.9171C76.2205 48.8394 76.2918 48.5999 76.2853 48.4705C76.2853 48.3216 75.9422 48.3216 75.8127 48.2439C75.6962 48.1857 75.6444 48.1339 75.6444 48.0562C75.6444 47.9073 75.7933 47.8685 75.9616 47.8296C76.0717 47.8102 76.3176 47.7908 76.4277 47.7002C76.5183 47.629 76.5118 47.3247 76.5507 47.1953C76.6542 46.8198 76.7578 46.4444 76.8484 46.0884C76.952 45.6935 77.062 45.3181 77.1462 44.9426C77.2368 44.5672 77.3145 44.1918 77.3922 43.8228C77.4634 43.4668 77.5152 43.1108 77.6382 42.7742C77.7611 42.4181 77.8841 42.0298 78.0524 41.6867L78.2143 41.3501C78.2919 41.1947 78.3372 41.0264 78.4861 40.9164C78.7451 40.7287 79.1399 40.6704 79.4765 40.6704C79.7031 40.6704 79.8325 40.7092 80.0008 40.7805C80.1691 40.8581 80.1756 40.9682 80.2856 41.1365C80.3633 41.2465 80.4734 41.3436 80.5316 41.4537C80.5899 41.5831 80.5899 41.7126 80.6287 41.8485C80.7064 42.1074 80.6999 42.4117 80.7582 42.69C80.8229 42.9878 80.9394 43.2532 80.9783 43.5509C81.0236 43.907 81.043 44.2241 81.1271 44.5607C81.2048 44.8779 81.2696 45.1951 81.2954 45.5317C81.3084 45.6935 81.3343 45.8489 81.3731 46.0107C81.4184 46.2243 81.4767 46.4315 81.5026 46.6386C81.5155 46.7292 81.5414 46.9234 81.5803 47.1047C81.6191 47.2535 81.6709 47.396 81.7356 47.4477C81.7809 47.4801 81.8586 47.4866 81.9428 47.4866C82.0075 47.4866 82.0722 47.4801 82.1305 47.4801C82.2988 47.4801 82.4994 47.5384 82.603 47.6872C82.6418 47.7455 82.6613 47.7779 82.6613 47.8167C82.6613 47.875 82.6289 47.9267 82.5512 47.985C82.4412 48.0756 82.3506 48.1921 82.2211 48.2439C82.1823 48.2633 82.1046 48.2698 82.0334 48.2763C81.9751 48.2828 81.9233 48.2957 81.9039 48.3151C81.8845 48.3345 81.8845 48.354 81.8845 48.3928C81.8845 48.4446 81.9039 48.5223 81.9233 48.5935C81.9428 48.6776 81.9686 48.7618 81.9686 48.8394L81.9751 49.0466C81.9751 49.1178 81.9816 49.176 81.9945 49.2537C82.0334 49.422 82.0916 49.5903 82.1175 49.7586C82.1369 49.9205 82.1823 50.0888 82.2211 50.2571C82.2599 50.4383 82.2988 50.6131 82.3052 50.7878C82.3117 51.0338 82.3311 51.1633 82.3894 51.3898C82.4088 51.4546 82.4218 51.5258 82.4347 51.597C82.5706 51.5905 82.7131 51.5905 82.8684 51.5905C83.1273 51.6423 83.3798 51.7653 83.3863 51.966Z" fill="white"/>
<path d="M89.7624 46.8263C89.7624 46.6386 89.743 46.2761 89.7041 45.8618C89.6588 45.3828 89.607 45.0268 89.6005 44.9362C89.5229 44.2565 89.4193 43.6739 89.2316 43.0072C89.1798 42.8324 89.1927 42.5088 88.6037 41.9974C88.4807 41.8874 87.9564 41.7644 87.6004 41.7644C87.3932 41.7644 87.2832 41.8097 87.2443 41.9262C87.212 42.0233 87.2185 42.3923 87.2055 42.8583C87.1861 43.8811 87.1861 45.3699 87.1667 45.5964C87.1537 45.7259 87.1472 45.8554 87.1472 45.9848C87.1472 46.2243 87.1602 46.4703 87.1731 46.7098C87.1861 47.0335 87.1926 47.3571 87.199 47.6808C87.2055 47.9527 87.2055 48.231 87.2055 48.5029C87.2055 48.8718 87.2443 49.668 87.2314 50.037C87.2249 50.1729 87.199 50.3153 87.199 50.4577C87.199 50.5419 87.1408 51.0662 87.1408 51.3381C87.1408 51.4287 87.1537 51.4805 87.2638 51.4805C87.3932 51.4805 87.4774 51.4805 87.5292 51.487C87.691 51.4934 87.6327 51.4999 87.8981 51.4999C87.9887 51.4999 88.2865 51.2992 88.3771 51.2798C88.4289 51.2669 88.5843 51.1957 88.6361 51.1633C88.759 51.0921 88.8303 50.9303 88.895 50.8073C88.9921 50.6325 89.0892 50.4513 89.1733 50.27C89.3222 49.9399 89.4322 49.9464 89.5164 49.1761C89.5617 48.7488 89.6782 48.3475 89.7171 47.9591C89.7494 47.5448 89.7624 47.1694 89.7624 46.8263ZM91.8985 46.8069C91.8985 46.8716 91.9373 47.0529 91.9373 47.1629C91.9373 47.3118 91.8597 47.4413 91.8338 47.5902C91.8079 47.7455 91.8273 47.9073 91.8079 48.0627C91.8014 48.1339 91.7561 48.2504 91.7173 48.3799C91.6849 48.4899 91.6655 48.6064 91.6331 48.6906C91.5684 48.8395 91.549 49.0207 91.5166 49.189C91.4842 49.3508 91.4519 49.5127 91.3871 49.6615C91.3224 49.804 91.2253 49.901 91.1347 50.0435C91.0699 50.147 91.0635 50.2571 90.9923 50.3606C90.9081 50.4836 90.7398 50.7814 90.6492 50.9044C90.2737 51.4158 89.9372 51.6423 89.6847 51.83C89.5099 51.966 89.2834 52.0436 89.0374 52.1084C88.8238 52.1666 88.5972 52.2119 88.3771 52.2119C88.1959 52.2119 88.0211 52.1472 87.8593 52.1472C87.3738 52.1472 87.5551 52.186 87.0631 52.1925C86.9984 52.3414 86.9207 52.4256 86.7848 52.4773C86.7006 52.5097 86.6035 52.5162 86.5129 52.5356C86.4223 52.555 86.3252 52.5615 86.2281 52.5809C86.1698 52.5874 86.0598 52.6068 86.0015 52.6068C85.8785 52.6068 85.7037 52.5291 85.6649 52.5097C85.5613 52.4385 85.4642 52.3608 85.3412 52.2702C85.3024 52.2443 85.27 52.2119 85.2312 52.1796C85.0953 52.1796 85.2053 52.1925 84.9852 52.1925C84.8428 52.1925 84.7004 52.186 84.558 52.1731C84.4156 52.1602 84.2279 52.1472 84.0984 52.0954C83.956 52.0372 83.8136 51.8948 83.8136 51.83C83.8136 51.7135 83.8201 51.6747 83.8913 51.6229C83.9754 51.5582 84.1631 51.5064 84.2797 51.4934C84.4803 51.4675 84.7393 51.4416 84.9399 51.4287C84.914 51.2798 84.914 51.1309 84.914 50.9756C84.914 50.2118 84.8881 49.4674 84.8881 48.7165C84.8881 48.4122 84.9335 47.6743 84.9529 46.5739C84.9658 45.7906 84.9852 45.0074 84.9852 44.2177C84.9852 43.784 84.9917 43.2597 85.0176 42.7289C85.0305 42.4246 85.0629 42.1269 85.0759 41.8226C85.0564 41.8226 85.0241 41.8226 84.9788 41.8226C84.8363 41.8226 84.6939 41.8162 84.5515 41.8032C84.4156 41.7903 84.2214 41.7773 84.0919 41.732C83.9495 41.6738 83.8071 41.5249 83.8071 41.4666C83.8071 41.4278 83.8136 41.3113 83.8848 41.2595C83.969 41.1947 84.1567 41.143 84.2732 41.13C84.5839 41.0847 84.927 41.0523 85.1471 41.0523C85.1729 41.0005 85.2118 40.9488 85.2442 40.9164C85.3024 40.8581 85.4383 40.7934 85.516 40.761C85.6066 40.7222 85.7037 40.6898 85.8008 40.6704C85.885 40.6575 85.9691 40.6445 86.0598 40.6445C86.1763 40.6445 86.2928 40.6575 86.4028 40.6898C86.61 40.7416 86.7589 40.8581 86.8689 41.02C86.9789 41.0135 87.089 41.0135 87.2055 41.0135C87.5421 41.0135 87.8463 41.1106 88.3901 41.1106C88.6943 41.1106 88.9662 41.2724 89.2704 41.2724C89.4128 41.2724 89.5941 41.2854 89.7235 41.3566C89.8595 41.4342 89.9695 41.5767 90.086 41.6802C90.1896 41.7708 90.3191 41.8421 90.3903 41.9586C90.455 42.0621 90.4679 42.1851 90.5456 42.2822C90.6427 42.4052 90.7398 42.4894 90.9858 42.6382C91.1411 42.7353 91.0764 42.9684 91.167 43.1367C91.3548 43.4733 91.6849 43.8422 91.7755 44.1853C91.8597 44.509 91.892 44.7938 91.892 45.1239C91.892 45.344 91.8791 45.5641 91.8791 45.7842C91.8791 45.946 91.892 46.0884 91.9244 46.2438C91.9373 46.2955 91.9373 46.3344 91.9373 46.3797C91.9438 46.4962 91.8985 46.6257 91.8985 46.8069Z" fill="white"/>
<path d="M99.1418 51.3121C99.1936 51.351 99.2324 51.4027 99.2324 51.4869C99.2324 51.6422 99.1159 51.7847 98.9929 51.8623C98.8635 51.953 98.7016 51.9659 98.5527 51.9918C98.2161 52.05 97.8731 52.063 97.5365 52.1148C97.3682 52.1407 97.2063 52.173 97.0316 52.1925C96.9086 52.2054 96.559 52.2119 96.3325 52.2183C96.2483 52.2313 96.1901 52.2507 96.1253 52.2507H95.9311C95.8729 52.3478 95.7887 52.4061 95.6722 52.4514C95.5816 52.4837 95.4716 52.4902 95.3745 52.5096C95.2709 52.5291 95.1673 52.5355 95.0573 52.555C94.9926 52.5614 94.8696 52.5808 94.8048 52.5808C94.6689 52.5808 94.4747 52.5032 94.4359 52.4837C94.3258 52.419 94.2158 52.3413 94.0798 52.2442C93.9763 52.2442 93.8986 52.2442 93.8727 52.2442C93.6267 52.2442 93.808 52.2637 93.5555 52.2637C93.4196 52.2637 93.2836 52.2572 93.1477 52.2442C93.0118 52.2313 92.8305 52.2183 92.7075 52.1666C92.5716 52.1083 92.4357 51.9012 92.4357 51.8364C92.4357 51.7976 92.4422 51.7588 92.5069 51.7005C92.5846 51.6358 92.7658 51.584 92.8758 51.5646C93.1218 51.5322 93.4002 51.4998 93.6461 51.4869C93.6332 51.215 93.6461 50.8266 93.6461 50.4253C93.6461 49.8233 93.6203 49.1889 93.6203 49.0142C93.6203 48.93 93.6138 48.3928 93.5944 48.0303C93.5749 47.6807 93.5685 47.3312 93.5685 46.9816C93.5685 46.8457 93.562 46.7098 93.562 46.5673C93.562 46.3602 93.6008 46.1531 93.6073 45.9459C93.6073 45.797 93.5944 45.6417 93.5944 45.4928C93.5944 45.3051 93.6138 45.1109 93.6397 44.9232C93.685 44.5866 93.7368 44.25 93.7432 43.9134C93.7497 43.5379 93.7432 43.1625 93.7432 42.7935C93.7432 42.4958 93.7497 42.2045 93.7821 41.9067C93.6656 41.9132 93.7562 41.9197 93.5491 41.9197C93.4131 41.9197 93.2772 41.9132 93.1412 41.9002C93.0053 41.8873 92.8241 41.8744 92.7011 41.8226C92.5651 41.7643 92.4292 41.5572 92.4292 41.4924C92.4292 41.4536 92.4357 41.4148 92.5069 41.3565C92.5846 41.2853 92.7658 41.24 92.8758 41.2206C93.1736 41.1753 93.6656 41.1429 93.8856 41.1364C93.8856 41.1299 93.8857 41.1235 93.8921 41.117C93.9115 41.0523 93.9827 41.0134 94.0345 40.9811C94.164 40.8969 94.3193 40.8646 94.4617 40.8257C94.5718 40.7933 94.7013 40.7675 94.8178 40.7675C94.8631 40.7675 94.9084 40.7739 94.9472 40.7804C95.0184 40.7933 95.0767 40.8322 95.1414 40.8581C95.2191 40.8904 95.2968 40.9163 95.3745 40.9358C95.5298 40.9811 95.6722 41.0523 95.8341 41.0911C95.8858 41.1041 95.9441 41.1105 95.9959 41.1105C96.0994 41.1105 96.2095 41.0976 96.3066 41.0911C96.4749 41.0846 97.0251 41.0911 97.1934 41.0911C97.3552 41.0976 97.5106 41.1041 97.6659 41.117C97.8472 41.1299 98.0284 41.1558 98.2097 41.1817C98.3197 41.2012 98.4298 41.2206 98.5398 41.2465C98.6045 41.1753 98.6693 41.1299 98.7081 41.1299C98.7469 41.1299 98.7858 41.1364 98.844 41.2076C98.9152 41.2853 98.9994 41.4471 99.0059 41.5572C99.0512 42.0556 99.0318 41.829 99.0576 42.1398C99.09 42.5281 99.103 42.5217 99.103 42.9424C99.103 43.156 99.09 43.5768 98.8311 43.5768C98.6822 43.5768 98.6434 43.5509 98.5398 43.4603C98.4556 43.3891 98.4168 43.279 98.3909 43.1754C98.3521 43.0136 98.3456 42.9165 98.3391 42.813C98.3391 42.7029 98.3521 42.5993 98.3521 42.4375C98.3521 42.2757 98.365 42.1139 98.3521 41.9456C98.2032 41.9779 98.0543 41.9909 97.9054 41.9909C97.7112 41.9909 97.5235 41.9973 97.3358 42.0232C97.161 42.0491 96.9863 42.0685 96.4425 42.088C96.3648 42.0944 96.2807 42.1074 96.203 42.1203C96.1383 42.1333 96.0671 42.1398 96.0218 42.198C95.9829 42.2498 95.9894 42.3275 95.9894 42.3922C95.9894 42.4828 96.0024 42.567 96.0153 42.6511C96.0347 42.8194 96.0347 42.9877 96.0412 43.1625C96.0477 43.279 96.0477 43.402 96.0477 43.5185C96.0477 43.7386 96.0412 43.9522 96.0412 44.1658C96.0347 44.3277 96.0088 44.496 96.0023 44.6578C95.9959 44.8261 96.0024 45.0009 95.9959 45.1692C95.9959 45.2533 95.9894 45.3375 95.9894 45.4216C95.9894 45.4799 95.97 45.5705 95.9959 45.6223C96.0218 45.6805 96.093 45.6741 96.1448 45.6805C96.2289 45.687 96.3131 45.7 96.3972 45.7064C96.928 45.7194 97.0834 45.7194 97.2322 45.7453C97.3811 45.7712 97.53 45.7841 97.6724 45.7906C97.6724 45.7582 97.6724 45.7258 97.6724 45.6935C97.6724 45.5575 97.6789 45.4216 97.6918 45.2857C97.7048 45.1497 97.7177 44.9685 97.7695 44.8455C97.8278 44.7096 97.9766 44.5736 98.0414 44.5736C98.0802 44.5736 98.119 44.5801 98.1773 44.6448C98.2485 44.7225 98.2938 44.9038 98.3132 45.0138C98.3586 45.3245 98.3715 45.6417 98.3974 45.9524C98.4298 46.3408 98.4427 46.522 98.4427 46.9428C98.4427 47.1564 98.4298 47.5771 98.1773 47.5771C98.0284 47.5771 97.9896 47.5513 97.886 47.4606C97.8019 47.3894 97.7566 47.2794 97.7371 47.1758C97.6983 47.014 97.6854 46.9104 97.6854 46.8133C97.6854 46.7162 97.6918 46.6256 97.6983 46.4961C97.3552 46.5156 96.8633 46.522 96.2095 46.5156C96.0606 46.5156 95.9829 46.5997 95.9765 46.7486C95.97 46.9169 95.97 47.0787 95.9506 47.247C95.9441 47.3117 95.9441 47.37 95.9441 47.4347C95.9441 47.5318 95.9506 47.6289 95.957 47.7325C95.97 47.8749 95.9959 48.0108 95.9959 48.1533C95.9959 48.2957 95.9829 48.4251 95.9829 48.5611C95.9829 48.7876 96.0282 49.0012 96.0347 49.2213C96.0412 49.5579 96.0282 49.901 96.0477 50.2376C96.0541 50.4059 96.0736 50.5742 96.1189 50.736C96.1512 50.8655 96.1124 51.1827 96.2224 51.2539C96.2677 51.2862 96.3907 51.2927 96.6302 51.2927C96.8503 51.2927 97.1287 51.2733 97.2646 51.2733C97.4717 51.2733 97.6854 51.3186 97.899 51.3186C98.1255 51.3186 98.2615 51.2539 98.4621 51.228C98.4686 51.0597 98.4751 50.8914 98.4751 50.7231C98.4751 50.5548 98.4621 50.4512 98.4621 50.3476C98.4621 50.2505 98.4751 50.147 98.5139 49.9851C98.5398 49.8816 98.5786 49.7715 98.6628 49.7003C98.7664 49.6097 98.8052 49.5838 98.9541 49.5838C99.213 49.5838 99.2195 50.0046 99.2195 50.2182C99.2195 50.6389 99.213 50.8202 99.1742 51.2085C99.1483 51.2668 99.1483 51.2927 99.1418 51.3121Z" fill="white"/>
<path d="M107.622 43.1366C107.622 43.0784 107.622 42.9813 107.615 42.8777C107.602 42.6705 107.447 42.4181 107.259 42.1915C107.188 42.1009 107.11 42.0297 107.026 41.9779C106.903 41.8938 106.774 41.842 106.644 41.8032C106.385 41.7384 106.113 41.7384 105.926 41.7384L105.479 41.7514C105.472 41.9779 105.466 42.3016 105.479 42.7029C105.492 43.2272 105.55 43.8292 105.563 44.3665C105.582 45.0591 105.595 45.577 105.595 45.687C105.595 45.8747 105.647 46.0624 105.621 46.2502C105.615 46.2825 105.615 46.3149 105.615 46.3408C105.615 46.4573 105.66 46.4767 105.757 46.4767C105.816 46.4767 105.887 46.4703 105.971 46.4703C106.074 46.4703 106.146 46.4767 106.249 46.4767C106.469 46.4767 106.825 46.3926 106.987 46.2049C107.117 46.056 107.194 45.9718 107.259 45.7712C107.317 45.5964 107.363 45.4151 107.408 45.2533C107.473 45.0268 107.518 44.9038 107.55 44.6772C107.583 44.4442 107.596 44.3859 107.596 44.1529C107.596 43.8422 107.609 43.9457 107.622 43.6674C107.622 43.4279 107.622 43.3761 107.622 43.1366ZM110.094 51.8429C110.198 51.9141 110.353 51.9983 110.347 52.1148C110.347 52.1472 110.334 52.186 110.301 52.2248C110.211 52.3413 110.036 52.3802 109.887 52.3802C109.447 52.3802 108.832 52.0695 108.528 51.7652C108.224 51.461 108.036 51.105 107.822 50.736C107.712 50.5354 107.615 50.3347 107.524 50.134C107.44 49.9463 107.369 49.7586 107.317 49.5579C107.265 49.3443 107.201 49.1307 107.136 48.9236C107.065 48.7035 106.987 48.4834 106.897 48.2698C106.832 48.1079 106.754 47.8879 106.683 47.6872C106.605 47.4736 106.515 47.383 106.359 47.2664C106.249 47.1888 106.12 47.1823 106.036 47.1693C105.964 47.1564 105.841 47.1693 105.731 47.1693C105.693 47.1693 105.673 47.2082 105.673 47.26C105.673 47.3894 105.699 47.6095 105.699 47.6613C105.699 47.8879 105.654 48.1144 105.654 48.341C105.654 48.697 105.744 48.8782 105.744 49.2343C105.744 49.668 105.673 50.1017 105.628 50.5354C105.615 50.6778 105.589 50.8266 105.589 50.9755C105.589 51.0532 105.602 51.1503 105.615 51.2474C105.88 51.2409 106.094 51.2344 106.23 51.2344C106.456 51.2344 106.89 51.2474 106.89 51.571C106.89 51.7264 106.864 51.7588 106.774 51.8688C106.702 51.953 106.586 51.9918 106.476 52.0177C106.301 52.0565 106.191 52.0695 106.087 52.0695C106.01 52.0695 105.718 52.0695 105.388 52.063C105.207 52.186 104.968 52.2701 104.773 52.296C104.657 52.309 104.553 52.3284 104.45 52.3284C104.385 52.3284 104.314 52.3219 104.243 52.296C104.074 52.2442 103.925 52.1666 103.789 52.0565C103.621 52.063 103.446 52.063 103.297 52.063C103.155 52.063 103.013 52.0565 102.87 52.0436C102.728 52.0306 102.54 51.9465 102.411 51.8947C102.268 51.8364 102.126 51.6876 102.126 51.6228C102.126 51.584 102.132 51.5452 102.204 51.4869C102.288 51.4157 102.475 51.3704 102.592 51.351C102.831 51.3186 103.175 51.2862 103.395 51.2733C103.375 51.1697 103.369 51.0597 103.356 50.9561C103.343 50.8266 103.31 49.9463 103.31 49.6421C103.31 49.2796 103.336 48.8977 103.336 48.5481C103.336 48.1403 103.297 47.739 103.297 47.3376C103.297 46.8845 103.31 46.4314 103.323 45.9783C103.336 45.4993 103.356 45.0268 103.375 44.5477C103.395 44.0882 103.408 43.9911 103.408 43.5315C103.408 43.3243 103.401 43.1172 103.401 42.9101C103.401 42.69 103.446 42.4828 103.446 42.2692C103.446 42.1592 103.42 42.0103 103.414 41.8679C103.388 41.8679 103.356 41.8679 103.291 41.8679C103.149 41.8679 103.006 41.8614 102.864 41.8485C102.721 41.8355 102.534 41.8226 102.404 41.7708C102.262 41.7125 102.119 41.5442 102.119 41.4795C102.119 41.4407 102.126 41.4018 102.197 41.3436C102.281 41.2724 102.469 41.227 102.585 41.2076C102.909 41.1623 103.22 41.1235 103.459 41.1235C103.472 41.0846 103.498 41.0523 103.531 41.0329C103.608 40.9875 103.705 40.9487 103.828 40.8969C103.912 40.8581 104.016 40.8063 104.107 40.7804C104.158 40.7675 104.288 40.761 104.391 40.761C104.527 40.761 104.747 40.7998 104.922 40.8646C105.103 40.9293 105.246 40.9746 105.317 41.0523C105.544 41.0458 105.68 41.0329 105.861 41.0329C106.068 41.0329 106.262 41.0458 106.534 41.0523C106.599 41.0523 106.741 41.0329 106.871 41.0329C107.058 41.0329 107.317 41.1364 107.68 41.2335C107.835 41.2724 107.971 41.363 108.094 41.4471C108.172 41.5054 108.372 41.6154 108.554 41.7384C108.741 41.8614 108.923 41.9973 108.955 42.088C109.033 42.2692 109.253 42.431 109.33 42.6058C109.428 42.8259 109.46 43.0654 109.473 43.3049C109.486 43.4862 109.544 43.6156 109.544 43.6804C109.544 43.7257 109.544 43.771 109.544 43.8163C109.544 43.8875 109.596 43.9975 109.596 44.0946C109.596 44.2047 109.57 44.3277 109.551 44.4312C109.525 44.606 109.525 44.6966 109.486 44.9102C109.447 45.1174 109.382 45.3116 109.279 45.454C109.22 45.5252 109.143 45.5575 109.104 45.6417C109.071 45.7064 109.071 45.7712 109.026 45.8359C108.955 45.9395 108.806 46.1272 108.709 46.1919C108.644 46.2372 108.567 46.2372 108.502 46.302C108.431 46.3732 108.379 46.4508 108.301 46.5156C108.178 46.6191 108.068 46.768 107.926 46.8457C107.809 46.9104 107.699 46.9104 107.706 47.0852C107.712 47.2341 108.075 47.4347 108.139 47.5642C108.262 47.8231 108.431 48.0303 108.528 48.2957C108.612 48.5222 108.69 48.7488 108.761 48.9818C108.858 49.299 108.949 49.6162 109.02 49.9398C109.097 50.27 109.292 50.5742 109.408 50.8978C109.473 51.0791 109.55 51.2603 109.654 51.4157C109.803 51.5905 109.932 51.7329 110.094 51.8429Z" fill="white"/>
<path d="M114.8 51.4999C115.033 51.4999 115.487 51.5128 115.461 51.7912C115.448 51.9206 115.428 51.9595 115.344 52.0566C115.273 52.1407 115.156 52.1796 115.046 52.2055C114.878 52.2443 114.775 52.2573 114.671 52.2573C114.619 52.2573 114.289 52.2443 113.939 52.2508C113.506 52.2572 113.046 52.2831 112.949 52.2831C112.69 52.2831 112.263 52.2637 112.004 52.2637C111.862 52.2637 111.719 52.2572 111.583 52.2443C111.441 52.2314 111.253 52.2184 111.124 52.1666C110.981 52.1084 110.839 51.9595 110.839 51.8948C110.839 51.8559 110.845 51.8171 110.917 51.7588C111.001 51.6876 111.188 51.6423 111.305 51.6229C111.629 51.5776 112.004 51.5387 112.133 51.5387C112.179 51.5387 112.237 51.5387 112.315 51.5387C112.192 51.4287 112.101 51.2928 112.101 51.1374C112.101 51.0468 112.088 50.9691 112.069 50.8785C112.056 50.8202 112.049 50.762 112.049 50.7037C112.049 50.6519 112.056 50.5937 112.056 50.5419C112.062 50.3865 112.069 50.2312 112.069 50.0758C112.069 50.0111 112.069 49.9464 112.069 49.8816C112.056 49.0142 112.095 48.1533 112.075 47.2859C112.062 46.8263 112.075 46.3667 112.088 45.9136C112.101 45.5188 112.114 45.1174 112.121 44.7226C112.121 44.5025 112.121 44.2889 112.121 44.0688C112.121 43.7969 112.121 43.5251 112.121 43.2532C112.121 42.8713 112.108 42.4829 112.121 42.101C112.121 42.0427 112.127 41.9909 112.133 41.9327C112.095 41.9327 112.056 41.9327 112.017 41.9327C111.875 41.9327 111.732 41.9262 111.59 41.9133C111.447 41.9003 111.26 41.8874 111.13 41.8356C110.988 41.7773 110.845 41.6284 110.845 41.5637C110.845 41.5249 110.826 41.4731 110.884 41.4084C110.949 41.3371 111.175 41.3113 111.292 41.2918C111.596 41.2465 112.004 41.2142 112.159 41.2077C112.159 41.1753 112.153 41.143 112.153 41.1106C112.153 41.0264 112.166 40.9552 112.211 40.9035C112.269 40.8452 112.386 40.7999 112.464 40.7675C112.554 40.7222 112.651 40.6963 112.748 40.6769C112.833 40.6639 112.917 40.651 113.007 40.651C113.124 40.651 113.24 40.6639 113.35 40.6963C113.622 40.7675 113.849 40.9423 113.985 41.1818C114.354 41.1753 114.671 41.1688 114.82 41.1688C115.053 41.1688 115.506 41.1818 115.48 41.4601C115.467 41.5896 115.448 41.6284 115.364 41.7255C115.292 41.8097 115.176 41.8485 115.066 41.8744C114.897 41.9133 114.794 41.9262 114.69 41.9262C114.652 41.9262 114.444 41.9262 114.166 41.9262L114.173 41.9586C114.205 42.1722 114.237 42.3793 114.27 42.5929C114.296 42.8065 114.315 43.0137 114.315 43.2273C114.315 43.4344 114.302 43.6351 114.302 43.8422C114.302 43.9458 114.283 44.0429 114.283 44.1529C114.283 44.2371 114.295 44.3212 114.308 44.4119C114.373 44.8391 114.367 45.2793 114.386 45.7065C114.406 46.1855 114.412 46.6645 114.418 47.1435C114.425 47.5319 114.431 47.9268 114.444 48.3151C114.457 48.7488 114.529 49.1825 114.541 49.6162C114.548 49.8234 114.554 50.0305 114.561 50.2376C114.567 50.4577 114.567 50.6843 114.554 50.9044C114.541 51.0986 114.535 51.3187 114.464 51.5064C114.6 51.4999 114.723 51.4999 114.8 51.4999Z" fill="white"/>
<path d="M123.409 47.4479C123.409 47.6162 123.222 47.7392 123.079 47.8104C122.879 47.9075 122.574 47.9528 122.354 47.9787C122.16 48.0046 122.037 48.0175 122.037 48.1987C122.037 48.3347 122.069 48.6583 122.069 48.7748C122.069 48.8396 122.069 49.2733 122.069 49.338C122.076 49.4545 122.076 49.5905 122.082 49.7264C122.089 50.1601 122.095 50.6909 122.108 50.8657C122.134 51.2282 122.154 51.4159 122.141 51.7719C122.134 51.9596 122.147 52.4904 121.843 52.4904C121.713 52.4904 121.655 52.458 121.558 52.3739C121.474 52.3027 121.435 52.1926 121.409 52.0891C121.377 51.9596 121.37 51.869 121.37 51.7848C121.37 51.6424 121.396 51.5324 121.396 51.3123V51.267C121.286 51.623 121.06 51.9208 120.749 52.1603C120.309 52.4969 119.979 52.6522 119.422 52.6522C119.085 52.6522 118.755 52.594 118.438 52.4904C118.069 52.3674 117.771 52.1667 117.519 51.9143C117.15 51.5518 116.885 51.0857 116.639 50.6132C116.451 50.2442 116.347 49.8688 116.283 49.4804C116.231 49.215 116.198 48.9432 116.16 48.6713C116.121 48.3994 116.134 48.2182 116.134 47.9722C116.134 47.0271 116.38 46.0756 116.613 45.0399C116.723 44.5738 116.833 44.0948 116.982 43.6287C117.143 43.1303 117.344 42.6513 117.642 42.2241C117.901 41.8551 118.192 41.4538 118.535 41.1625C118.697 41.0266 118.865 40.9359 119.066 40.8777C119.318 40.8065 119.539 40.6705 119.804 40.6641C119.849 40.6641 119.888 40.6576 119.92 40.6576C120.037 40.6576 120.115 40.6705 120.296 40.6964C120.516 40.7288 120.73 40.7935 120.898 40.8906C121.053 40.9812 121.163 41.1107 121.254 41.2661C121.267 41.156 121.28 41.0395 121.319 40.9489C121.351 40.8841 121.364 40.8453 121.435 40.7741C121.467 40.7417 121.539 40.6835 121.597 40.6835C121.655 40.6835 121.713 40.7482 121.733 40.7741C121.798 40.8712 121.849 41.0201 121.862 41.1301C121.882 41.2661 121.888 41.5703 121.895 41.9004C121.901 42.3341 121.908 42.8067 121.921 42.9814C121.947 43.3439 121.959 43.5252 121.953 43.8877C121.946 44.0754 121.953 44.6062 121.655 44.6062C121.526 44.6062 121.467 44.5738 121.37 44.4897C121.286 44.4185 121.241 44.3084 121.222 44.2048C121.202 44.1013 121.196 44.0107 121.196 43.9136C121.196 43.7776 121.209 43.6352 121.209 43.4345C121.196 43.318 121.183 43.2015 121.17 43.085C121.144 42.8261 121.099 42.5736 121.06 42.3212C121.021 42.0881 120.924 41.8616 120.781 41.648C120.684 41.4991 120.445 41.4408 120.27 41.4408C120.024 41.4408 119.875 41.5638 119.752 41.758C119.636 41.9522 119.467 42.1076 119.39 42.3276C119.312 42.5477 119.267 42.8002 119.247 43.0332C119.228 43.2792 119.182 43.4734 119.118 43.7064C119.04 43.9589 119.027 44.2372 118.975 44.4961C118.93 44.7292 118.911 44.9687 118.885 45.2017C118.865 45.4218 118.801 45.6354 118.775 45.8555C118.749 46.1079 118.716 46.3604 118.684 46.6064C118.652 46.8459 118.626 47.0854 118.6 47.3249C118.58 47.5385 118.548 47.7521 118.548 47.9657C118.548 48.2699 118.587 48.5677 118.6 48.8719C118.619 49.2797 118.749 49.694 118.826 50.1018C118.859 50.2637 118.891 50.4255 118.937 50.5808C118.995 50.788 119.072 50.9886 119.189 51.1634C119.351 51.4223 119.642 51.7201 119.972 51.7201C120.251 51.7201 120.458 51.5 120.607 51.2864C120.833 50.9563 120.956 50.5808 121.034 50.1989C121.099 49.8623 121.124 49.5128 121.15 49.1697C121.163 48.9367 121.176 48.6001 121.176 48.367C121.176 48.3217 121.176 48.2764 121.176 48.2376C121.176 48.0563 121.17 48.0046 120.911 48.0046C120.704 48.0046 120.477 48.0369 120.263 48.0369C120.069 48.0369 119.888 48.0175 119.713 47.9269C119.642 47.8945 119.603 47.8492 119.597 47.8039C119.59 47.765 119.616 47.7262 119.661 47.6744C119.765 47.5644 119.869 47.545 119.985 47.4867C120.212 47.3702 120.477 47.3443 120.749 47.299C120.995 47.2601 121.241 47.2407 121.467 47.2213C121.655 47.2084 121.843 47.2019 122.031 47.2019C122.315 47.2019 122.762 47.176 122.943 47.176C123.17 47.163 123.409 47.2343 123.409 47.4479Z" fill="white"/>
<path d="M131.766 51.5C131.993 51.5 132.433 51.513 132.433 51.7654C132.433 51.9143 132.407 51.9531 132.316 52.0567C132.245 52.1408 132.129 52.1862 132.019 52.2056C131.844 52.2444 131.734 52.2574 131.63 52.2574C131.423 52.2574 129.844 52.2444 129.675 52.2444C129.416 52.2444 129.604 52.2574 129.345 52.2574C129.203 52.2574 129.06 52.2509 128.924 52.2379C128.782 52.225 128.594 52.2121 128.465 52.1603C128.322 52.102 128.18 51.9531 128.18 51.8884C128.18 51.8496 128.186 51.8107 128.258 51.7525C128.342 51.6813 128.53 51.6359 128.646 51.6165C128.937 51.5777 129.196 51.5389 129.345 51.5389C129.209 51.4418 129.138 51.3382 129.119 51.1246C129.08 50.7103 129.073 50.296 129.073 49.8817C129.073 49.4869 129.08 49.092 129.08 48.7036C129.08 48.4512 129.073 48.1923 129.067 47.9398C129.054 47.6744 129.034 47.409 129.047 47.1436C129.047 47.053 129.08 46.9106 129.08 46.7941C129.08 46.7099 129.067 46.6387 129.022 46.6064C128.996 46.5869 128.937 46.5805 128.873 46.5805C128.678 46.5805 128.381 46.6452 128.277 46.6517C128.115 46.6646 127.96 46.684 127.429 46.684C127.17 46.684 127.041 46.6387 126.976 46.6387C126.931 46.6387 126.905 46.6452 126.905 46.7293C126.905 46.8459 126.905 46.9559 126.905 47.0659C126.905 47.2084 126.905 47.3378 126.892 47.4867C126.879 47.6097 126.879 47.7327 126.879 47.8621C126.879 48.0563 126.885 48.257 126.898 48.4577C126.898 48.4836 126.898 48.5094 126.898 48.5353C126.898 48.7231 126.866 48.9043 126.866 49.092C126.866 49.2992 126.853 49.5063 126.84 49.7134C126.827 49.9141 126.821 50.1148 126.821 50.3154C126.821 50.5938 126.769 50.8203 126.769 51.1052C126.769 51.2411 126.795 51.377 126.814 51.5065C127.047 51.513 127.351 51.5583 127.351 51.7719C127.351 51.9208 127.326 51.9596 127.235 52.0632C127.164 52.1473 127.047 52.1862 126.937 52.2121C126.775 52.2509 126.665 52.2638 126.562 52.2638C126.555 52.2638 126.549 52.2703 126.542 52.2768C126.458 52.3286 126.426 52.3092 126.348 52.3739C126.277 52.4321 126.303 52.4969 126.212 52.5422C126.16 52.5681 126.089 52.581 126.012 52.581C125.753 52.581 125.597 52.5098 125.461 52.4062C125.403 52.3609 125.358 52.3156 125.306 52.2638C125.06 52.2638 124.853 52.2638 124.795 52.2638C124.536 52.2638 124.723 52.2833 124.464 52.2833C124.322 52.2833 124.18 52.2768 124.037 52.2638C123.895 52.2509 123.707 52.2379 123.578 52.1862C123.435 52.1279 123.293 51.979 123.293 51.9143C123.293 51.8755 123.299 51.8366 123.371 51.7784C123.455 51.7072 123.642 51.6618 123.759 51.6424C123.992 51.6101 124.341 51.5777 124.568 51.5647C124.555 51.5194 124.549 51.4676 124.549 51.4159C124.549 51.3252 124.568 51.2281 124.568 51.1181C124.575 50.9239 124.581 50.7232 124.581 50.529C124.581 50.309 124.581 50.0889 124.581 49.8753C124.581 49.5969 124.581 49.3121 124.581 49.0338C124.581 48.6519 124.581 48.2699 124.587 47.888C124.594 47.6291 124.594 47.3702 124.587 47.1177C124.587 47.053 124.587 46.9818 124.587 46.9106C124.587 46.8459 124.575 46.7099 124.575 46.6517C124.575 46.574 124.562 46.5416 124.464 46.5287C124.406 46.5222 124.18 46.4963 124.024 46.4704C123.817 46.4316 123.597 46.3733 123.597 46.2633C123.597 46.2244 123.629 46.1727 123.701 46.1209C123.791 46.0497 123.888 46.0173 123.985 45.9979C124.089 45.972 124.206 45.9655 124.309 45.9461C124.477 45.9137 124.477 45.9267 124.542 45.8296C124.562 45.8037 124.568 45.7519 124.568 45.6872C124.568 45.2664 124.562 44.8327 124.562 44.3926C124.562 43.6482 124.581 42.8908 124.665 42.1593C124.678 42.0493 124.685 41.9198 124.691 41.7839C124.575 41.7904 124.626 41.7904 124.413 41.7904C124.374 41.7904 124.341 41.7904 124.309 41.7904C124.218 41.7904 124.134 41.7904 124.031 41.7774C123.895 41.7645 123.701 41.7515 123.571 41.6998C123.429 41.6415 123.286 41.4926 123.286 41.4279C123.286 41.3891 123.306 41.3373 123.364 41.2725C123.429 41.2013 123.616 41.156 123.733 41.1366C124.057 41.0913 124.516 41.0719 124.652 41.0719H124.82C124.924 40.8324 125.112 40.6576 125.481 40.6576C125.753 40.6576 126.005 40.8 126.186 41.0395C126.381 41.033 126.549 41.033 126.678 41.033C126.905 41.033 127.416 41.046 127.416 41.3049C127.416 41.4538 127.313 41.4861 127.222 41.5897C127.151 41.6739 127.034 41.7127 126.924 41.7386C126.756 41.7774 126.652 41.7904 126.549 41.7904C126.529 41.7904 126.484 41.7904 126.419 41.7904C126.426 41.8163 126.432 41.8486 126.445 41.8745C126.549 42.1658 126.581 42.4506 126.614 42.7613C126.646 43.0462 126.659 43.331 126.691 43.6223C126.717 43.8877 126.769 44.1531 126.795 44.4185C126.801 44.5026 126.801 44.5997 126.801 44.6839V44.768C126.801 44.9169 126.801 45.0593 126.834 45.2017C126.853 45.2859 126.911 45.3506 126.924 45.4347C126.924 45.4477 126.931 45.4606 126.931 45.4736C126.931 45.5124 126.924 45.5577 126.924 45.603C126.924 45.7066 126.95 45.726 127.073 45.726C127.287 45.726 128.057 45.6548 128.141 45.6483C128.303 45.6354 128.471 45.6419 128.633 45.6419C128.737 45.6419 128.834 45.6289 128.931 45.6289C129.047 45.6289 129.132 45.5901 129.132 45.4477C129.132 45.2988 129.099 45.0852 129.099 45.0205C129.099 44.7097 129.112 44.399 129.132 44.0883C129.138 44.0301 129.157 43.7323 129.183 43.4022C129.203 43.1109 129.222 42.7937 129.222 42.5866C129.222 42.4571 129.196 42.2694 129.196 42.1658C129.196 42.0234 129.196 41.9781 129.19 41.8745C129.099 41.8745 129.009 41.8681 128.918 41.8551C128.776 41.8422 128.588 41.8292 128.458 41.7774C128.316 41.7192 128.212 41.5703 128.212 41.5056C128.212 41.4667 128.219 41.4279 128.29 41.3696C128.374 41.2984 128.523 41.2531 128.64 41.2337C128.847 41.2078 129.073 41.1884 129.235 41.1754C129.267 41.1172 129.326 41.0783 129.384 41.0783C129.513 41.0783 129.688 41.0266 129.714 41.0266C129.74 41.0266 129.772 41.0266 129.798 41.0266C129.915 41.0266 130.038 41.046 130.148 41.0719C130.213 41.0913 130.264 41.1172 130.31 41.1431C130.782 41.1237 131.281 41.1042 131.54 41.1042C131.766 41.1042 132.187 41.1172 132.187 41.3696C132.187 41.5185 132.18 41.5574 132.09 41.6609C132.019 41.7451 131.902 41.7839 131.792 41.8098C131.624 41.8486 131.52 41.8551 131.417 41.8616C131.365 41.8616 131.054 41.8616 130.711 41.8551C130.756 42.004 130.84 42.1335 130.873 42.2888C130.931 42.5736 131.015 42.8584 131.08 43.1497C131.132 43.3892 131.119 43.6158 131.177 43.8488C131.242 44.0883 131.261 44.3019 131.281 44.5479C131.294 44.7551 131.261 44.8845 131.261 45.0917C131.261 45.1693 131.3 45.3506 131.3 45.4283C131.3 45.4606 131.3 45.48 131.3 45.4995C131.3 45.5707 131.371 45.5707 131.449 45.5707C131.494 45.5707 131.559 45.5642 131.63 45.5642C131.779 45.5642 131.941 45.5836 132.006 45.7001C132.019 45.7325 132.032 45.7649 132.032 45.7972C132.032 45.9591 131.863 46.1144 131.74 46.1727C131.669 46.205 131.559 46.2309 131.481 46.2503C131.404 46.2698 131.358 46.2762 131.326 46.341C131.319 46.3539 131.319 46.3669 131.319 46.3863C131.319 46.4445 131.332 46.5352 131.332 46.574C131.332 46.5999 131.332 46.6323 131.332 46.6581C131.332 46.8135 131.313 46.9559 131.313 47.1113C131.313 47.4932 131.319 47.8751 131.352 48.2635C131.391 48.6648 131.43 49.0726 131.43 49.4739C131.43 49.6681 131.417 49.8623 131.391 50.05C131.345 50.3866 131.326 50.7168 131.3 51.0534C131.294 51.1052 131.242 51.144 131.235 51.2022C131.229 51.267 131.268 51.3317 131.268 51.4029C131.268 51.4418 131.261 51.4806 131.248 51.5194C131.468 51.5065 131.656 51.5 131.766 51.5Z" fill="white"/>
<path d="M140 43.1367C140 43.3374 139.987 43.7258 139.735 43.7258C139.586 43.7258 139.547 43.6999 139.443 43.6222C139.359 43.5575 139.32 43.4539 139.294 43.3568C139.256 43.2079 139.243 43.1108 139.243 43.0202C139.243 42.9231 139.256 42.3017 139.256 42.1463C139.256 42.0428 139.256 41.9327 139.249 41.8227C139.1 41.8292 138.951 41.8292 138.803 41.8356C138.66 41.8421 138.511 41.8421 138.369 41.8551C138.213 41.868 138.065 41.8809 137.909 41.8939C137.851 41.9004 137.793 41.9068 137.741 41.9068C137.734 41.9068 137.728 41.9068 137.722 41.9068C137.579 41.9068 137.54 41.9521 137.54 42.0233C137.54 42.0816 137.566 42.1528 137.573 42.1981C137.599 42.3535 137.618 42.6577 137.631 42.8195C137.644 42.9684 137.65 43.1238 137.657 43.2727C137.657 43.4086 137.631 43.551 137.631 43.6934C137.631 43.8358 137.696 44.0494 137.689 44.1918C137.683 44.3407 137.67 44.4961 137.663 44.6514C137.644 44.9621 137.663 45.2858 137.676 45.5965C137.683 45.7454 137.696 45.8943 137.702 46.0431C137.702 46.1143 137.689 46.1791 137.689 46.2503C137.689 46.3215 137.715 46.5221 137.715 46.5934C137.715 46.9041 137.715 47.0918 137.722 47.4025C137.728 47.7132 137.754 48.0304 137.741 48.3411C137.734 48.49 137.709 48.6324 137.715 48.7813C137.715 48.9496 137.734 49.1179 137.741 49.2797C137.76 49.5969 137.767 49.9205 137.767 50.2377C137.767 50.5355 137.773 50.9044 137.76 51.2022C137.76 51.254 137.754 51.3058 137.747 51.3575C137.935 51.3511 138.084 51.3511 138.175 51.3511C138.401 51.3511 138.841 51.4158 138.841 51.6747C138.841 51.8236 138.815 51.8624 138.725 51.966C138.654 52.0502 138.537 52.089 138.427 52.1149C138.259 52.1537 138.155 52.1667 138.052 52.1667C138.013 52.1667 137.786 52.1667 137.495 52.1602C137.443 52.1926 137.391 52.2185 137.346 52.2444C137.217 52.322 137.1 52.3479 136.958 52.3479C136.848 52.3479 136.744 52.3609 136.634 52.3609C136.446 52.3609 136.317 52.2961 136.174 52.2185C136.136 52.199 136.103 52.1796 136.064 52.1537C135.831 52.1537 135.624 52.1732 135.378 52.1732C135.236 52.1732 135.093 52.1667 134.951 52.1537C134.809 52.1408 134.621 52.1278 134.491 52.0761C134.349 52.0178 134.207 51.8107 134.207 51.7459C134.207 51.7071 134.213 51.6683 134.284 51.61C134.368 51.5388 134.556 51.4935 134.673 51.4741C134.964 51.4352 135.255 51.4158 135.404 51.4093V51.3899C135.404 51.2216 135.359 51.0533 135.359 50.885C135.359 50.5937 135.385 50.2312 135.385 49.9464C135.391 49.6357 135.404 49.325 135.424 49.0143C135.437 48.6388 135.456 48.2699 135.456 47.9009C135.456 47.6355 135.443 47.3701 135.456 47.1047C135.462 46.9558 135.495 46.807 135.508 46.6516C135.521 46.5092 135.56 46.3733 135.56 46.2309C135.566 45.9201 135.553 45.603 135.553 45.2923C135.553 44.9686 135.572 44.6385 135.572 44.3148C135.572 44.0365 135.56 43.7581 135.56 43.4863C135.56 43.1302 135.566 42.6253 135.572 42.2693C135.572 42.1981 135.598 42.0946 135.598 42.0104C135.598 41.8939 135.501 41.8874 135.462 41.8874C135.359 41.8874 134.789 41.9004 134.712 41.9004C134.42 41.9004 134.129 41.9004 133.838 41.8615C133.792 41.855 133.741 41.8486 133.695 41.8356C133.721 42.1852 133.728 42.7936 133.728 43.1302C133.728 43.3309 133.715 43.7193 133.462 43.7193C133.313 43.7193 133.275 43.6934 133.171 43.6157C133.087 43.551 133.041 43.4474 133.022 43.3503C132.983 43.2015 132.97 43.1108 132.97 43.0137C132.97 42.9166 132.983 42.4441 132.983 42.2887C132.983 42.0816 132.97 41.8745 132.964 41.6609C132.912 41.5897 132.867 41.499 132.867 41.4214C132.867 41.3502 132.899 41.2919 132.983 41.2466C133.132 41.1754 133.19 41.0912 133.443 41.0912C133.566 41.0912 133.708 41.0848 133.825 41.0848C134.142 41.0783 134.459 41.0848 134.776 41.0459C134.925 41.0265 135.074 41.0135 135.223 41.0071C135.236 41.0071 135.249 41.0071 135.262 41.0071C135.333 41.0071 135.411 41.0135 135.482 41.0135C135.54 41.0135 135.598 41.0071 135.644 40.9941C135.754 40.9618 135.851 40.8647 135.967 40.8194C136.064 40.7805 136.168 40.7805 136.265 40.7805C136.446 40.7805 136.628 40.7805 136.802 40.8323C136.867 40.8517 136.925 40.8776 136.984 40.91C137.048 40.9423 137.113 41.0135 137.184 41.0394C137.223 41.0524 137.275 41.0589 137.327 41.0589C137.404 41.0589 137.488 41.0459 137.553 41.0459C137.715 41.0459 137.883 41.0394 138.045 41.0394C138.44 41.0394 138.841 41.033 139.243 41.033C139.443 41.033 139.651 41.0459 139.806 41.1365C139.916 41.2013 139.987 41.3307 139.987 41.4602C139.987 41.5249 139.968 41.5897 139.929 41.6414C139.935 41.6673 139.935 41.6738 139.948 41.8356C139.994 42.2046 140 42.7483 140 43.1367Z" fill="white"/>
</svg>
