<svg xmlns="http://www.w3.org/2000/svg" xmlns:xlink="http://www.w3.org/1999/xlink" viewBox="0 0 399.93 51.82"><defs><style>.cls-1{fill:none;}.cls-2{clip-path:url(#clip-path);}.cls-3{fill:#3ba536;}.cls-4{fill:#006630;}.cls-5{fill:#008b3e;}.cls-6{fill:#9dc41a;}</style><clipPath id="clip-path" transform="translate(-37.44 -37.44)"><rect class="cls-1" width="474.81" height="126.7"/></clipPath></defs><title>Ресурс 2</title><g id="Слой_2" data-name="Слой 2"><g id="Layer_1" data-name="Layer 1"><g class="cls-2"><path class="cls-3" d="M65.41,51.52l-5.8,5.83-5.8-5.83a8.26,8.26,0,0,1,0-11.66,8.17,8.17,0,0,1,11.6,0A8.26,8.26,0,0,1,65.41,51.52Z" transform="translate(-37.44 -37.44)"/><path class="cls-4" d="M53.81,67.91l5.8-5.83,5.8,5.83a8.26,8.26,0,0,1,0,11.66,8.15,8.15,0,0,1-11.6,0A8.26,8.26,0,0,1,53.81,67.91Z" transform="translate(-37.44 -37.44)"/><path class="cls-5" d="M67.77,65.55,62,59.72l5.81-5.84a8.17,8.17,0,0,1,11.6,0,8.27,8.27,0,0,1,0,11.67A8.17,8.17,0,0,1,67.77,65.55Z" transform="translate(-37.44 -37.44)"/><path class="cls-6" d="M51.45,53.88l5.81,5.84-5.81,5.83a8.17,8.17,0,0,1-11.6,0,8.27,8.27,0,0,1,0-11.67A8.17,8.17,0,0,1,51.45,53.88Z" transform="translate(-37.44 -37.44)"/><polygon class="cls-4" points="338.98 13.73 314.99 13.73 314.99 20.47 323.49 20.47 323.49 40.94 330.48 40.94 330.48 20.47 338.98 20.47 338.98 13.73"/><path class="cls-4" d="M145.25,72.77a7.49,7.49,0,0,0,6.07-2.72L157,73.32c-2.54,3.7-6.6,5.82-11.8,5.82-9.1,0-14.84-6.26-14.84-14.37S136.1,50.4,144.6,50.4c8,0,13.71,6.37,13.71,14.37a16.59,16.59,0,0,1-.27,2.89H137.62C138.59,71.25,141.57,72.77,145.25,72.77Zm6.07-10.56a6.57,6.57,0,0,0-6.72-5.49,6.75,6.75,0,0,0-7.09,5.49Z" transform="translate(-37.44 -37.44)"/><path class="cls-4" d="M192.17,64.77c0,8.11-6,14.37-13.22,14.37a10.51,10.51,0,0,1-8.77-4V89.26h-7V51.17h7v3.21a10.51,10.51,0,0,1,8.77-4C186.21,50.4,192.17,56.67,192.17,64.77Zm-7,0a7.5,7.5,0,1,0-15,0,7.5,7.5,0,1,0,15,0Z" transform="translate(-37.44 -37.44)"/><path class="cls-4" d="M210.65,72.77a7.47,7.47,0,0,0,6.06-2.72l5.64,3.27c-2.55,3.7-6.61,5.82-11.81,5.82-9.1,0-14.84-6.26-14.84-14.37S201.49,50.4,210,50.4c8,0,13.7,6.37,13.7,14.37a16.59,16.59,0,0,1-.27,2.89H203C204,71.25,207,72.77,210.65,72.77Zm6.06-10.56A6.56,6.56,0,0,0,210,56.72a6.77,6.77,0,0,0-7.1,5.49Z" transform="translate(-37.44 -37.44)"/><path class="cls-4" d="M288,64.77c0,8.11-5.95,14.37-13.21,14.37a10.48,10.48,0,0,1-8.77-4V89.26h-7V51.17h7v3.21a10.49,10.49,0,0,1,8.77-4C282.05,50.4,288,56.67,288,64.77Zm-7,0a7.5,7.5,0,1,0-15,0,7.5,7.5,0,1,0,15,0Z" transform="translate(-37.44 -37.44)"/><path class="cls-4" d="M306.48,72.77a7.49,7.49,0,0,0,6.07-2.72l5.63,3.27c-2.54,3.7-6.6,5.82-11.8,5.82-9.1,0-14.84-6.26-14.84-14.37s5.79-14.37,14.29-14.37c8,0,13.7,6.37,13.7,14.37a16.61,16.61,0,0,1-.26,2.89H298.85C299.82,71.25,302.8,72.77,306.48,72.77Zm-9.8-28.13a3.73,3.73,0,0,1,3.68-3.7,3.68,3.68,0,0,1,3.63,3.7,3.63,3.63,0,0,1-3.63,3.64A3.68,3.68,0,0,1,296.68,44.64Zm15.87,17.57a6.57,6.57,0,0,0-6.72-5.49,6.75,6.75,0,0,0-7.09,5.49ZM307,44.64a3.73,3.73,0,0,1,3.68-3.7,3.68,3.68,0,0,1,3.63,3.7,3.63,3.63,0,0,1-3.63,3.64A3.68,3.68,0,0,1,307,44.64Z" transform="translate(-37.44 -37.44)"/><path class="cls-4" d="M322.8,64.77A14,14,0,0,1,337.1,50.4a13.61,13.61,0,0,1,12.13,7l-6,3.53A6.71,6.71,0,0,0,337,57.32a7.43,7.43,0,0,0,0,14.85,6.67,6.67,0,0,0,6.23-3.59l6.07,3.49a13.88,13.88,0,0,1-12.24,7.07A14,14,0,0,1,322.8,64.77Z" transform="translate(-37.44 -37.44)"/><path class="cls-4" d="M378.71,64.77A14.33,14.33,0,1,1,393,79.14,14.19,14.19,0,0,1,378.71,64.77Zm21.66,0A7.34,7.34,0,1,0,393,72.28,7.22,7.22,0,0,0,400.37,64.77Z" transform="translate(-37.44 -37.44)"/><polygon class="cls-4" points="208.88 40.94 217 40.94 206.64 27.17 216.68 13.73 208.34 13.73 200.52 24.77 198.13 24.77 198.13 13.73 191.14 13.73 191.14 40.94 198.13 40.94 198.13 30.21 201.06 30.21 208.88 40.94"/><polygon class="cls-4" points="391.8 40.94 399.93 40.94 389.56 27.17 399.6 13.73 391.26 13.73 383.44 24.77 381.06 24.77 381.06 13.73 374.07 13.73 374.07 40.94 381.06 40.94 381.06 30.21 383.98 30.21 391.8 40.94"/><polygon class="cls-4" points="88.28 40.94 80.8 40.94 80.8 10.52 67.43 10.52 67.43 40.94 59.95 40.94 59.95 3.49 88.28 3.49 88.28 40.94"/></g></g></g></svg>