<svg width="283" height="57" viewBox="0 0 283 57" fill="none" xmlns="http://www.w3.org/2000/svg">
<path d="M224.154 38.0264H212.963V41.1345H216.948V50.5076H220.194V41.1345H224.154V38.0264Z" fill="#5FAF2D"/>
<path d="M69.4712 44.2672C69.4712 40.552 72.2995 37.6866 76.1361 37.6866C78.6201 37.6866 80.7597 38.9736 81.7927 40.9162L78.989 42.5432C78.4725 41.5233 77.3904 40.8677 76.1115 40.8677C74.1686 40.8677 72.7176 42.3003 72.7176 44.2915C72.7176 46.2584 74.1686 47.6911 76.1115 47.6911C77.415 47.6911 78.5217 47.0597 79.0136 46.0399L81.8419 47.6425C80.7597 49.5851 78.6201 50.8721 76.1361 50.8721C72.2995 50.8478 69.4712 47.9825 69.4712 44.2672Z" fill="#5FAF2D"/>
<path d="M95.3936 38.0267L90.7946 50.508C89.4911 54.1018 87.1547 55.6802 84.1296 55.4859V52.4992C85.8512 52.5234 86.7612 51.9164 87.3514 50.3623L82.2605 38.051H85.7282L89.1222 46.4285L91.9259 38.051H95.3936V38.0267Z" fill="#5FAF2D"/>
<path d="M108.474 50.5076H105.203V41.0374H100.186V50.5076H96.915V38.0264H108.474V50.5076Z" fill="#5FAF2D"/>
<path d="M117.254 47.9343C118.508 47.9343 119.516 47.4001 120.082 46.6959L122.714 48.2014C121.533 49.9012 119.639 50.8725 117.205 50.8725C112.95 50.8725 110.294 48.0071 110.294 44.2919C110.294 40.5766 112.999 37.7113 116.959 37.7113C120.697 37.7113 123.353 40.6252 123.353 44.2919C123.353 44.7775 123.304 45.1903 123.23 45.6031H113.712C114.155 47.2301 115.532 47.9343 117.254 47.9343ZM120.082 43.102C119.689 41.3051 118.311 40.5767 116.959 40.5767C115.212 40.5767 114.032 41.4994 113.638 43.102H120.082Z" fill="#5FAF2D"/>
<path d="M138.624 44.2672C138.624 47.9825 135.845 50.8478 132.451 50.8478C130.606 50.8478 129.278 50.1679 128.368 49.0266V55.4858H125.122V38.0266H128.368V39.5078C129.278 38.3666 130.631 37.6866 132.451 37.6866C135.845 37.6866 138.624 40.552 138.624 44.2672ZM135.378 44.2672C135.378 42.1789 133.877 40.7463 131.861 40.7463C129.869 40.7463 128.368 42.1789 128.368 44.2672C128.368 46.3555 129.869 47.7882 131.861 47.7882C133.877 47.7882 135.378 46.3555 135.378 44.2672Z" fill="#5FAF2D"/>
<path d="M153.551 50.5076H150.403V43.2228L147.181 48.2008H146.788L143.541 43.1743V50.5076H140.418V38.0264H143.615L146.985 43.2714L150.354 38.0264H153.551V50.5076Z" fill="#5FAF2D"/>
<path d="M168.897 38.0266V50.5079H165.626V49.0266C164.716 50.1436 163.363 50.8478 161.519 50.8478C158.149 50.8478 155.37 47.9825 155.37 44.2672C155.37 40.552 158.149 37.6866 161.519 37.6866C163.363 37.6866 164.716 38.3908 165.626 39.5078V38.0266H168.897ZM165.626 44.2672C165.626 42.1789 164.126 40.7463 162.109 40.7463C160.117 40.7463 158.617 42.1789 158.617 44.2672C158.617 46.3555 160.117 47.7882 162.109 47.7882C164.126 47.7882 165.626 46.3555 165.626 44.2672Z" fill="#5FAF2D"/>
<path d="M184.857 44.2672C184.857 47.9825 182.078 50.8478 178.684 50.8478C176.839 50.8478 175.511 50.1679 174.601 49.0266V55.4858H171.355V38.0266H174.601V39.5078C175.511 38.3666 176.864 37.6866 178.684 37.6866C182.078 37.6866 184.857 40.552 184.857 44.2672ZM181.586 44.2672C181.586 42.1789 180.086 40.7463 178.069 40.7463C176.077 40.7463 174.577 42.1789 174.577 44.2672C174.577 46.3555 176.077 47.7882 178.069 47.7882C180.086 47.7882 181.586 46.3555 181.586 44.2672Z" fill="#5FAF2D"/>
<path d="M205.857 47.9343C207.111 47.9343 208.119 47.4001 208.685 46.6959L211.316 48.2014C210.136 49.9012 208.242 50.8725 205.807 50.8725C201.553 50.8725 198.896 48.0071 198.896 44.2919C198.896 40.5766 201.602 37.7113 205.561 37.7113C209.3 37.7113 211.956 40.6252 211.956 44.2919C211.956 44.7775 211.907 45.1903 211.833 45.6031H202.315C202.733 47.2301 204.135 47.9343 205.857 47.9343ZM208.685 43.102C208.291 41.3051 206.914 40.5767 205.561 40.5767C203.815 40.5767 202.635 41.4994 202.241 43.102H208.685Z" fill="#5FAF2D"/>
<path d="M194.914 50.5076H198.701L193.856 44.1941L198.554 38.0264H194.668L191.003 43.1014H189.897V38.0264H186.65V50.5076H189.897V45.5783H191.249L194.914 50.5076Z" fill="#5FAF2D"/>
<path d="M244.81 8.32959H229.784V12.4819H235.096V25.0846H239.473V12.4819H244.81V8.32959Z" fill="#005A28"/>
<path d="M99.9401 21.6358C101.637 21.6358 102.989 20.9316 103.752 19.9603L107.293 21.9758C105.695 24.2583 103.162 25.5696 99.8909 25.5696C94.1856 25.5696 90.5952 21.7086 90.5952 16.7307C90.5952 11.7285 94.2348 7.89185 99.5466 7.89185C104.563 7.89185 108.129 11.8256 108.129 16.7307C108.129 17.3621 108.055 17.9448 107.957 18.5033H95.1693C95.7595 20.6888 97.6284 21.6358 99.9401 21.6358ZM103.752 15.1281C103.211 12.7241 101.366 11.7528 99.5466 11.7528C97.2104 11.7528 95.6119 12.9912 95.0955 15.1281H103.752Z" fill="#005A28"/>
<path d="M129.352 16.707C129.352 21.7092 125.614 25.5459 121.065 25.5459C118.581 25.5459 116.786 24.6474 115.556 23.0934V31.7622H111.179V8.32952H115.556V10.2964C116.786 8.74233 118.581 7.84387 121.065 7.84387C125.614 7.86815 129.352 11.7048 129.352 16.707ZM124.975 16.707C124.975 13.8902 122.958 11.9719 120.253 11.9719C117.573 11.9719 115.581 13.8902 115.581 16.707C115.581 19.5238 117.573 21.4421 120.253 21.4421C122.958 21.4421 124.975 19.5238 124.975 16.707Z" fill="#005A28"/>
<path d="M140.934 21.6358C142.631 21.6358 143.984 20.9316 144.746 19.9603L148.287 21.9758C146.689 24.2583 144.156 25.5696 140.885 25.5696C135.18 25.5696 131.589 21.7086 131.589 16.7307C131.589 11.7285 135.229 7.89185 140.541 7.89185C145.557 7.89185 149.123 11.8256 149.123 16.7307C149.123 17.3621 149.049 17.9448 148.951 18.5033H136.163C136.754 20.6888 138.623 21.6358 140.934 21.6358ZM144.721 15.1281C144.18 12.7241 142.336 11.7528 140.516 11.7528C138.18 11.7528 136.581 12.9912 136.065 15.1281H144.721Z" fill="#005A28"/>
<path d="M189.405 16.707C189.405 21.7092 185.667 25.5459 181.118 25.5459C178.634 25.5459 176.839 24.6474 175.609 23.0934V31.7622H171.232V8.32952H175.609V10.2964C176.839 8.74233 178.634 7.84387 181.118 7.84387C185.667 7.86815 189.405 11.7048 189.405 16.707ZM185.028 16.707C185.028 13.8902 183.011 11.9719 180.306 11.9719C177.626 11.9719 175.634 13.8902 175.634 16.707C175.634 19.5238 177.626 21.4421 180.306 21.4421C183.011 21.4421 185.028 19.5238 185.028 16.707Z" fill="#005A28"/>
<path d="M200.988 21.6369C202.685 21.6369 204.037 20.9328 204.8 19.9614L208.341 21.9769C206.742 24.2595 204.209 25.5707 200.939 25.5707C195.233 25.5707 191.643 21.7098 191.643 16.7319C191.643 11.7296 195.283 7.89299 200.594 7.89299C205.611 7.89299 209.177 11.8268 209.177 16.7319C209.177 17.3632 209.103 17.946 209.005 18.5045H196.217C196.807 20.6899 198.676 21.6369 200.988 21.6369ZM194.84 4.29917C194.84 3.06075 195.897 2.0166 197.152 2.0166C198.406 2.0166 199.414 3.06075 199.414 4.29917C199.414 5.53758 198.406 6.55745 197.152 6.55745C195.897 6.55745 194.84 5.53758 194.84 4.29917ZM204.775 15.1292C204.234 12.7252 202.39 11.7539 200.57 11.7539C198.234 11.7539 196.635 12.9923 196.119 15.1292H204.775ZM201.283 4.29917C201.283 3.06075 202.34 2.0166 203.595 2.0166C204.849 2.0166 205.882 3.06075 205.882 4.29917C205.882 5.53758 204.873 6.55745 203.595 6.55745C202.34 6.55745 201.283 5.53758 201.283 4.29917Z" fill="#005A28"/>
<path d="M211.218 16.7072C211.218 11.7049 215.029 7.86829 220.169 7.86829C223.489 7.86829 226.391 9.61663 227.768 12.1906L224.005 14.376C223.317 12.9919 221.866 12.142 220.145 12.142C217.538 12.142 215.595 14.0604 215.595 16.7314C215.595 19.3782 217.538 21.2966 220.145 21.2966C221.915 21.2966 223.366 20.4467 224.055 19.0869L227.866 21.2237C226.415 23.8462 223.514 25.5703 220.194 25.5703C215.005 25.546 211.218 21.7094 211.218 16.7072Z" fill="#005A28"/>
<path d="M246.236 16.7072C246.236 11.7049 250.195 7.86829 255.187 7.86829C260.179 7.86829 264.188 11.7292 264.188 16.7072C264.188 21.7094 260.179 25.546 255.187 25.546C250.22 25.546 246.236 21.7094 246.236 16.7072ZM259.81 16.7072C259.81 13.9875 257.818 12.0935 255.187 12.0935C252.605 12.0935 250.613 14.0118 250.613 16.7072C250.613 19.4268 252.605 21.3451 255.187 21.3451C257.818 21.3451 259.81 19.4268 259.81 16.7072Z" fill="#005A28"/>
<path d="M163.288 25.0846H168.379L161.862 16.61L168.157 8.32959H162.944L158.05 15.1287H156.55V8.32959H152.173V25.0846H156.55V18.4797H158.37L163.288 25.0846Z" fill="#005A28"/>
<path d="M277.565 8.32959L272.672 15.1287H271.171V8.32959H266.794V25.0846H271.171V18.4797H273.016L277.91 25.0846H283L276.508 16.61L282.803 8.32959H277.565Z" fill="#005A28"/>
<path d="M87.6942 25.0851H83.0217V6.36319H74.636V25.0851H69.939V2.0166H87.6942V25.0851Z" fill="#005A28"/>
<path d="M36.0266 17.7992L28.5507 25.1811L21.0749 17.7992C16.9435 13.7197 16.9435 7.1148 21.0749 3.05961C25.2063 -1.01987 31.8952 -1.01987 36.0266 3.05961C40.158 7.13909 40.158 13.744 36.0266 17.7992Z" fill="#5FAF2D"/>
<path d="M21.0753 38.5369L28.5512 31.155L36.0271 38.5369C40.1585 42.6164 40.1585 49.2213 36.0271 53.3008C31.8957 57.3802 25.2067 57.3802 21.0999 53.3008C16.9685 49.2213 16.9685 42.6164 21.0753 38.5369Z" fill="#005A28"/>
<path d="M39.0513 35.5501L31.5754 28.1682L39.0513 20.7863C43.1827 16.7068 49.8716 16.7068 54.003 20.7863C58.1344 24.8658 58.1344 31.4706 54.003 35.5501C49.8716 39.6296 43.1827 39.6296 39.0513 35.5501Z" fill="#1E8737"/>
<path d="M18.0503 20.7857L25.5262 28.1676L18.0503 35.5495C13.9189 39.629 7.22996 39.629 3.09855 35.5495C-1.03285 31.47 -1.03285 24.8651 3.09855 20.7857C7.25455 16.7305 13.9435 16.7305 18.0503 20.7857Z" fill="#AAE641"/>
</svg>
