<svg width="132" height="27" viewBox="0 0 132 27" fill="none" xmlns="http://www.w3.org/2000/svg">
<path d="M104.386 17.7085H99.1748V19.1559H101.03V23.5209H102.542V19.1559H104.386V17.7085Z" fill="#5FAF2D"/>
<path d="M32.3521 20.6148C32.3521 18.8847 33.6692 17.5503 35.4558 17.5503C36.6126 17.5503 37.609 18.1496 38.09 19.0543L36.7844 19.8119C36.5439 19.337 36.0399 19.0317 35.4444 19.0317C34.5396 19.0317 33.8639 19.6988 33.8639 20.6261C33.8639 21.5421 34.5396 22.2093 35.4444 22.2093C36.0514 22.2093 36.5668 21.9152 36.7958 21.4403L38.1129 22.1866C37.609 23.0913 36.6126 23.6906 35.4558 23.6906C33.6692 23.6793 32.3521 22.345 32.3521 20.6148Z" fill="#5FAF2D"/>
<path d="M44.4237 17.7085L42.282 23.5209C41.6749 25.1945 40.5869 25.9295 39.1782 25.8391V24.4482C39.9799 24.4595 40.4037 24.1768 40.6785 23.453L38.3077 17.7198H39.9226L41.5031 21.6211L42.8088 17.7198H44.4237V17.7085Z" fill="#5FAF2D"/>
<path d="M50.5153 23.5209H48.992V19.1107H46.6556V23.5209H45.1323V17.7085H50.5153V23.5209Z" fill="#5FAF2D"/>
<path d="M54.6038 22.3225C55.1879 22.3225 55.6575 22.0737 55.9209 21.7458L57.1464 22.4469C56.5966 23.2385 55.7147 23.6908 54.5809 23.6908C52.5995 23.6908 51.3625 22.3564 51.3625 20.6263C51.3625 18.8961 52.6224 17.5618 54.4663 17.5618C56.2072 17.5618 57.4441 18.9187 57.4441 20.6263C57.4441 20.8524 57.4212 21.0447 57.3869 21.2369H52.9545C53.1607 21.9946 53.8021 22.3225 54.6038 22.3225ZM55.9209 20.0722C55.7376 19.2354 55.0963 18.8961 54.4663 18.8961C53.6532 18.8961 53.1034 19.3258 52.9202 20.0722H55.9209Z" fill="#5FAF2D"/>
<path d="M64.5557 20.6148C64.5557 22.3449 63.2615 23.6793 61.681 23.6793C60.822 23.6793 60.2035 23.3627 59.7798 22.8312V25.8392H58.2679V17.7086H59.7798V18.3984C60.2035 17.8669 60.8334 17.5503 61.681 17.5503C63.2615 17.5503 64.5557 18.8847 64.5557 20.6148ZM63.0439 20.6148C63.0439 19.6423 62.3452 18.9751 61.4061 18.9751C60.4784 18.9751 59.7798 19.6423 59.7798 20.6148C59.7798 21.5873 60.4784 22.2545 61.4061 22.2545C62.3452 22.2545 63.0439 21.5873 63.0439 20.6148Z" fill="#5FAF2D"/>
<path d="M71.5072 23.5209H70.0412V20.1284L68.5408 22.4466H68.3576L66.8458 20.1058V23.5209H65.3912V17.7085H66.8801L68.4492 20.1511L70.0183 17.7085H71.5072V23.5209Z" fill="#5FAF2D"/>
<path d="M78.6533 17.7086V23.521H77.1301V22.8312C76.7063 23.3514 76.0764 23.6793 75.2174 23.6793C73.6483 23.6793 72.3541 22.345 72.3541 20.6148C72.3541 18.8847 73.6483 17.5503 75.2174 17.5503C76.0764 17.5503 76.7063 17.8782 77.1301 18.3984V17.7086H78.6533ZM77.1301 20.6148C77.1301 19.6423 76.4314 18.9751 75.4923 18.9751C74.5646 18.9751 73.8659 19.6423 73.8659 20.6148C73.8659 21.5873 74.5646 22.2545 75.4923 22.2545C76.4314 22.2545 77.1301 21.5873 77.1301 20.6148Z" fill="#5FAF2D"/>
<path d="M86.0857 20.6148C86.0857 22.3449 84.7915 23.6793 83.211 23.6793C82.352 23.6793 81.7335 23.3627 81.3098 22.8312V25.8392H79.798V17.7086H81.3098V18.3984C81.7335 17.8669 82.3635 17.5503 83.211 17.5503C84.7915 17.5503 86.0857 18.8847 86.0857 20.6148ZM84.5624 20.6148C84.5624 19.6423 83.8638 18.9751 82.9247 18.9751C81.997 18.9751 81.2983 19.6423 81.2983 20.6148C81.2983 21.5873 81.997 22.2545 82.9247 22.2545C83.8638 22.2545 84.5624 21.5873 84.5624 20.6148Z" fill="#5FAF2D"/>
<path d="M95.8652 22.3225C96.4494 22.3225 96.9189 22.0737 97.1823 21.7458L98.4078 22.4469C97.8581 23.2385 96.9762 23.6908 95.8423 23.6908C93.861 23.6908 92.624 22.3564 92.624 20.6263C92.624 18.8961 93.8839 17.5618 95.7278 17.5618C97.4687 17.5618 98.7056 18.9187 98.7056 20.6263C98.7056 20.8524 98.6827 21.0447 98.6483 21.2369H94.216C94.4107 21.9946 95.0635 22.3225 95.8652 22.3225ZM97.1823 20.0722C96.9991 19.2354 96.3577 18.8961 95.7278 18.8961C94.9146 18.8961 94.3649 19.3258 94.1816 20.0722H97.1823Z" fill="#5FAF2D"/>
<path d="M90.7694 23.5209H92.5332L90.2769 20.5808L92.4644 17.7085H90.6548L88.9483 20.0719H88.4329V17.7085H86.9211V23.5209H88.4329V21.2253H89.0629L90.7694 23.5209Z" fill="#5FAF2D"/>
<path d="M114.005 3.87915H107.008V5.81284H109.482V11.6818H111.52V5.81284H114.005V3.87915Z" fill="#005A28"/>
<path d="M46.541 10.0757C47.3312 10.0757 47.9611 9.74777 48.3161 9.29544L49.9652 10.234C49.2208 11.297 48.0412 11.9076 46.5181 11.9076C43.8612 11.9076 42.1892 10.1096 42.1892 7.79146C42.1892 5.46198 43.8841 3.67529 46.3578 3.67529C48.694 3.67529 50.3546 5.50721 50.3546 7.79146C50.3546 8.08547 50.3202 8.35687 50.2744 8.61695H44.3193C44.5942 9.63469 45.4645 10.0757 46.541 10.0757ZM48.3161 7.04512C48.0641 5.92561 47.2052 5.47329 46.3578 5.47329C45.2698 5.47329 44.5254 6.05 44.2849 7.04512H48.3161Z" fill="#005A28"/>
<path d="M60.2377 7.78031C60.2377 10.1098 58.497 11.8965 56.3784 11.8965C55.2217 11.8965 54.3857 11.4781 53.8131 10.7544V14.7914H51.7747V3.879H53.8131V4.79496C54.3857 4.07123 55.2217 3.65283 56.3784 3.65283C58.497 3.66414 60.2377 5.45083 60.2377 7.78031ZM58.1993 7.78031C58.1993 6.46856 57.2602 5.57522 56.0005 5.57522C54.7522 5.57522 53.8246 6.46856 53.8246 7.78031C53.8246 9.09205 54.7522 9.9854 56.0005 9.9854C57.2602 9.9854 58.1993 9.09205 58.1993 7.78031Z" fill="#005A28"/>
<path d="M65.6315 10.0757C66.4217 10.0757 67.0515 9.74777 67.4065 9.29544L69.0556 10.234C68.3113 11.297 67.1317 11.9076 65.6086 11.9076C62.9517 11.9076 61.2797 10.1096 61.2797 7.79146C61.2797 5.46198 62.9746 3.67529 65.4482 3.67529C67.7845 3.67529 69.445 5.50721 69.445 7.79146C69.445 8.08547 69.4107 8.35687 69.3648 8.61695H63.4098C63.6846 9.63469 64.555 10.0757 65.6315 10.0757ZM67.3951 7.04512C67.1431 5.92561 66.2842 5.47329 65.4368 5.47329C64.3488 5.47329 63.6044 6.05 63.3639 7.04512H67.3951Z" fill="#005A28"/>
<path d="M88.2037 7.78031C88.2037 10.1098 86.463 11.8965 84.3443 11.8965C83.1877 11.8965 82.3517 11.4781 81.7791 10.7544V14.7914H79.7406V3.879H81.7791V4.79496C82.3517 4.07123 83.1877 3.65283 84.3443 3.65283C86.463 3.66414 88.2037 5.45083 88.2037 7.78031ZM86.1652 7.78031C86.1652 6.46856 85.2261 5.57522 83.9664 5.57522C82.7181 5.57522 81.7905 6.46856 81.7905 7.78031C81.7905 9.09205 82.7181 9.9854 83.9664 9.9854C85.2261 9.9854 86.1652 9.09205 86.1652 7.78031Z" fill="#005A28"/>
<path d="M93.5978 10.0762C94.388 10.0762 95.0178 9.74826 95.3728 9.29593L97.0219 10.2345C96.2776 11.2975 95.098 11.9081 93.5749 11.9081C90.918 11.9081 89.246 10.1101 89.246 7.79195C89.246 5.46247 90.9409 3.67578 93.4145 3.67578C95.7508 3.67578 97.4113 5.5077 97.4113 7.79195C97.4113 8.08596 97.377 8.35736 97.3311 8.61744H91.3761C91.6509 9.63518 92.5213 10.0762 93.5978 10.0762ZM90.7347 2.00218C90.7347 1.42546 91.2272 0.939209 91.8112 0.939209C92.3953 0.939209 92.8648 1.42546 92.8648 2.00218C92.8648 2.57889 92.3953 3.05383 91.8112 3.05383C91.2272 3.05383 90.7347 2.57889 90.7347 2.00218ZM95.3614 7.04561C95.1094 5.9261 94.2505 5.47378 93.4031 5.47378C92.3151 5.47378 91.5707 6.05049 91.3303 7.04561H95.3614ZM93.7352 2.00218C93.7352 1.42546 94.2276 0.939209 94.8117 0.939209C95.3957 0.939209 95.8767 1.42546 95.8767 2.00218C95.8767 2.57889 95.4072 3.05383 94.8117 3.05383C94.2276 3.05383 93.7352 2.57889 93.7352 2.00218Z" fill="#005A28"/>
<path d="M98.3617 7.78047C98.3617 5.45099 100.137 3.66431 102.53 3.66431C104.076 3.66431 105.428 4.47849 106.069 5.67716L104.317 6.69489C103.996 6.05033 103.32 5.65454 102.519 5.65454C101.305 5.65454 100.4 6.54789 100.4 7.79178C100.4 9.02437 101.305 9.91771 102.519 9.91771C103.343 9.91771 104.019 9.52193 104.34 8.88867L106.115 9.88379C105.439 11.1051 104.088 11.908 102.542 11.908C100.125 11.8966 98.3617 10.11 98.3617 7.78047Z" fill="#005A28"/>
<path d="M114.669 7.78047C114.669 5.45099 116.513 3.66431 118.838 3.66431C121.162 3.66431 123.029 5.4623 123.029 7.78047C123.029 10.11 121.162 11.8966 118.838 11.8966C116.524 11.8966 114.669 10.11 114.669 7.78047ZM120.991 7.78047C120.991 6.51396 120.063 5.63192 118.838 5.63192C117.635 5.63192 116.708 6.52527 116.708 7.78047C116.708 9.04699 117.635 9.94033 118.838 9.94033C120.063 9.94033 120.991 9.04699 120.991 7.78047Z" fill="#005A28"/>
<path d="M76.0416 11.6818H78.4121L75.3773 7.73523L78.3091 3.87915H75.8812L73.6023 7.04543H72.9037V3.87915H70.8652V11.6818H72.9037V8.60596H73.7512L76.0416 11.6818Z" fill="#005A28"/>
<path d="M129.259 3.87915L126.98 7.04543H126.282V3.87915H124.243V11.6818H126.282V8.60596H127.141L129.42 11.6818H131.79L128.767 7.73523L131.698 3.87915H129.259Z" fill="#005A28"/>
<path d="M40.8381 11.682H38.6622V2.96337H34.7571V11.682H32.5697V0.939209H40.8381V11.682Z" fill="#005A28"/>
<path d="M16.7773 8.28888L13.2959 11.7266L9.81442 8.28888C7.89047 6.38911 7.89047 3.31329 9.81442 1.42483C11.7384 -0.474942 14.8533 -0.474942 16.7773 1.42483C18.7012 3.3246 18.7012 6.40041 16.7773 8.28888Z" fill="#5FAF2D"/>
<path d="M9.81442 17.9462L13.2958 14.5085L16.7773 17.9462C18.7012 19.846 18.7012 22.9218 16.7773 24.8216C14.8533 26.7213 11.7384 26.7213 9.82587 24.8216C7.90192 22.9218 7.90192 19.846 9.81442 17.9462Z" fill="#005A28"/>
<path d="M18.1858 16.5553L14.7043 13.1176L18.1858 9.67995C20.1097 7.78018 23.2247 7.78018 25.1486 9.67995C27.0726 11.5797 27.0726 14.6555 25.1486 16.5553C23.2247 18.4551 20.1097 18.4551 18.1858 16.5553Z" fill="#1E8737"/>
<path d="M8.40583 9.67953L11.8873 13.1172L8.40583 16.5549C6.48188 18.4547 3.36691 18.4547 1.44296 16.5549C-0.480988 14.6551 -0.480988 11.5793 1.44296 9.67953C3.37837 7.79107 6.49333 7.79107 8.40583 9.67953Z" fill="#AAE641"/>
</svg>
