<svg width="31" height="30" viewBox="0 0 31 30" fill="none" xmlns="http://www.w3.org/2000/svg">
<path fill-rule="evenodd" clip-rule="evenodd" d="M30.5 15C30.5 23.2843 23.7843 30 15.5 30C7.21573 30 0.5 23.2843 0.5 15C0.5 6.71573 7.21573 0 15.5 0C23.7843 0 30.5 6.71573 30.5 15ZM20.5218 10.4686C20.5218 12.9362 18.5294 14.9371 16.0722 14.9371C13.615 14.9371 11.6226 12.9362 11.6226 10.4686C11.6226 8.00095 13.615 6 16.0722 6C18.5294 6 20.5218 8.00095 20.5218 10.4686ZM17.9119 10.4686C17.9119 9.44572 17.0907 8.62105 16.0722 8.62105C15.0537 8.62105 14.2325 9.44572 14.2325 10.4686C14.2325 11.485 15.0537 12.3161 16.0722 12.3161C17.0907 12.3161 17.9119 11.4914 17.9119 10.4686ZM20.5473 17.2321C20.49 17.2833 19.4269 18.1271 17.6445 18.4915L20.3309 21.1637C20.8019 21.6368 20.8019 22.4103 20.3309 22.8834C19.8598 23.3564 19.0896 23.3564 18.6185 22.8834L16.0085 20.3327L13.6405 22.8706C13.405 23.1199 13.0867 23.2414 12.7684 23.2414C12.4628 23.2414 12.1636 23.1327 11.9281 22.9026C11.4443 22.4359 11.4316 21.6687 11.8963 21.1829L14.4489 18.5043C12.622 18.1463 11.508 17.2769 11.4507 17.2321C10.9351 16.8102 10.8459 16.0495 11.2661 15.5253C11.6862 15.0075 12.4437 14.918 12.9657 15.3399C12.9721 15.3527 14.137 16.2285 16.0085 16.2285C17.7988 16.2285 18.9192 15.4212 19.0243 15.3455C19.029 15.3421 19.0317 15.3402 19.0323 15.3399C19.5543 14.918 20.3118 15.0011 20.7319 15.5253C21.1521 16.0495 21.0693 16.8102 20.5473 17.2321Z" fill="#055EB0"/>
</svg>
