<svg width="31" height="30" viewBox="0 0 31 30" fill="none" xmlns="http://www.w3.org/2000/svg">
<path fill-rule="evenodd" clip-rule="evenodd" d="M15.5 30C23.7843 30 30.5 23.2843 30.5 15C30.5 6.71573 23.7843 0 15.5 0C7.21573 0 0.5 6.71573 0.5 15C0.5 23.2843 7.21573 30 15.5 30ZM23.3631 10.6941C23.4831 10.294 23.3631 10 22.7921 10H20.904C20.4239 10 20.2025 10.254 20.0825 10.534C20.0825 10.534 19.1223 12.8744 17.7621 14.3947C17.322 14.8348 17.1219 14.9748 16.8819 14.9748C16.7619 14.9748 16.5881 14.8348 16.5881 14.4347V10.6941C16.5881 10.214 16.4488 10 16.0487 10H13.0816C12.7816 10 12.6011 10.2228 12.6011 10.434C12.6011 10.8891 13.2812 10.9941 13.3513 12.2743V15.0549C13.3513 15.6645 13.2412 15.775 13.0012 15.775C12.3611 15.775 10.8041 13.4241 9.88059 10.7341C9.69961 10.2112 9.51809 10 9.03553 10H7.14738C6.6079 10 6.5 10.254 6.5 10.534C6.5 11.0341 7.14013 13.5146 9.48054 16.7952C11.0408 19.0355 13.2391 20.25 15.2395 20.25C16.4397 20.25 16.5882 19.9803 16.5882 19.5156V17.8224C16.5882 17.2829 16.7019 17.1752 17.0819 17.1752C17.362 17.1752 17.8421 17.3153 18.9623 18.3955C20.2425 19.6757 20.4536 20.25 21.1737 20.25H23.0618C23.6013 20.25 23.8711 19.9803 23.7155 19.448C23.5452 18.9174 22.9339 18.1477 22.1229 17.2352C21.6828 16.7151 21.0227 16.1551 20.8226 15.875C20.5426 15.5149 20.6226 15.3549 20.8226 15.0348C20.8226 15.0348 23.1231 11.7942 23.3631 10.6941Z" fill="#055EB0"/>
</svg>
