<svg width="30" height="30" viewBox="0 0 30 30" fill="none" xmlns="http://www.w3.org/2000/svg">
<path fill-rule="evenodd" clip-rule="evenodd" d="M15 30C23.2843 30 30 23.2843 30 15C30 6.71573 23.2843 0 15 0C6.71573 0 0 6.71573 0 15C0 23.2843 6.71573 30 15 30ZM15.5562 22V15.1578H17.8528L18.1967 12.4912H15.5562V10.7888C15.5562 10.0168 15.7705 9.49069 16.8776 9.49069L18.2896 9.49007V7.1051C18.0454 7.0726 17.2072 7 16.2321 7C14.1963 7 12.8025 8.24267 12.8025 10.5247V12.4912H10.5V15.1578H12.8025V22H15.5562Z" fill="#055EB0"/>
</svg>
