<svg width="27" height="27" viewBox="0 0 27 27" fill="none" xmlns="http://www.w3.org/2000/svg">
<path fill-rule="evenodd" clip-rule="evenodd" d="M27 13.8326C27 21.1047 21.1047 27 13.8326 27C6.56042 27 0.665161 21.1047 0.665161 13.8326C0.665161 6.56042 6.56042 0.665161 13.8326 0.665161C21.1047 0.665161 27 6.56042 27 13.8326ZM18.2409 9.85476C18.2409 12.0209 16.4918 13.7774 14.3349 13.7774C12.1779 13.7774 10.4289 12.0209 10.4289 9.85476C10.4289 7.68861 12.1779 5.93213 14.3349 5.93213C16.4918 5.93213 18.2409 7.68861 18.2409 9.85476ZM15.9498 9.85476C15.9498 8.95687 15.229 8.23296 14.3349 8.23296C13.4408 8.23296 12.7199 8.95687 12.7199 9.85476C12.7199 10.747 13.4408 11.4766 14.3349 11.4766C15.229 11.4766 15.9498 10.7526 15.9498 9.85476ZM18.2632 15.792C18.213 15.8369 17.2798 16.5777 15.7151 16.8975L18.0733 19.2433C18.4868 19.6585 18.4868 20.3376 18.0733 20.7528C17.6597 21.1681 16.9836 21.1681 16.5701 20.7528L14.279 18.5137L12.2003 20.7416C11.9935 20.9605 11.7141 21.0671 11.4347 21.0671C11.1665 21.0671 10.9038 20.9717 10.6971 20.7697C10.2724 20.36 10.2612 19.6866 10.6691 19.2601L12.9099 16.9088C11.3062 16.5945 10.3283 15.8313 10.278 15.792C9.82535 15.4216 9.74712 14.7538 10.1159 14.2937C10.4847 13.8391 11.1497 13.7606 11.6079 14.1309C11.6135 14.1422 12.6361 14.911 14.279 14.911C15.8505 14.911 16.834 14.2024 16.9263 14.1359C16.9305 14.1329 16.9328 14.1312 16.9333 14.1309C17.3915 13.7606 18.0565 13.8335 18.4253 14.2937C18.7941 14.7538 18.7215 15.4216 18.2632 15.792Z" fill="#27629E"/>
</svg>
