<svg width="27" height="27" viewBox="0 0 27 27" fill="none" xmlns="http://www.w3.org/2000/svg">
<path fill-rule="evenodd" clip-rule="evenodd" d="M13.7194 27C20.9916 27 26.8868 21.1047 26.8868 13.8326C26.8868 6.56042 20.9916 0.665161 13.7194 0.665161C6.44726 0.665161 0.552002 6.56042 0.552002 13.8326C0.552002 21.1047 6.44726 27 13.7194 27ZM20.6219 10.0527C20.7272 9.7015 20.6219 9.44344 20.1207 9.44344H18.4632C18.0418 9.44344 17.8475 9.66637 17.7421 9.9122C17.7421 9.9122 16.8992 11.9667 15.7052 13.3012C15.3188 13.6875 15.1432 13.8105 14.9325 13.8105C14.8272 13.8105 14.6747 13.6875 14.6747 13.3364V10.0527C14.6747 9.63126 14.5523 9.44344 14.2011 9.44344H11.5965C11.3331 9.44344 11.1748 9.63904 11.1748 9.82442C11.1748 10.2239 11.7717 10.3161 11.8333 11.4399V13.8807C11.8333 14.4159 11.7366 14.5129 11.5259 14.5129C10.964 14.5129 9.59722 12.4492 8.78658 10.0878C8.62771 9.62884 8.46837 9.44344 8.04477 9.44344H6.38729C5.91372 9.44344 5.819 9.66637 5.819 9.9122C5.819 10.3512 6.38093 12.5286 8.43541 15.4084C9.80505 17.3751 11.7348 18.4412 13.4908 18.4412C14.5443 18.4412 14.6747 18.2044 14.6747 17.7965V16.3101C14.6747 15.8366 14.7745 15.7421 15.1081 15.7421C15.3539 15.7421 15.7754 15.865 16.7588 16.8132C17.8826 17.937 18.0678 18.4412 18.7 18.4412H20.3575C20.831 18.4412 21.0678 18.2044 20.9312 17.7371C20.7817 17.2714 20.2452 16.5957 19.5332 15.7947C19.1469 15.3382 18.5674 14.8465 18.3918 14.6006C18.146 14.2846 18.2162 14.1441 18.3918 13.8632C18.3918 13.8632 20.4112 11.0185 20.6219 10.0527Z" fill="#27629E"/>
</svg>
