<svg width="27" height="27" viewBox="0 0 27 27" fill="none" xmlns="http://www.w3.org/2000/svg">
<path fill-rule="evenodd" clip-rule="evenodd" d="M13.1674 27C20.4396 27 26.3348 21.1047 26.3348 13.8326C26.3348 6.56042 20.4396 0.665161 13.1674 0.665161C5.89525 0.665161 0 6.56042 0 13.8326C0 21.1047 5.89525 27 13.1674 27ZM13.6556 19.9774V13.9711H15.6717L15.9735 11.6303H13.6556V10.1359C13.6556 9.45818 13.8438 8.99635 14.8156 8.99635L16.0551 8.99581V6.90221C15.8408 6.87369 15.105 6.80995 14.249 6.80995C12.4619 6.80995 11.2384 7.9008 11.2384 9.90407V11.6303H9.21719V13.9711H11.2384V19.9774H13.6556Z" fill="#27629E"/>
</svg>
