<svg width="239" height="99" viewBox="0 0 239 99" fill="none" xmlns="http://www.w3.org/2000/svg">
<path fill-rule="evenodd" clip-rule="evenodd" d="M16.2039 73.2216C6.1092 80.1215 10.9118 59.9602 4.30435 42.6765C-2.30306 25.3927 -3.12895 6.50005 15.121 8.85776C33.3709 11.2155 55.3344 20.6773 81.1094 15.405C106.884 10.1326 125.685 -1.13625 143.855 6.6733C162.026 14.4828 219.853 1.04824 233.643 13.2205C247.433 25.3928 230.657 44.7186 227.152 67.7698C223.646 90.821 219.828 89.4348 213.092 76.4952C206.357 63.5556 189.52 62.386 184.962 79.9792C180.404 97.5723 171.356 106.304 166.608 91.4088C160.288 71.5693 160.056 91.4212 155.596 90.1712C146.835 87.7144 150.836 76.9407 145.195 69.1312C135.131 55.1953 126.713 79.8307 103.832 71.2538C80.9504 62.6769 72.5993 55.616 54.068 60.1334C35.5367 64.6509 40.1374 77.4482 31.3458 86.3159C22.5543 95.1836 23.3007 68.37 16.2039 73.2216Z" fill="#B3E2F4"/>
<path fill-rule="evenodd" clip-rule="evenodd" d="M16.2039 69.2216C6.1092 76.1215 10.9118 55.9602 4.30435 38.6765C-2.30306 21.3927 -3.12895 2.50005 15.121 4.85776C33.3709 7.21548 55.3344 16.6773 81.1094 11.405C106.884 6.13259 125.685 -5.13625 143.855 2.6733C162.026 10.4828 219.853 -2.95176 233.643 9.2205C247.433 21.3928 230.657 40.7186 227.152 63.7698C223.646 86.821 219.828 85.4348 213.092 72.4952C206.357 59.5556 189.52 58.386 184.962 75.9792C180.404 93.5723 171.356 102.304 166.608 87.4088C160.288 67.5693 160.056 87.4212 155.596 86.1712C146.835 83.7144 150.836 72.9407 145.195 65.1312C135.131 51.1953 126.713 75.8307 103.832 67.2538C80.9504 58.6769 72.5993 51.616 54.068 56.1334C35.5367 60.6509 40.1374 73.4482 31.3458 82.3159C22.5543 91.1836 23.3007 64.37 16.2039 69.2216Z" fill="white"/>
</svg>
