<svg width="29" height="29" viewBox="0 0 29 29" fill="none" xmlns="http://www.w3.org/2000/svg">
<circle cx="14.5" cy="14.5" r="13.9" stroke="white" stroke-width="1.2"/>
<path d="M21.3722 10.4393L18.7758 10.4393C18.6698 10.4393 18.5658 10.471 18.4749 10.5309C18.3839 10.5908 18.3094 10.6768 18.2593 10.7796C18.2593 10.7796 17.2238 12.8803 16.8912 13.5879C15.9963 15.4913 15.4169 14.8937 15.4169 14.0103L15.4169 10.9644C15.4169 10.7099 15.3251 10.4658 15.1617 10.2858C14.9983 10.1059 14.7767 10.0047 14.5456 10.0047L12.5935 10.0047C12.3276 9.98297 12.0611 10.0364 11.8193 10.16C11.5775 10.2836 11.3684 10.4733 11.2118 10.7109C11.2118 10.7109 12.2031 10.5344 12.2031 12.0056C12.2031 12.3704 12.2201 13.4199 12.2357 14.3002C12.2386 14.4299 12.2053 14.5575 12.1404 14.6657C12.0754 14.7739 11.9818 14.8576 11.8723 14.9054C11.7628 14.9531 11.6426 14.9628 11.5279 14.9329C11.4133 14.9031 11.3097 14.8352 11.2312 14.7385C10.4322 13.5144 9.7703 12.1884 9.25998 10.7894C9.21616 10.6848 9.146 10.5962 9.05783 10.5341C8.96966 10.472 8.86718 10.4392 8.76255 10.4393C8.19948 10.4393 7.07272 10.4393 6.40357 10.4393C6.33868 10.4388 6.27466 10.4557 6.217 10.4885C6.15934 10.5213 6.10976 10.569 6.07253 10.6275C6.0353 10.6861 6.01154 10.7537 6.00327 10.8246C5.995 10.8955 6.00248 10.9675 6.02507 11.0345C6.74137 13.1988 9.82696 20 13.3489 20L14.8312 20C14.9865 20 15.1355 19.932 15.2453 19.8111C15.3552 19.6901 15.4169 19.526 15.4169 19.3549L15.4169 18.369C15.4169 18.2453 15.4497 18.1243 15.5114 18.0209C15.573 17.9175 15.6608 17.8363 15.7638 17.7872C15.8669 17.7381 15.9808 17.7233 16.0914 17.7446C16.202 17.7658 16.3045 17.8223 16.3864 17.907L18.1606 19.7433C18.32 19.9082 18.5304 20 18.7491 20L21.079 20C22.2027 20 22.2027 19.1411 21.5901 18.4764C21.1589 18.0087 19.603 16.2022 19.603 16.2022C19.4697 16.0501 19.3902 15.8506 19.3789 15.6396C19.3676 15.4287 19.4251 15.2202 19.5411 15.0519C20.044 14.3229 20.8666 13.1296 21.2155 12.6183C21.6924 11.9196 22.5554 10.4393 21.3722 10.4393Z" fill="white"/>
</svg>
