<svg width="29" height="29" viewBox="0 0 29 29" fill="none" xmlns="http://www.w3.org/2000/svg">
<path d="M14.4993 20H14.4964C14.0443 19.997 10.0434 19.9613 8.90735 19.6485C8.11479 19.4311 7.48954 18.7996 7.27526 17.9954C6.97878 16.8635 6.99933 14.6891 6.99933 14.5134C6.99933 14.3406 6.97878 12.1484 7.27526 11.0076V11.0046C7.48661 10.2093 8.12653 9.557 8.90442 9.33956C8.90735 9.33956 8.90735 9.33956 8.91029 9.33658C10.0316 9.03872 14.0414 9.00298 14.4935 9H14.5023C14.9573 9.00298 18.97 9.03872 20.0913 9.35148C20.8809 9.56594 21.5062 10.2004 21.7205 11.0046C22.0287 12.1454 21.9993 14.3436 21.9964 14.5283C21.9993 14.71 22.0169 16.8665 21.7205 18.0043V18.0073C21.5062 18.8115 20.8809 19.446 20.0884 19.6604H20.0854C18.9641 19.9583 14.9543 19.997 14.5023 20H14.4993ZM8.40833 11.3144C8.14708 12.3211 8.1735 14.4866 8.1735 14.5074V14.5223C8.16469 15.124 8.19404 16.8635 8.40833 17.6856C8.51401 18.0788 8.82222 18.3916 9.21264 18.4988C10.0492 18.7281 13.3075 18.7996 14.4993 18.8086C15.694 18.7996 18.9582 18.7311 19.789 18.5107C20.1794 18.4035 20.4876 18.0907 20.5903 17.6975C20.8075 16.8605 20.834 15.13 20.8252 14.5343C20.8252 14.5283 20.8252 14.5223 20.8252 14.5164C20.8369 13.9087 20.8134 12.1484 20.5903 11.3174V11.3144C20.4847 10.9182 20.1764 10.6055 19.786 10.4982C18.9582 10.2689 15.694 10.1974 14.4993 10.1885C13.3046 10.1974 10.0463 10.2659 9.21264 10.4863C8.8281 10.5965 8.51401 10.9182 8.40833 11.3144ZM13.0052 16.9082V12.0918L17.106 14.4985L13.0052 16.9082Z" fill="white"/>
<circle cx="14.5" cy="14.5" r="13.9" stroke="white" stroke-width="1.2"/>
</svg>
